<?xml version="1.0" encoding="utf-8"?>
<!-- Generator: Adobe Illustrator 25.3.1, SVG Export Plug-In . SVG Version: 6.00 Build 0)  -->
<svg version="1.1" xmlns="http://www.w3.org/2000/svg" xmlns:xlink="http://www.w3.org/1999/xlink" x="0px" y="0px"
	 viewBox="0 0 500 500" style="enable-background:new 0 0 500 500;" xml:space="preserve">
<g id="Floor">
	<ellipse id="Floor_3_" style="fill:#F0F0F0;" cx="249.81" cy="348.83" rx="231.54" ry="133.68"/>
</g>
<g id="Shadows">
	<path id="Shadow_1_" style="fill:#E0E0E0;" d="M323.9,384.07c0.07-2.09-0.65-4.45-1.85-6.5c0,0,0,0,0,0
		c-0.25-0.42-0.51-0.83-0.79-1.22c-0.01-0.02-0.03-0.04-0.04-0.06c-0.27-0.37-0.56-0.73-0.87-1.06c-0.03-0.03-0.05-0.06-0.08-0.09
		c-0.3-0.32-0.61-0.63-0.94-0.91c-0.03-0.02-0.06-0.05-0.09-0.07c-0.33-0.28-0.68-0.54-1.03-0.76c-0.2-0.13-0.4-0.24-0.6-0.34
		c-0.09-0.05-0.18-0.08-0.27-0.12c-0.1-0.05-0.21-0.1-0.31-0.14c-0.15-0.06-0.3-0.1-0.44-0.14c-0.04-0.01-0.08-0.03-0.12-0.04
		c-0.17-0.05-0.35-0.08-0.51-0.1c-0.01,0-0.02,0-0.03-0.01c-0.71-0.09-1.36,0.01-1.91,0.29c0,0,0,0,0,0v0c0,0-0.01,0-0.01,0l0,0
		c-5.29,2.65-35.77,22.05-49.8,30.79l-6.95,4.22c-0.2,0.11-0.37,0.28-0.51,0.49c-0.02,0.02-0.04,0.05-0.05,0.08
		c-0.06,0.09-0.11,0.19-0.16,0.3c-0.03,0.07-0.05,0.14-0.07,0.21c-0.03,0.09-0.06,0.17-0.08,0.27c-0.01,0.06-0.02,0.12-0.03,0.18
		c-0.32,0.17-0.71,0.39-1.15,0.63l-1.03,0.56c-2.2-2.12-4.85-4.1-7.93-5.88c-9.62-5.55-22.36-8.61-35.88-8.61
		c-13.52,0-26.26,3.06-35.88,8.61c-9.96,5.75-15.45,13.52-15.45,21.87c0,8.35,5.49,16.12,15.45,21.87
		c9.62,5.55,22.36,8.61,35.88,8.61c13.52,0,26.26-3.06,35.88-8.61c9.96-5.75,15.45-13.52,15.45-21.87c0-3.77-1.12-7.41-3.26-10.81
		l0.92-0.5c0.76,0.42,1.45,0.47,1.97,0.19l0.04-0.02c4.76-2.62,51.16-22.4,60.65-27.48c0,0,0,0,0,0c0,0,0,0,0.01,0l0,0
		C323.12,387.32,323.83,385.99,323.9,384.07z M241.85,440.81c-8.3,4.79-19.49,7.43-31.49,7.43c-12,0-23.19-2.64-31.49-7.43
		c-7.13-4.12-11.06-9.19-11.06-14.27c0-5.09,3.93-10.16,11.06-14.27c8.3-4.79,19.49-7.43,31.49-7.43c12.01,0,23.19,2.64,31.49,7.43
		c7.13,4.12,11.06,9.19,11.06,14.27C252.91,431.62,248.98,436.69,241.85,440.81z"/>
	<path id="Shadow" style="fill:#E0E0E0;" d="M330.98,266.6l-47.07-27.23c-2.39-1.38-6.27-1.38-8.66,0L36.17,377.41
		c-2.39,1.38-2.39,3.62,0,5l47.07,27.23c2.39,1.38,6.27,1.38,8.66,0l89.6-51.73l13.77,8.01c7.29,4.21,19.12,4.21,26.41,0
		l41.06-23.53c7.29-4.21,7.29-11.03,0-15.24l-13.76-8l82.01-47.54C333.38,270.22,333.38,267.98,330.98,266.6z"/>
	<ellipse id="Shadow_15_" style="fill:#E0E0E0;" cx="409.94" cy="368.86" rx="46.15" ry="26.65"/>
</g>
<g id="Plant">
	<g id="Plants_7_">
		<g id="XMLID_818_">
			<g id="XMLID_4861_">
				<path id="XMLID_4863_" style="fill:#27DEBF;" d="M436.16,338.77c0.01-6.25-1.24-17.76,4.05-28.56
					c3.83-7.82,10.69-15.43,17.06-14.67c5.94,0.7,6.48,9.83,0.8,16.08c-5.68,6.25-12.91,14.89-14.48,28.71l-4.09,10.25
					L436.16,338.77z"/>
			</g>
			<g id="XMLID_902_" style="opacity:0.2;">
				<path id="XMLID_948_" d="M436.16,338.77c0.01-6.25-1.24-17.76,4.05-28.56c3.83-7.82,10.69-15.43,17.06-14.67
					c5.94,0.7,6.48,9.83,0.8,16.08c-5.68,6.25-12.91,14.89-14.48,28.71l-4.09,10.25L436.16,338.77z"/>
			</g>
			<g id="XMLID_819_">
				<path id="XMLID_900_" style="fill:#FFFFFF;" d="M438.29,343.16c0.21-0.04,0.37-0.23,0.36-0.44
					c-0.72-17.76,5.06-32.51,16.72-42.64c0.18-0.16,0.2-0.43,0.04-0.61c-0.16-0.18-0.43-0.2-0.61-0.04
					c-11.86,10.31-17.75,25.3-17.02,43.33c0.01,0.24,0.21,0.43,0.45,0.42C438.25,343.16,438.27,343.16,438.29,343.16z"/>
			</g>
		</g>
		<g id="XMLID_774_">
			<path id="XMLID_800_" style="fill:#27DEBF;" d="M435.03,361.1c0,0,4.3,2.9,10.99,3.06c6.68,0.16,9.15-3.36,9.15-3.36
				s-3.4-5.79-7.35-7.02c0,0,6.47,0.44,11.98,3.14c0,0,4.01-0.48,4.78-6.79c0,0-2.86-3.35-11.07-4.27c0,0,4.67-1.86,11.88-1.02
				c0.55,0.14,1.72-8.05,1.91-11.78c0.19-3.73-1.27-3.49-4.21-3.87c-2.94-0.38-12.66,0.44-14.23,2.24c-1.57,1.8-1.75,7.25-1.75,7.25
				s-2.1-2.79-2.06-5.54c0,0-2.98-0.58-6.02,0.95c-3.04,1.54-4.01,2.77-4.16,5.1c-0.15,2.33-0.35,5.82,0.59,8.54
				c0,0-2.77-4.46-2.63-8.35c0,0-1.52,2.51-2.83,5.91C428.69,348.7,430.24,356.93,435.03,361.1z"/>
			<g id="XMLID_798_">
				<path id="XMLID_799_" style="fill:#FFFFFF;" d="M435.14,361.52c0.14-0.04,0.25-0.14,0.3-0.28c3.8-11.67,21.71-27.03,28.55-29.34
					c0.23-0.08,0.35-0.32,0.27-0.55c-0.08-0.23-0.31-0.36-0.55-0.27c-6.97,2.35-25.22,18.01-29.1,29.89
					c-0.07,0.23,0.05,0.47,0.28,0.55C434.98,361.54,435.06,361.55,435.14,361.52z"/>
			</g>
		</g>
	</g>
</g>
<g id="Device">
	<g id="Device_1_">
		<g id="Monitor_2_">
			<g id="XMLID_403_">
				<g id="XMLID_412_">
					<path id="XMLID_413_" style="fill:#37474F;" d="M221.68,361.95l35.37-20.45c3.65-2.11,5.47-4.86,5.47-7.62
						c0-2.76,0.02-4.92,0.02-4.92l-33.29-18.89c-1.94-1.12-3.52-3.85-3.52-6.1v-43.61l-61.79,35.7l0,43.61
						c0,2.25,1.58,4.98,3.52,6.1l27.81,16.19C202.56,366.16,214.39,366.16,221.68,361.95z"/>
				</g>
				<path id="XMLID_411_" style="fill:#263238;" d="M178.78,347.38v4.9l-11.32-6.53c-1.93-1.12-3.52-3.84-3.52-6.1v-43.61
					l11.77-6.79c0.24,2.99,0.51,6.08,0.75,9.09l-8.25,4.78v34.07c0,2.26,1.57,4.98,3.52,6.1L178.78,347.38z"/>
				<path id="XMLID_410_" style="fill:#455A64;" d="M168.21,337.21c0,2.25,1.58,4.98,3.52,6.1l23.54,13.72
					c7.29,4.21,19.12,4.21,26.41,0l35.39-20.45c7.29-4.21,7.29-11.03,0-15.24l-23.56-13.73c-1.94-1.12-3.52-3.85-3.52-6.1l0-34.08
					l-61.79,35.7V337.21z"/>
				<path id="XMLID_407_" style="opacity:0.15;" d="M240.69,311.75L240.69,311.75l-7.17-4.15c-1.95-1.12-3.52-3.85-3.52-6.1v-34.08
					l-61.79,35.7v34.08c0,2.25,1.58,4.98,3.52,6.1l7.05,4.07L240.69,311.75z"/>
				<path id="XMLID_405_" style="fill:#37474F;" d="M262.53,328.95c0,0,0,2.15,0,4.92c0,2.76-1.83,5.51-5.47,7.62l-35.38,20.44
					c-3.5,2.03-8.03,3.05-12.6,3.13v-4.9c4.57-0.06,9.11-1.12,12.6-3.13l35.38-20.46C260.7,334.48,262.53,331.72,262.53,328.95z"/>
			</g>
			<path id="XMLID_401_" style="fill:#455A64;" d="M69,384.26c2.28,1.32,6.1,1.25,8.53-0.16
				c30.38-17.54,208.58-120.42,238.95-137.95c2.43-1.4,4.4-4.82,4.4-7.62V29.37c0-2.81-1.85-6.15-4.13-7.47
				c-2.28-1.32-6.1-1.25-8.53,0.16L69.27,160.02c-2.43,1.4-4.4,4.82-4.4,7.62l0,209.15C64.87,379.6,66.72,382.94,69,384.26z"/>
			<path id="XMLID_398_" style="fill:#37474F;" d="M77.53,384.09l238.95-137.95c2.43-1.4,4.4-4.82,4.4-7.62V29.37
				c0-2.81-1.97-3.94-4.4-2.54L77.53,164.78c-2.43,1.4-4.4,4.82-4.4,7.62l0,209.15C73.13,384.36,75.1,385.5,77.53,384.09z"/>
			<path id="XMLID_346_" style="fill:#27DEBF;" d="M81.39,353.92l0-178.78c0-1.68,1.18-3.73,2.64-4.57L309.98,40.12
				c1.46-0.84,2.64-0.16,2.64,1.52l0.01,178.78c0,1.68-1.18,3.73-2.64,4.57L84.03,355.45C82.57,356.29,81.39,355.61,81.39,353.92z"
				/>
			<path id="XMLID_313_" style="opacity:0.7;fill:#FFFFFF;" d="M81.39,353.92l0-178.78c0-1.68,1.18-3.73,2.64-4.57L309.98,40.12
				c1.46-0.84,2.64-0.16,2.64,1.52l0.01,178.78c0,1.68-1.18,3.73-2.64,4.57L84.03,355.45C82.57,356.29,81.39,355.61,81.39,353.92z"
				/>
			<path style="fill:#27DEBF;" d="M196.55,306.65c-0.48,0-0.93-0.11-1.32-0.34c-0.94-0.54-1.46-1.65-1.46-3.11
				c0-2.84,1.92-6.17,4.38-7.59l0,0c1.27-0.73,2.48-0.83,3.42-0.29c0.94,0.54,1.46,1.65,1.46,3.11c0,2.84-1.92,6.17-4.38,7.59
				C197.92,306.44,197.21,306.65,196.55,306.65z M200.24,295.98c-0.48,0-1.02,0.17-1.59,0.5l0,0c-2.14,1.23-3.88,4.25-3.88,6.72
				c0,1.09,0.34,1.88,0.96,2.24c0.62,0.36,1.48,0.25,2.42-0.29c2.14-1.24,3.88-4.25,3.88-6.72c0-1.09-0.34-1.88-0.96-2.24
				C200.83,296.05,200.55,295.98,200.24,295.98z"/>
		</g>
	</g>
</g>
<g id="Window">
	<g id="Window_7_">
		<g>
			<g>
				<path style="fill:#F0F0F0;" d="M351.87,73.76l-232.71,134.2l0,171.51c0,2.28,2.47,3.72,4.45,2.58l4.15-2.39l219.77-126.72
					c2.39-1.38,4.34-4.74,4.34-7.51V73.76z"/>
				<path style="fill:#E0E0E0;" d="M350.87,75.49v169.93c0,2.4-1.76,5.44-3.84,6.65L127.26,378.79l-4.15,2.39
					c-0.31,0.18-0.63,0.27-0.97,0.27c-0.5,0-1.01-0.2-1.38-0.56c-0.39-0.37-0.6-0.87-0.6-1.42l0-170.94L350.87,75.49 M351.87,73.76
					l-232.71,134.2l0,171.51c0,1.73,1.42,2.98,2.98,2.98c0.49,0,1-0.13,1.47-0.4l4.15-2.39l219.77-126.72
					c2.39-1.38,4.34-4.74,4.34-7.51V73.76L351.87,73.76z"/>
			</g>
			<polygon style="opacity:0.8;fill:#455A64;" points="346.35,70.58 113.62,204.76 119.16,207.96 351.87,73.76 			"/>
			<path style="fill:#EBEBEB;" d="M120.72,382.09c0,0-1.56-0.76-1.56-2.62l0-166.57c0-1.37,0-4.94,0-4.94l-5.53-3.19l-0.01,170.56
				c0,0.21,0.01,0.42,0.04,0.63c0.2,1.41,1.03,2.66,2.26,3.36l4.57,2.64L120.72,382.09L120.72,382.09z"/>
		</g>
		<g>
			<g>
				<path style="fill:#27DEBF;" d="M113.62,204.84v-11.57c0-1.38,0.97-3.06,2.16-3.76L344.19,57.83c1.19-0.7,3.13-0.7,4.32-0.01
					l1.19,0.69c1.2,0.69,2.17,2.37,2.17,3.75l0,11.59L119.16,208.03L113.62,204.84z"/>
				<path style="opacity:0.3;" d="M113.62,204.84v-11.57c0-1.38,0.97-3.06,2.16-3.76L344.19,57.83c1.19-0.7,3.13-0.7,4.32-0.01
					l1.19,0.69c1.2,0.69,2.17,2.37,2.17,3.75l0,11.59L119.16,208.03L113.62,204.84z"/>
				<path style="fill:#27DEBF;" d="M119.16,196.46c0-1.38,0.97-3.06,2.16-3.76L349.71,61.02c1.19-0.7,2.16-0.14,2.16,1.24l0,11.59
					L119.16,208.03L119.16,196.46z"/>
				<path style="opacity:0.4;" d="M119.16,196.46c0-1.38,0.97-3.06,2.16-3.76L349.71,61.02c1.19-0.7,2.16-0.14,2.16,1.24l0,11.59
					L119.16,208.03L119.16,196.46z"/>
				<path style="fill:#27DEBF;" d="M119.79,194.32c-0.39,0.68-0.63,1.45-0.63,2.14v11.57l-5.53-3.19v-11.58
					c0-0.69,0.24-1.45,0.63-2.13L119.79,194.32z"/>
				<path style="opacity:0.5;" d="M119.79,194.32c-0.39,0.68-0.63,1.45-0.63,2.14v11.57l-5.53-3.19v-11.58
					c0-0.69,0.24-1.45,0.63-2.13L119.79,194.32z"/>
			</g>
			<g>
				<path style="fill:#FAFAFA;" d="M341.71,73.33c0,1.3,0.91,1.82,2.03,1.17c1.12-0.65,2.03-2.22,2.03-3.52
					c0-1.3-0.91-1.82-2.03-1.17C342.62,70.46,341.71,72.03,341.71,73.33z"/>
				<path style="fill:#FAFAFA;" d="M333.59,78.02c0,1.3,0.91,1.82,2.03,1.17c1.12-0.65,2.03-2.22,2.03-3.52
					c0-1.3-0.91-1.82-2.03-1.17C334.5,75.15,333.59,76.72,333.59,78.02z"/>
				<path style="fill:#FAFAFA;" d="M325.46,82.71c0,1.3,0.91,1.82,2.03,1.17s2.03-2.22,2.03-3.52c0-1.3-0.91-1.82-2.03-1.17
					C326.37,79.84,325.46,81.41,325.46,82.71z"/>
			</g>
		</g>
		<g>
			<path style="fill:#FAFAFA;" d="M119.16,208.04l0,171.44c0,2.28,2.47,3.72,4.45,2.58l4.15-2.39l50.85-29.32V173.75L119.16,208.04
				L119.16,208.04z"/>
			<polygon style="fill:#FAFAFA;" points="182.67,176.65 182.67,343.16 346.99,248.29 346.99,81.78 			"/>
			<g>
				<path style="fill:#27DEBF;" d="M165,193.87l-37.93,21.92c-0.7,0.41-1.27,1.39-1.27,2.2l0,3.95c0,0.81,0.57,1.14,1.27,0.73
					L165,200.75c0.7-0.41,1.27-1.39,1.27-2.2l0-3.95C166.27,193.8,165.7,193.47,165,193.87z"/>
				<path style="opacity:0.8;fill:#FAFAFA;" d="M165,193.87l-37.93,21.92c-0.7,0.41-1.27,1.39-1.27,2.2l0,3.95
					c0,0.81,0.57,1.14,1.27,0.73L165,200.75c0.7-0.41,1.27-1.39,1.27-2.2l0-3.95C166.27,193.8,165.7,193.47,165,193.87z"/>
				<path style="fill:#455A64;" d="M173.44,195.44l-1.12-1.08c0.22-0.56,0.36-1.18,0.36-1.79c0-0.91-0.3-1.61-0.84-1.92
					c-0.4-0.23-0.89-0.21-1.36,0.06c-0.98,0.57-1.76,2.16-1.76,3.63c0,0.91,0.3,1.61,0.84,1.92c0.19,0.11,0.39,0.16,0.6,0.16
					c0.25,0,0.51-0.07,0.76-0.22c0.37-0.21,0.71-0.57,0.99-1.02l0.92,0.88c0.08,0.08,0.19,0.12,0.3,0.12c0.12,0,0.23-0.05,0.32-0.13
					C173.63,195.89,173.62,195.61,173.44,195.44z M170.49,195.45c-0.19,0.11-0.36,0.13-0.48,0.06c-0.18-0.11-0.4-0.47-0.4-1.16
					c0-1.14,0.6-2.46,1.32-2.87c0.12-0.07,0.22-0.1,0.32-0.1c0.06,0,0.11,0.01,0.16,0.04c0.18,0.11,0.4,0.47,0.4,1.16
					C171.8,193.72,171.2,195.03,170.49,195.45z"/>
			</g>
			<g>
				<g>
					<g>
						<g>
							<path style="fill:#455A64;" d="M126.73,234.26l-0.85,0.49c-0.05,0.03-0.09,0-0.09-0.07v-2.3c0-0.07,0.04-0.14,0.09-0.17
								l0.85-0.49c0.05-0.03,0.09,0,0.09,0.07v2.3C126.82,234.15,126.78,234.23,126.73,234.26z"/>
						</g>
						<g>
							<path style="fill:#455A64;" d="M128,233.52l-0.85,0.49c-0.05,0.03-0.09,0-0.09-0.07v-2.3c0-0.07,0.04-0.14,0.09-0.17
								l0.85-0.49c0.05-0.03,0.09,0,0.09,0.07v2.3C128.09,233.41,128.05,233.49,128,233.52z"/>
						</g>
						<g>
							<path style="fill:#455A64;" d="M129.28,232.79l-0.85,0.49c-0.05,0.03-0.09,0-0.09-0.07v-2.3c0-0.07,0.04-0.14,0.09-0.17
								l0.85-0.49c0.05-0.03,0.09,0,0.09,0.07v2.3C129.37,232.68,129.33,232.76,129.28,232.79z"/>
						</g>
						<g>
							<path style="fill:#455A64;" d="M126.73,237.23l-0.85,0.49c-0.05,0.03-0.09,0-0.09-0.07v-2.3c0-0.07,0.04-0.14,0.09-0.17
								l0.85-0.49c0.05-0.03,0.09,0,0.09,0.07v2.3C126.82,237.12,126.78,237.2,126.73,237.23z"/>
						</g>
						<g>
							<path style="fill:#455A64;" d="M128,236.49l-0.85,0.49c-0.05,0.03-0.09,0-0.09-0.07v-2.3c0-0.07,0.04-0.14,0.09-0.17
								l0.85-0.49c0.05-0.03,0.09,0,0.09,0.07v2.3C128.09,236.38,128.05,236.46,128,236.49z"/>
						</g>
						<g>
							<path style="fill:#455A64;" d="M129.28,235.75l-0.85,0.49c-0.05,0.03-0.09,0-0.09-0.07v-2.3c0-0.07,0.04-0.14,0.09-0.17
								l0.85-0.49c0.05-0.03,0.09,0,0.09,0.07v2.3C129.37,235.65,129.33,235.73,129.28,235.75z"/>
						</g>
					</g>
					<g>
						<g>
							<path style="fill:#455A64;" d="M126.86,245.07l-1.05-0.64c-0.04-0.02-0.04-0.12,0-0.19l1.05-1.85
								c0.05-0.09,0.12-0.08,0.12,0.02v2.49C126.99,245.01,126.91,245.1,126.86,245.07z"/>
						</g>
						<g>
							<path style="fill:#455A64;" d="M126.42,243.66l1.38-0.8v0.66l-1.38,0.8c-0.12,0.07-0.21-0.02-0.21-0.2
								C126.21,243.93,126.31,243.73,126.42,243.66z"/>
							<polygon style="fill:#455A64;" points="128.06,242.72 128.53,242.45 128.53,243.1 128.06,243.37 							"/>
							<path style="fill:#455A64;" d="M129.8,242.04v2.41c0,0.18-0.1,0.38-0.21,0.45c-0.12,0.07-0.21-0.02-0.21-0.2v-2.08
								l-0.58,0.34v-0.66l0.8-0.46C129.7,241.77,129.8,241.86,129.8,242.04z"/>
						</g>
					</g>
					<g>
						<g>
							<path style="fill:#455A64;" d="M127.27,250.48c-0.98,0.67-1.64,2.53-1.45,3.9c0.17,1.26,0.92,1.21,1,1.79
								c0.01,0.06,0.05,0.09,0.1,0.06l0.93-0.53c0.05-0.03,0.09-0.1,0.1-0.17c0.1-0.77,1.05-1.7,1.06-3.56
								C129,250.53,128.21,249.83,127.27,250.48z"/>
						</g>
						<path style="fill:#455A64;" d="M127.83,257.2l-0.9,0.52c-0.06,0.04-0.11,0-0.11-0.08v-0.83c0-0.08,0.05-0.18,0.11-0.21
							l0.9-0.52c0.06-0.04,0.11,0,0.11,0.08v0.83C127.94,257.07,127.89,257.16,127.83,257.2z"/>
					</g>
					<path style="fill:#455A64;" d="M127.49,231.02c-0.83,0.68-1.5,2.1-1.63,3.45c-0.08,0.79,0.02,1.43,0.24,1.89l-0.3,1.57
						c-0.02,0.13,0.05,0.2,0.12,0.12l0.91-0.99c0.38,0.12,0.83,0.01,1.32-0.39c0.83-0.69,1.5-2.1,1.63-3.46
						C129.98,231.02,128.84,229.91,127.49,231.02z M127.81,236.18c-0.83,0.48-1.51-0.17-1.51-1.46c0-1.28,0.68-2.72,1.51-3.2
						c0.83-0.48,1.51,0.17,1.51,1.46C129.33,234.26,128.65,235.7,127.81,236.18z"/>
					<path style="fill:#455A64;" d="M127.49,261.37c-0.83,0.68-1.5,2.1-1.63,3.45c-0.08,0.79,0.02,1.43,0.24,1.89l-0.3,1.57
						c-0.02,0.13,0.05,0.2,0.12,0.12l0.91-0.99c0.38,0.12,0.83,0.01,1.32-0.39c0.83-0.69,1.5-2.1,1.63-3.46
						C129.98,261.37,128.84,260.26,127.49,261.37z M127.81,266.53c-0.83,0.48-1.51-0.17-1.51-1.46c0-1.28,0.68-2.72,1.51-3.2
						c0.83-0.48,1.51,0.17,1.51,1.46C129.33,264.61,128.65,266.05,127.81,266.53z"/>
					<g>
						<path style="fill:#455A64;" d="M128.77,272.49c0,0.68-0.36,1.44-0.8,1.69c-0.44,0.25-0.8-0.09-0.8-0.77
							c0-0.68,0.36-1.44,0.8-1.69C128.41,271.47,128.77,271.81,128.77,272.49z"/>
						<path style="fill:#455A64;" d="M130.14,272.73c0,0.45-0.24,0.96-0.53,1.13c-0.29,0.17-0.53-0.06-0.53-0.51
							c0-0.45,0.24-0.96,0.53-1.13C129.9,272.05,130.14,272.28,130.14,272.73z"/>
						<path style="fill:#455A64;" d="M128.91,277.34l-1.89,1.09v-2.39c0-0.5,0.31-1.09,0.68-1.3l0.52-0.3
							c0.38-0.22,0.68,0.01,0.68,0.52V277.34z"/>
						<path style="fill:#455A64;" d="M129.69,274.14l-0.52,0.3v2.75l0.98-0.57v-2.14C130.15,274.14,129.94,273.99,129.69,274.14z"/>
						<path style="fill:#455A64;" d="M125.8,275.24c0,0.45,0.24,0.68,0.53,0.51c0.29-0.17,0.53-0.67,0.53-1.13
							c0-0.45-0.24-0.68-0.53-0.51C126.04,274.28,125.8,274.79,125.8,275.24z"/>
						<path style="fill:#455A64;" d="M126.25,276.12l0.52-0.3v2.75l-0.98,0.57V277C125.79,276.66,125.99,276.27,126.25,276.12z"/>
					</g>
				</g>
				<g>
					<path style="fill:#E0E0E0;" d="M135.01,228.86l22.21-12.82c0.6-0.35,1.08-0.1,1.08,0.55c0,0.65-0.48,1.45-1.08,1.8
						l-22.21,12.82c-0.6,0.35-1.08,0.1-1.08-0.55C133.93,230.01,134.41,229.21,135.01,228.86z"/>
					<path style="fill:#E0E0E0;" d="M135.01,239.31l22.21-12.82c0.6-0.35,1.08-0.1,1.08,0.55c0,0.65-0.48,1.45-1.08,1.8
						l-22.21,12.82c-0.6,0.35-1.08,0.1-1.08-0.55C133.93,240.46,134.41,239.66,135.01,239.31z"/>
					<path style="fill:#E0E0E0;" d="M135.01,249.77l22.21-12.82c0.6-0.35,1.08-0.1,1.08,0.55c0,0.65-0.48,1.45-1.08,1.8
						l-22.21,12.82c-0.6,0.35-1.08,0.1-1.08-0.55C133.93,250.92,134.41,250.11,135.01,249.77z"/>
					<path style="fill:#E0E0E0;" d="M135.01,260.22l22.21-12.82c0.6-0.35,1.08-0.1,1.08,0.55c0,0.65-0.48,1.45-1.08,1.8
						l-22.21,12.82c-0.6,0.35-1.08,0.1-1.08-0.55C133.93,261.37,134.41,260.56,135.01,260.22z"/>
					<path style="fill:#E0E0E0;" d="M135.01,270.67l22.21-12.82c0.6-0.35,1.08-0.1,1.08,0.55c0,0.65-0.48,1.45-1.08,1.8
						l-22.21,12.82c-0.6,0.35-1.08,0.1-1.08-0.55S134.41,271.02,135.01,270.67z"/>
					<path style="fill:#455A64;" d="M139.07,279.21l22.21-12.82c0.6-0.35,1.08-0.1,1.08,0.55c0,0.65-0.48,1.45-1.08,1.8
						l-22.21,12.82c-0.6,0.35-1.08,0.1-1.08-0.55C137.99,280.36,138.47,279.55,139.07,279.21z"/>
					<path style="fill:#E0E0E0;" d="M139.07,286.27l22.21-12.82c0.6-0.35,1.08-0.1,1.08,0.55c0,0.65-0.48,1.45-1.08,1.8
						l-22.21,12.82c-0.6,0.35-1.08,0.1-1.08-0.55C137.99,287.42,138.47,286.61,139.07,286.27z"/>
					<path style="fill:#E0E0E0;" d="M139.07,293.33l22.21-12.82c0.6-0.35,1.08-0.1,1.08,0.55c0,0.65-0.48,1.45-1.08,1.8
						l-22.21,12.82c-0.6,0.35-1.08,0.1-1.08-0.55C137.99,294.48,138.47,293.67,139.07,293.33z"/>
					<path style="fill:#E0E0E0;" d="M143.39,297.82L165.6,285c0.6-0.35,1.08-0.1,1.08,0.55c0,0.65-0.48,1.45-1.08,1.8l-22.21,12.82
						c-0.6,0.35-1.08,0.1-1.08-0.55C142.31,298.97,142.8,298.16,143.39,297.82z"/>
					<g>
						<path style="fill:#455A64;" d="M138.2,303.89l1.8-3.18c0.07-0.12,0.07-0.28,0-0.32l-1.8-1.1c-0.09-0.05-0.21,0.12-0.21,0.28
							v4.28C137.99,304.02,138.12,304.05,138.2,303.89z"/>
					</g>
					<path style="fill:#E0E0E0;" d="M143.39,304.85l22.21-12.82c0.6-0.35,1.08-0.1,1.08,0.55c0,0.65-0.48,1.45-1.08,1.8
						l-22.21,12.82c-0.6,0.35-1.08,0.1-1.08-0.55C142.31,306,142.8,305.2,143.39,304.85z"/>
					<g>
						<path style="fill:#455A64;" d="M138.2,310.93l1.8-3.18c0.07-0.12,0.07-0.28,0-0.32l-1.8-1.1c-0.09-0.05-0.21,0.12-0.21,0.28
							v4.28C137.99,311.06,138.12,311.08,138.2,310.93z"/>
					</g>
					<path style="fill:#E0E0E0;" d="M143.39,311.89l22.21-12.82c0.6-0.35,1.08-0.1,1.08,0.55c0,0.65-0.48,1.45-1.08,1.8
						l-22.21,12.82c-0.6,0.35-1.08,0.1-1.08-0.55C142.31,313.04,142.8,312.24,143.39,311.89z"/>
					<g>
						<path style="fill:#455A64;" d="M138.2,317.97l1.8-3.18c0.07-0.12,0.07-0.28,0-0.32l-1.8-1.1c-0.09-0.05-0.21,0.12-0.21,0.28
							v4.28C137.99,318.1,138.12,318.12,138.2,317.97z"/>
					</g>
					<path style="fill:#E0E0E0;" d="M143.39,318.93l22.21-12.82c0.6-0.35,1.08-0.1,1.08,0.55c0,0.65-0.48,1.45-1.08,1.8
						l-22.21,12.82c-0.6,0.35-1.08,0.1-1.08-0.55C142.31,320.08,142.8,319.27,143.39,318.93z"/>
					<g>
						<path style="fill:#455A64;" d="M138.2,325l1.8-3.18c0.07-0.12,0.07-0.28,0-0.32l-1.8-1.1c-0.09-0.05-0.21,0.12-0.21,0.28v4.28
							C137.99,325.13,138.12,325.16,138.2,325z"/>
					</g>
					<path style="fill:#E0E0E0;" d="M143.39,325.96l22.21-12.82c0.6-0.35,1.08-0.1,1.08,0.55c0,0.65-0.48,1.45-1.08,1.8
						l-22.21,12.82c-0.6,0.35-1.08,0.1-1.08-0.55C142.31,327.11,142.8,326.31,143.39,325.96z"/>
					<g>
						<path style="fill:#455A64;" d="M138.2,332.04l1.8-3.18c0.07-0.12,0.07-0.28,0-0.32l-1.8-1.1c-0.09-0.05-0.21,0.12-0.21,0.28
							V332C137.99,332.17,138.12,332.19,138.2,332.04z"/>
					</g>
					<path style="fill:#E0E0E0;" d="M143.39,333l22.21-12.82c0.6-0.35,1.08-0.1,1.08,0.55c0,0.65-0.48,1.45-1.08,1.8l-22.21,12.82
						c-0.6,0.35-1.08,0.1-1.08-0.55C142.31,334.15,142.8,333.35,143.39,333z"/>
					<g>
						<path style="fill:#455A64;" d="M138.2,339.08l1.8-3.18c0.07-0.12,0.07-0.28,0-0.32l-1.8-1.1c-0.09-0.05-0.21,0.12-0.21,0.28
							v4.28C137.99,339.21,138.12,339.23,138.2,339.08z"/>
					</g>
					<path style="fill:#E0E0E0;" d="M143.39,340.04l22.21-12.82c0.6-0.35,1.08-0.1,1.08,0.55c0,0.65-0.48,1.45-1.08,1.8
						l-22.21,12.82c-0.6,0.35-1.08,0.1-1.08-0.55C142.31,341.19,142.8,340.38,143.39,340.04z"/>
					<g>
						<path style="fill:#455A64;" d="M138.2,346.11l1.8-3.18c0.07-0.12,0.07-0.28,0-0.32l-1.8-1.1c-0.09-0.05-0.21,0.12-0.21,0.28
							v4.28C137.99,346.24,138.12,346.27,138.2,346.11z"/>
					</g>
					<path style="fill:#E0E0E0;" d="M143.39,347.07l22.21-12.82c0.6-0.35,1.08-0.1,1.08,0.55c0,0.65-0.48,1.45-1.08,1.8
						l-22.21,12.82c-0.6,0.35-1.08,0.1-1.08-0.55C142.31,348.22,142.8,347.42,143.39,347.07z"/>
					<g>
						<path style="fill:#455A64;" d="M138.2,353.15l1.8-3.18c0.07-0.12,0.07-0.28,0-0.32l-1.8-1.1c-0.09-0.05-0.21,0.12-0.21,0.28
							v4.28C137.99,353.28,138.12,353.3,138.2,353.15z"/>
					</g>
				</g>
			</g>
			<g>
				<g>
					<path style="fill:#F0F0F0;" d="M187.82,199.48l72.99-42.14c0.6-0.35,1.08-1.18,1.08-1.88v-18.61c0-0.69-0.48-0.97-1.08-0.63
						l-72.99,42.13c-0.6,0.35-1.08,1.18-1.08,1.87v18.62C186.73,199.55,187.22,199.83,187.82,199.48z"/>
					<g id="XMLID_434_">
						<g id="XMLID_472_">
							<path style="fill:#455A64;" d="M194.18,186.35c0-0.01,0-0.02,0.01-0.04l0.48-2l-0.66,0.38c-0.02,0.01-0.03,0.01-0.04,0
								c-0.01-0.01-0.02-0.03-0.02-0.06v-0.36c0-0.03,0.01-0.05,0.02-0.08c0.01-0.03,0.03-0.04,0.04-0.05l1.06-0.61
								c0.02-0.01,0.03-0.01,0.04,0c0.01,0.01,0.02,0.03,0.02,0.06v0.32c0,0.04-0.01,0.1-0.04,0.19l-0.48,2
								c-0.01,0.02-0.01,0.05-0.02,0.07c-0.01,0.02-0.02,0.04-0.04,0.05l-0.31,0.18c-0.01,0.01-0.03,0.01-0.04,0
								C194.19,186.39,194.18,186.37,194.18,186.35z"/>
							<path style="fill:#455A64;" d="M195.95,182.99c0.11-0.06,0.21-0.09,0.29-0.09c0.08,0,0.15,0.03,0.2,0.09
								c0.05,0.05,0.09,0.13,0.12,0.23c0.03,0.1,0.04,0.21,0.04,0.33c0,0.1,0,0.2,0,0.31c0,0.11,0,0.21,0,0.3
								c0,0.13-0.02,0.25-0.04,0.38c-0.03,0.13-0.07,0.25-0.12,0.36c-0.05,0.11-0.12,0.22-0.2,0.32c-0.08,0.1-0.18,0.18-0.29,0.24
								c-0.11,0.06-0.21,0.09-0.29,0.09c-0.08,0-0.15-0.03-0.2-0.09c-0.05-0.05-0.09-0.13-0.12-0.23c-0.03-0.1-0.04-0.21-0.05-0.33
								c0-0.09,0-0.19,0-0.3c0-0.11,0-0.21,0-0.31c0-0.13,0.02-0.25,0.05-0.38c0.03-0.13,0.06-0.25,0.12-0.36
								c0.05-0.12,0.12-0.22,0.2-0.32C195.75,183.13,195.84,183.05,195.95,182.99z M196.19,184.37c0.01-0.2,0.01-0.39,0-0.57
								c0-0.06-0.01-0.1-0.02-0.15c-0.01-0.04-0.02-0.08-0.04-0.1c-0.02-0.02-0.04-0.04-0.07-0.04c-0.03,0-0.07,0.01-0.11,0.03
								c-0.04,0.03-0.08,0.06-0.11,0.09c-0.03,0.04-0.05,0.08-0.07,0.12c-0.02,0.05-0.03,0.09-0.04,0.15
								c-0.01,0.05-0.01,0.11-0.01,0.17c-0.01,0.19-0.01,0.38,0,0.57c0,0.06,0.01,0.11,0.01,0.15c0.01,0.04,0.02,0.08,0.04,0.1
								c0.02,0.02,0.04,0.04,0.07,0.04c0.03,0,0.07-0.01,0.11-0.03c0.04-0.03,0.08-0.06,0.11-0.09c0.03-0.04,0.05-0.08,0.07-0.13
								c0.02-0.05,0.03-0.1,0.04-0.15C196.18,184.48,196.19,184.42,196.19,184.37z"/>
							<path style="fill:#455A64;" d="M197.49,182.6c0,0.09,0,0.18,0,0.26c0,0.07-0.01,0.14-0.03,0.2
								c-0.01,0.07-0.04,0.13-0.06,0.19c-0.03,0.06-0.07,0.12-0.11,0.17c-0.04,0.05-0.09,0.09-0.15,0.12
								c-0.06,0.03-0.11,0.05-0.15,0.05c-0.04,0-0.08-0.02-0.11-0.04c-0.03-0.03-0.05-0.07-0.06-0.12
								c-0.02-0.05-0.02-0.11-0.03-0.17c0-0.04,0-0.09,0-0.13c0-0.04,0-0.08,0-0.13c0-0.07,0.01-0.14,0.03-0.21
								c0.01-0.07,0.04-0.13,0.06-0.19c0.03-0.06,0.06-0.12,0.11-0.17c0.04-0.05,0.09-0.09,0.15-0.12s0.11-0.05,0.15-0.05
								c0.04,0,0.08,0.01,0.11,0.04c0.03,0.03,0.05,0.07,0.07,0.12C197.48,182.48,197.48,182.53,197.49,182.6z M198.04,181.88
								c0.01-0.03,0.02-0.05,0.03-0.07c0.01-0.02,0.03-0.03,0.05-0.04l0.18-0.11c0.02-0.01,0.03-0.01,0.04,0
								c0.01,0.01,0.01,0.02,0.01,0.04c0,0,0,0.01,0,0.02c0,0.01,0,0.02-0.01,0.02l-1.1,2.85c-0.01,0.03-0.02,0.05-0.03,0.07
								c-0.01,0.02-0.03,0.03-0.05,0.04l-0.18,0.1c-0.02,0.01-0.03,0.01-0.04,0c-0.01-0.01-0.01-0.02-0.01-0.04c0,0,0-0.01,0-0.02
								c0-0.01,0-0.02,0.01-0.02L198.04,181.88z M197.05,183.1c0,0.06,0.01,0.1,0.02,0.12c0.01,0.02,0.04,0.02,0.07,0.01
								c0.03-0.02,0.05-0.05,0.07-0.08c0.01-0.04,0.02-0.09,0.02-0.15c0-0.08,0-0.15,0-0.23c0-0.06-0.01-0.1-0.02-0.12
								c-0.01-0.02-0.03-0.02-0.07,0c-0.03,0.02-0.05,0.05-0.07,0.08c-0.01,0.04-0.02,0.09-0.02,0.15
								C197.04,182.95,197.04,183.03,197.05,183.1z M198.52,183.2c0,0.09,0,0.18,0,0.26c0,0.07-0.01,0.14-0.03,0.2
								c-0.01,0.07-0.04,0.13-0.06,0.19c-0.03,0.06-0.06,0.12-0.11,0.17c-0.04,0.05-0.09,0.09-0.15,0.12
								c-0.06,0.03-0.11,0.05-0.15,0.05s-0.08-0.01-0.11-0.04c-0.03-0.03-0.05-0.07-0.06-0.12c-0.01-0.05-0.02-0.11-0.03-0.17
								c0-0.04,0-0.09,0-0.12c0-0.04,0-0.09,0-0.13c0-0.07,0.01-0.14,0.03-0.2c0.02-0.07,0.04-0.13,0.06-0.19
								c0.03-0.06,0.06-0.12,0.11-0.16c0.04-0.05,0.09-0.09,0.15-0.13c0.06-0.03,0.11-0.05,0.15-0.05c0.04,0,0.08,0.01,0.11,0.04
								c0.03,0.03,0.05,0.07,0.06,0.12C198.5,183.08,198.51,183.14,198.52,183.2z M198.08,183.7c0,0.06,0.01,0.1,0.02,0.12
								c0.01,0.02,0.03,0.02,0.07,0c0.03-0.02,0.05-0.05,0.07-0.08c0.01-0.04,0.02-0.09,0.02-0.15c0-0.08,0-0.15,0-0.23
								c0-0.06-0.01-0.1-0.02-0.12c-0.01-0.02-0.04-0.02-0.07-0.01c-0.03,0.02-0.06,0.05-0.07,0.08c-0.01,0.04-0.02,0.09-0.02,0.15
								C198.07,183.55,198.07,183.63,198.08,183.7z"/>
						</g>
						<g id="XMLID_435_">
							<path id="XMLID_442_" style="fill:#455A64;" d="M194.17,180.62l-0.73-1.13c-0.8,1.37-1.42,3-1.73,4.67l1.18-0.09
								C193.12,182.83,193.58,181.63,194.17,180.62z"/>
							<path id="XMLID_439_" style="fill:#455A64;" d="M196.24,178.38v-1.92c-1.05,0.6-2.01,1.68-2.8,3.02l0.73,1.13
								C194.75,179.63,195.46,178.83,196.24,178.38z"/>
							<path id="XMLID_437_" style="fill:#455A64;" d="M192.72,185.84c0-0.58,0.06-1.18,0.17-1.77l-1.18,0.09
								c-0.15,0.8-0.23,1.61-0.23,2.4c0,0.79,0.08,1.51,0.23,2.13l1.18-1.28C192.78,186.95,192.72,186.42,192.72,185.84z"/>
							<path id="XMLID_436_" style="fill:#27DEBF;" d="M200.77,178.92c-0.31-1.31-0.93-2.23-1.73-2.67
								c-0.79-0.43-1.75-0.39-2.8,0.21v1.92c0.77-0.45,1.49-0.47,2.07-0.15c0.59,0.32,1.05,1,1.28,1.97
								c0.11,0.46,0.17,0.99,0.17,1.57c0,0.59-0.06,1.18-0.17,1.77c-0.23,1.23-0.69,2.44-1.28,3.45c-0.58,0.99-1.29,1.79-2.07,2.23
								c-0.77,0.45-1.49,0.47-2.07,0.15c-0.59-0.32-1.05-1-1.28-1.97l-1.18,1.28c0.31,1.31,0.93,2.23,1.73,2.67
								c0.79,0.43,1.75,0.39,2.8-0.21c1.05-0.6,2.01-1.68,2.8-3.02c0.8-1.37,1.42-3,1.73-4.67c0.15-0.8,0.23-1.61,0.23-2.4
								S200.92,179.55,200.77,178.92z"/>
						</g>
					</g>
					<path style="fill:#455A64;" d="M208.13,173.68l22.21-12.82c0.6-0.35,1.08-0.1,1.08,0.55c0,0.65-0.48,1.45-1.08,1.8
						l-22.21,12.82c-0.6,0.35-1.08,0.1-1.08-0.55C207.04,174.83,207.53,174.02,208.13,173.68z"/>
					<path style="fill:#E0E0E0;" d="M208.13,178.41l38.46-22.2c0.6-0.35,1.08-0.1,1.08,0.55c0,0.65-0.48,1.45-1.08,1.8l-38.46,22.2
						c-0.6,0.35-1.08,0.1-1.08-0.55C207.04,179.56,207.53,178.75,208.13,178.41z"/>
				</g>
				<g>
					<path style="fill:#F0F0F0;" d="M267.02,153.75l72.99-42.14c0.6-0.35,1.08-1.18,1.08-1.88V91.12c0-0.69-0.48-0.97-1.08-0.63
						l-72.99,42.13c-0.6,0.35-1.08,1.18-1.08,1.88v18.62C265.94,153.81,266.42,154.09,267.02,153.75z"/>
					<g id="XMLID_302_">
						<g id="XMLID_433_">
							<path style="fill:#455A64;" d="M273.74,138.91c0-0.13,0.02-0.26,0.05-0.39c0.04-0.13,0.08-0.24,0.15-0.35
								c0.06-0.11,0.13-0.2,0.21-0.29c0.08-0.08,0.16-0.15,0.24-0.2c0.08-0.05,0.16-0.07,0.24-0.08c0.08-0.01,0.15,0.01,0.21,0.05
								c0.06,0.04,0.11,0.1,0.15,0.18c0.04,0.08,0.05,0.19,0.05,0.32c0,0.07,0,0.13-0.01,0.19c-0.01,0.06-0.02,0.12-0.04,0.18
								c-0.01,0.06-0.03,0.11-0.05,0.17c-0.02,0.05-0.04,0.11-0.06,0.16l-0.42,1.14c-0.01,0.02-0.02,0.03-0.02,0.06
								c-0.01,0.02-0.02,0.04-0.05,0.05l-0.35,0.2c-0.01,0.01-0.02,0.01-0.03,0c-0.01-0.01-0.01-0.03-0.01-0.05
								c0-0.01,0-0.02,0-0.03c0-0.01,0-0.02,0.01-0.02l0.28-0.78c-0.07,0.03-0.14,0.04-0.21,0.03c-0.07-0.01-0.12-0.03-0.17-0.07
								c-0.05-0.04-0.09-0.1-0.12-0.18C273.76,139.13,273.74,139.03,273.74,138.91z M274.63,138.4c0-0.04-0.01-0.08-0.02-0.11
								c-0.01-0.03-0.03-0.05-0.05-0.06c-0.02-0.01-0.05-0.02-0.08-0.02c-0.03,0-0.06,0.01-0.09,0.03
								c-0.03,0.02-0.06,0.04-0.09,0.07c-0.03,0.03-0.05,0.07-0.08,0.11c-0.02,0.04-0.04,0.08-0.05,0.13
								c-0.01,0.05-0.02,0.09-0.02,0.14c0,0.05,0.01,0.08,0.02,0.11c0.01,0.03,0.03,0.05,0.05,0.06c0.02,0.01,0.05,0.02,0.08,0.02
								c0.03,0,0.06-0.01,0.09-0.03c0.03-0.02,0.06-0.04,0.09-0.07c0.03-0.03,0.05-0.07,0.08-0.11c0.02-0.04,0.04-0.08,0.05-0.13
								C274.62,138.49,274.63,138.44,274.63,138.4z"/>
							<path style="fill:#455A64;" d="M275.88,136.83c0.11-0.06,0.21-0.09,0.29-0.09c0.08,0,0.15,0.03,0.2,0.09
								c0.05,0.05,0.09,0.13,0.12,0.23c0.03,0.1,0.04,0.21,0.04,0.33c0,0.1,0,0.2,0,0.31c0,0.11,0,0.21,0,0.3
								c0,0.13-0.02,0.25-0.04,0.38c-0.03,0.13-0.07,0.25-0.12,0.36c-0.05,0.11-0.12,0.22-0.2,0.32c-0.08,0.1-0.18,0.18-0.29,0.24
								c-0.11,0.06-0.21,0.09-0.29,0.09c-0.08,0-0.15-0.03-0.2-0.09c-0.05-0.05-0.09-0.13-0.12-0.23c-0.03-0.1-0.04-0.21-0.04-0.33
								c0-0.09,0-0.19,0-0.3c0-0.11,0-0.21,0-0.31c0-0.13,0.02-0.25,0.04-0.38c0.03-0.13,0.07-0.25,0.12-0.36
								c0.05-0.12,0.12-0.22,0.2-0.32C275.67,136.97,275.77,136.89,275.88,136.83z M276.11,138.21c0.01-0.2,0.01-0.39,0-0.57
								c0-0.06-0.01-0.1-0.02-0.15c-0.01-0.04-0.02-0.08-0.04-0.1s-0.04-0.04-0.07-0.04c-0.03,0-0.07,0.01-0.11,0.03
								c-0.04,0.03-0.08,0.06-0.11,0.09c-0.03,0.04-0.05,0.08-0.07,0.12c-0.02,0.05-0.03,0.09-0.04,0.15
								c-0.01,0.05-0.01,0.11-0.01,0.17c-0.01,0.19-0.01,0.38,0,0.57c0,0.06,0.01,0.11,0.01,0.15c0.01,0.04,0.02,0.08,0.04,0.1
								c0.02,0.02,0.04,0.04,0.07,0.04c0.03,0,0.07-0.01,0.11-0.03c0.04-0.03,0.08-0.06,0.11-0.09c0.03-0.04,0.05-0.08,0.07-0.13
								c0.02-0.05,0.03-0.1,0.04-0.15C276.11,138.32,276.11,138.26,276.11,138.21z"/>
							<path style="fill:#455A64;" d="M277.41,136.44c0,0.09,0,0.18,0,0.26c0,0.07-0.01,0.14-0.03,0.2
								c-0.01,0.07-0.04,0.13-0.06,0.19c-0.03,0.06-0.07,0.12-0.11,0.17c-0.04,0.05-0.09,0.09-0.15,0.12
								c-0.06,0.03-0.11,0.05-0.15,0.05c-0.04,0-0.08-0.02-0.11-0.04c-0.03-0.03-0.05-0.07-0.06-0.12
								c-0.02-0.05-0.02-0.11-0.03-0.17c0-0.04,0-0.09,0-0.13c0-0.04,0-0.08,0-0.13c0-0.07,0.01-0.14,0.03-0.21
								c0.01-0.07,0.04-0.13,0.06-0.19c0.03-0.06,0.06-0.12,0.11-0.17c0.04-0.05,0.09-0.09,0.15-0.12c0.06-0.03,0.11-0.05,0.15-0.05
								c0.04,0,0.08,0.01,0.11,0.04c0.03,0.03,0.05,0.07,0.07,0.12C277.4,136.32,277.41,136.38,277.41,136.44z M277.97,135.72
								c0.01-0.03,0.02-0.05,0.03-0.07c0.01-0.02,0.03-0.03,0.05-0.05l0.18-0.11c0.02-0.01,0.03-0.01,0.04,0
								c0.01,0.01,0.01,0.02,0.01,0.04c0,0,0,0.01,0,0.02c0,0.01,0,0.02-0.01,0.02l-1.1,2.85c-0.01,0.03-0.02,0.05-0.03,0.07
								c-0.01,0.02-0.03,0.03-0.05,0.04l-0.18,0.11c-0.02,0.01-0.03,0.01-0.04,0c-0.01-0.01-0.01-0.02-0.01-0.04c0,0,0-0.01,0-0.02
								c0-0.01,0-0.02,0.01-0.02L277.97,135.72z M276.97,136.94c0,0.06,0.01,0.1,0.02,0.12c0.01,0.02,0.04,0.02,0.07,0.01
								c0.03-0.02,0.05-0.05,0.07-0.08c0.01-0.04,0.02-0.09,0.02-0.15c0-0.08,0-0.15,0-0.23c0-0.06-0.01-0.1-0.02-0.12
								c-0.01-0.02-0.03-0.02-0.07,0c-0.03,0.02-0.05,0.05-0.07,0.08c-0.01,0.04-0.02,0.09-0.02,0.15
								C276.97,136.79,276.97,136.87,276.97,136.94z M278.44,137.04c0,0.09,0,0.18,0,0.26c0,0.07-0.01,0.14-0.03,0.2
								c-0.01,0.07-0.04,0.13-0.06,0.19c-0.03,0.06-0.06,0.12-0.11,0.17c-0.04,0.05-0.09,0.09-0.15,0.12
								c-0.06,0.03-0.11,0.05-0.15,0.05c-0.04,0-0.08-0.01-0.11-0.04c-0.03-0.03-0.05-0.07-0.06-0.12
								c-0.01-0.05-0.02-0.11-0.03-0.17c0-0.04,0-0.09,0-0.12c0-0.04,0-0.08,0-0.13c0-0.07,0.01-0.14,0.03-0.2
								c0.01-0.07,0.04-0.13,0.06-0.19c0.03-0.06,0.06-0.12,0.11-0.17c0.04-0.05,0.09-0.09,0.15-0.13c0.06-0.03,0.11-0.05,0.15-0.05
								c0.04,0,0.08,0.01,0.11,0.04c0.03,0.03,0.05,0.07,0.06,0.12C278.43,136.92,278.44,136.98,278.44,137.04z M278,137.54
								c0,0.06,0.01,0.1,0.02,0.12c0.01,0.02,0.03,0.02,0.07,0c0.03-0.02,0.05-0.05,0.07-0.08c0.01-0.04,0.02-0.09,0.02-0.15
								c0-0.08,0-0.15,0-0.23c0-0.06-0.01-0.1-0.02-0.12c-0.01-0.02-0.04-0.02-0.07-0.01c-0.03,0.02-0.06,0.05-0.07,0.08
								c-0.01,0.04-0.02,0.09-0.02,0.15C278,137.39,278,137.47,278,137.54z"/>
						</g>
						<g id="XMLID_347_">
							<path id="XMLID_418_" style="fill:#455A64;" d="M276.1,132.26v-1.92c-1.05,0.6-2.01,1.68-2.8,3.02l0.73,1.13
								C274.61,133.51,275.32,132.71,276.1,132.26z"/>
							<path id="XMLID_391_" style="fill:#27DEBF;" d="M280.63,132.8c-0.31-1.31-0.93-2.23-1.73-2.67c-0.79-0.43-1.75-0.39-2.8,0.21
								v1.92c0.77-0.45,1.49-0.47,2.07-0.15c0.59,0.32,1.05,1,1.28,1.97c0.11,0.46,0.17,0.99,0.17,1.57c0,0.58-0.06,1.18-0.17,1.77
								c-0.23,1.23-0.68,2.43-1.28,3.44c-0.58,0.98-1.3,1.79-2.07,2.24c-0.77,0.45-1.49,0.47-2.07,0.15c-0.59-0.32-1.05-1-1.28-1.97
								c-0.11-0.46-0.17-0.99-0.17-1.57c0-0.58,0.06-1.18,0.17-1.77c0.23-1.23,0.69-2.44,1.28-3.45l-0.73-1.13
								c-0.8,1.37-1.42,3-1.73,4.67c-0.15,0.8-0.23,1.61-0.23,2.4c0,0.79,0.08,1.51,0.23,2.13c0.31,1.31,0.93,2.23,1.73,2.67
								c0.79,0.43,1.75,0.39,2.8-0.21c1.05-0.6,2.01-1.68,2.8-3.02l0,0l0,0c0.8-1.37,1.42-3,1.73-4.67c0.15-0.8,0.23-1.61,0.23-2.4
								C280.86,134.14,280.78,133.43,280.63,132.8z"/>
						</g>
					</g>
					<path style="fill:#455A64;" d="M287.97,127.56l22.21-12.82c0.6-0.35,1.08-0.1,1.08,0.55s-0.48,1.45-1.08,1.8l-22.21,12.82
						c-0.6,0.35-1.08,0.1-1.08-0.55C286.89,128.71,287.37,127.9,287.97,127.56z"/>
					<path style="fill:#E0E0E0;" d="M287.97,132.28l38.46-22.2c0.6-0.35,1.08-0.1,1.08,0.55c0,0.65-0.48,1.45-1.08,1.8l-38.46,22.2
						c-0.6,0.35-1.08,0.1-1.08-0.55C286.89,133.43,287.37,132.63,287.97,132.28z"/>
				</g>
			</g>
			<g>
				<path style="fill:#455A64;" d="M195.25,204.59l15.58-9.02c0.6-0.35,1.08-0.1,1.08,0.55c0,0.65-0.48,1.45-1.08,1.8l-15.58,9.02
					c-0.6,0.35-1.08,0.1-1.08-0.55C194.17,205.74,194.65,204.93,195.25,204.59z"/>
				<path style="fill:#E0E0E0;" d="M340.55,126.52L340.55,126.52L340.55,126.52 M340.09,126.79l0,118.97c0,0.33-0.29,0.84-0.58,1.01
					l-151.77,87.62l0-118.97c0-0.33,0.29-0.84,0.58-1.01l1.9-1.1c0.9-0.52,1.58-1.7,1.58-2.74v-6.88c0-0.33,0.29-0.84,0.58-1.01
					l21.79-12.58v6.4c0,1.16,0.8,1.77,1.6,1.77c0.33,0,0.66-0.09,0.98-0.28L340.09,126.79 M214.63,189.84L214.63,189.84
					L214.63,189.84 M340.49,125.53c-0.15,0-0.31,0.05-0.48,0.15l-123.76,71.45c-0.17,0.1-0.34,0.15-0.48,0.15
					c-0.36,0-0.6-0.28-0.6-0.77v-6.88c0-0.49-0.24-0.77-0.6-0.77c-0.15,0-0.31,0.05-0.48,0.15l-22.21,12.82
					c-0.6,0.35-1.08,1.18-1.08,1.88v6.88c0,0.69-0.48,1.53-1.08,1.88l-1.9,1.1c-0.6,0.35-1.08,1.18-1.08,1.88l0,119.45
					c0,0.49,0.24,0.77,0.6,0.77c0.15,0,0.31-0.05,0.48-0.15l152.19-87.87c0.6-0.35,1.08-1.18,1.08-1.88l0-119.45
					C341.09,125.81,340.85,125.53,340.49,125.53L340.49,125.53z"/>
				<g>
					<path style="fill:#E0E0E0;" d="M196.52,220.61c-0.19,0-0.37-0.05-0.53-0.14c-0.36-0.21-0.57-0.62-0.57-1.13v-4.54
						c0-0.86,0.59-1.88,1.33-2.31l12.07-6.96c0.44-0.26,0.91-0.28,1.27-0.08c0.36,0.21,0.57,0.62,0.57,1.13v4.54
						c0,0.86-0.59,1.88-1.33,2.31l-12.07,6.96C197.01,220.54,196.76,220.61,196.52,220.61z M197.26,213.37
						c-0.44,0.26-0.83,0.93-0.83,1.44v4.54c0,0.17,0.05,0.26,0.07,0.27c0.02,0.01,0.12,0.01,0.27-0.08l12.07-6.96
						c0.44-0.26,0.83-0.93,0.83-1.44v-4.54c0-0.17-0.05-0.26-0.07-0.27c-0.02-0.01-0.12-0.01-0.27,0.08L197.26,213.37z"/>
					<path style="fill:#E0E0E0;" d="M197.97,215.23l7.87-4.56c0.4-0.23,0.72-0.07,0.72,0.37s-0.32,0.97-0.72,1.2l-7.87,4.56
						c-0.4,0.23-0.72,0.07-0.72-0.37C197.25,216,197.57,215.46,197.97,215.23z"/>
					<g>
						<path style="fill:#455A64;" d="M207.67,209.92l0.65,0.93c0.02,0.04,0.07,0.01,0.1-0.06l0.65-1.68c0.03-0.08,0-0.16-0.05-0.13
							l-1.3,0.75C207.67,209.77,207.64,209.88,207.67,209.92z"/>
					</g>
				</g>
				<g>
					<g>
						<g>
							<path style="fill:#27DEBF;" d="M194.86,264.56c0.58-0.33,1.04-0.06,1.04,0.6c0,0.67-0.47,1.48-1.04,1.81
								c-0.58,0.33-1.04,0.06-1.04-0.6C193.82,265.7,194.28,264.89,194.86,264.56z"/>
						</g>
						<g>
							<path style="fill:#27DEBF;" d="M202.98,255.18c0.58-0.33,1.04-0.06,1.04,0.6c0,0.67-0.47,1.48-1.04,1.81
								c-0.58,0.33-1.04,0.06-1.04-0.6C201.94,256.32,202.41,255.51,202.98,255.18z"/>
						</g>
						<g>
							<path style="fill:#27DEBF;" d="M211.11,250.49c0.58-0.33,1.04-0.06,1.04,0.6s-0.47,1.48-1.04,1.81
								c-0.58,0.33-1.04,0.06-1.04-0.6C210.06,251.63,210.53,250.82,211.11,250.49z"/>
						</g>
						<g>
							<path style="fill:#27DEBF;" d="M219.23,247.86c0.58-0.33,1.04-0.06,1.04,0.6c0,0.67-0.47,1.48-1.04,1.81
								c-0.58,0.33-1.04,0.06-1.04-0.6S218.65,248.19,219.23,247.86z"/>
						</g>
						<g>
							<path style="fill:#27DEBF;" d="M227.36,239.41c0.58-0.33,1.04-0.06,1.04,0.6c0,0.67-0.47,1.48-1.04,1.81
								c-0.58,0.33-1.04,0.06-1.04-0.6C226.32,240.55,226.79,239.75,227.36,239.41z"/>
						</g>
						<g>
							<path style="fill:#27DEBF;" d="M235.48,236.42c0.58-0.33,1.04-0.06,1.04,0.6c0,0.67-0.47,1.48-1.04,1.81
								c-0.58,0.33-1.04,0.06-1.04-0.6C234.44,237.56,234.9,236.75,235.48,236.42z"/>
						</g>
						<g>
							<path style="fill:#27DEBF;" d="M243.6,227.04c0.58-0.33,1.04-0.06,1.04,0.6c0,0.67-0.47,1.48-1.04,1.81
								c-0.58,0.33-1.04,0.06-1.04-0.6C242.56,228.18,243.03,227.37,243.6,227.04z"/>
						</g>
						<g>
							<path style="fill:#27DEBF;" d="M251.73,224.69c0.58-0.33,1.04-0.06,1.04,0.6s-0.47,1.48-1.04,1.81
								c-0.58,0.33-1.04,0.06-1.04-0.6C250.68,225.83,251.15,225.03,251.73,224.69z"/>
						</g>
						<g>
							<path style="fill:#27DEBF;" d="M259.85,198.89c0.58-0.33,1.04-0.06,1.04,0.6s-0.47,1.48-1.04,1.81
								c-0.58,0.33-1.04,0.06-1.04-0.6C258.81,200.04,259.27,199.23,259.85,198.89z"/>
						</g>
						<g>
							<path style="fill:#27DEBF;" d="M267.98,212.97c0.58-0.33,1.04-0.06,1.04,0.6s-0.47,1.48-1.04,1.81
								c-0.58,0.33-1.04,0.06-1.04-0.6C266.93,214.11,267.4,213.3,267.98,212.97z"/>
						</g>
						<g>
							<path style="fill:#27DEBF;" d="M276.1,212.97c0.58-0.33,1.04-0.06,1.04,0.6s-0.47,1.48-1.04,1.81s-1.04,0.06-1.04-0.6
								C275.06,214.11,275.52,213.3,276.1,212.97z"/>
						</g>
						<g>
							<path style="fill:#27DEBF;" d="M284.22,212.97c0.58-0.33,1.04-0.06,1.04,0.6c0,0.67-0.47,1.48-1.04,1.81
								c-0.58,0.33-1.04,0.06-1.04-0.6S283.65,213.3,284.22,212.97z"/>
						</g>
						<g>
							<path style="fill:#27DEBF;" d="M292.35,198.9c0.58-0.33,1.04-0.06,1.04,0.6s-0.47,1.48-1.04,1.81s-1.04,0.06-1.04-0.6
								C291.3,200.04,291.77,199.23,292.35,198.9z"/>
						</g>
						<g>
							<path style="fill:#27DEBF;" d="M300.47,196.2c0.58-0.33,1.04-0.06,1.04,0.6s-0.47,1.48-1.04,1.81
								c-0.58,0.33-1.04,0.06-1.04-0.6C299.43,197.34,299.89,196.53,300.47,196.2z"/>
						</g>
						<g>
							<path style="fill:#27DEBF;" d="M308.62,184.82c0.58-0.33,1.04-0.06,1.04,0.6s-0.47,1.48-1.04,1.81
								c-0.58,0.33-1.04,0.06-1.04-0.6C307.58,185.97,308.05,185.16,308.62,184.82z"/>
						</g>
						<g>
							
								<ellipse transform="matrix(0.5 -0.8661 0.8661 0.5 -2.7364 367.3187)" style="fill:#27DEBF;" cx="316.72" cy="186.03" rx="1.48" ry="0.85"/>
						</g>
						<g>
							
								<ellipse transform="matrix(0.5 -0.8661 0.8661 0.5 1.326 374.3545)" style="fill:#27DEBF;" cx="324.84" cy="186.03" rx="1.48" ry="0.85"/>
						</g>
						<g>
							<path style="fill:#27DEBF;" d="M332.97,180.13c0.58-0.33,1.04-0.06,1.04,0.6s-0.47,1.48-1.04,1.81
								c-0.58,0.33-1.04,0.06-1.04-0.6C331.92,181.28,332.39,180.47,332.97,180.13z"/>
						</g>
					</g>
					<g>
						<path style="fill:#27DEBF;" d="M194.84,266.03c-0.06,0-0.12-0.02-0.16-0.06c-0.1-0.09-0.12-0.25-0.02-0.35l8.2-9.43
							c0.02-0.02,0.04-0.04,0.06-0.05l8.07-4.66l8.11-2.63l8.08-8.4c0.03-0.03,0.06-0.05,0.09-0.06l8.06-2.97l8.08-9.33
							c0.03-0.04,0.07-0.06,0.12-0.08l7.99-2.31l8.08-25.67c0.03-0.09,0.11-0.16,0.21-0.17c0.09-0.01,0.19,0.04,0.24,0.12
							l8.05,13.95l8-0.01l7.96,0.01l8.05-13.95c0.03-0.05,0.08-0.09,0.14-0.11l8.05-2.67l8.08-11.31c0.05-0.07,0.12-0.1,0.2-0.1
							l16.18,0l8.07-4.66c0.12-0.07,0.27-0.03,0.34,0.09c0.07,0.12,0.03,0.27-0.09,0.34l-8.12,4.69c-0.04,0.02-0.08,0.03-0.12,0.03
							l-16.12,0l-8.05,11.27c-0.03,0.04-0.07,0.08-0.12,0.09l-8.03,2.67l-8.08,13.99c-0.04,0.08-0.13,0.12-0.22,0.12l0,0l-8.1-0.01
							l-8.14,0.01l0,0c-0.09,0-0.17-0.05-0.22-0.12l-7.84-13.58l-7.95,25.25c-0.03,0.08-0.09,0.14-0.17,0.17l-8.05,2.32l-8.08,9.33
							c-0.03,0.03-0.06,0.06-0.1,0.07l-8.07,2.97l-8.08,8.41c-0.03,0.03-0.06,0.05-0.1,0.06l-8.12,2.63l-7.98,4.61l-8.18,9.4
							C194.98,266,194.91,266.03,194.84,266.03z"/>
					</g>
				</g>
				<g>
					<path style="fill:#E0E0E0;" d="M194.86,270.96c-0.17,0-0.34-0.09-0.43-0.25c-0.14-0.24-0.06-0.54,0.18-0.68l138.11-79.74
						c0.24-0.14,0.54-0.06,0.68,0.18c0.14,0.24,0.06,0.54-0.18,0.68l-138.11,79.74C195.03,270.94,194.94,270.96,194.86,270.96z"/>
					<g>
						<g>
							<g>
								<g>
									<path style="fill:#27DEBF;" d="M194.86,259.87c0.58-0.33,1.04-0.06,1.04,0.6c0,0.67-0.47,1.48-1.04,1.81
										c-0.58,0.33-1.04,0.06-1.04-0.6S194.28,260.2,194.86,259.87z"/>
								</g>
								<g>
									<path style="fill:#27DEBF;" d="M202.98,245.8c0.58-0.33,1.04-0.06,1.04,0.6s-0.47,1.48-1.04,1.81
										c-0.58,0.33-1.04,0.06-1.04-0.6C201.94,246.94,202.41,246.13,202.98,245.8z"/>
								</g>
								<g>
									
										<ellipse transform="matrix(0.5 -0.8661 0.8661 0.5 -106.8349 305.4649)" style="fill:#27DEBF;" cx="211.11" cy="245.25" rx="1.48" ry="0.85"/>
								</g>
								<g>
									<path style="fill:#27DEBF;" d="M219.23,227.04c0.58-0.33,1.04-0.06,1.04,0.6c0,0.67-0.47,1.48-1.04,1.81
										c-0.58,0.33-1.04,0.06-1.04-0.6C218.19,228.18,218.65,227.37,219.23,227.04z"/>
								</g>
								<g>
									<path style="fill:#27DEBF;" d="M227.36,231.73c0.58-0.33,1.04-0.06,1.04,0.6c0,0.67-0.47,1.48-1.04,1.81
										c-0.58,0.33-1.04,0.06-1.04-0.6S226.79,232.06,227.36,231.73z"/>
								</g>
								<g>
									<path style="fill:#27DEBF;" d="M235.48,229.38c0.58-0.33,1.04-0.06,1.04,0.6c0,0.67-0.47,1.48-1.04,1.81
										c-0.58,0.33-1.04,0.06-1.04-0.6S234.9,229.72,235.48,229.38z"/>
								</g>
								<g>
									<path style="fill:#27DEBF;" d="M243.6,222.35c0.58-0.33,1.04-0.06,1.04,0.6s-0.47,1.48-1.04,1.81
										c-0.58,0.33-1.04,0.06-1.04-0.6C242.56,223.49,243.03,222.68,243.6,222.35z"/>
								</g>
								<g>
									<path style="fill:#27DEBF;" d="M251.73,212.97c0.58-0.33,1.04-0.06,1.04,0.6s-0.47,1.48-1.04,1.81
										c-0.58,0.33-1.04,0.06-1.04-0.6C250.68,214.11,251.15,213.3,251.73,212.97z"/>
								</g>
								<g>
									<path style="fill:#27DEBF;" d="M259.85,210.62c0.58-0.33,1.04-0.06,1.04,0.6s-0.47,1.48-1.04,1.81s-1.04,0.06-1.04-0.6
										C258.81,211.76,259.27,210.95,259.85,210.62z"/>
								</g>
								<g>
									<path style="fill:#27DEBF;" d="M267.97,203.59c0.58-0.33,1.04-0.06,1.04,0.6c0,0.67-0.47,1.48-1.04,1.81
										c-0.58,0.33-1.04,0.06-1.04-0.6C266.93,204.73,267.4,203.92,267.97,203.59z"/>
								</g>
								<g>
									<path style="fill:#27DEBF;" d="M276.1,203.59c0.58-0.33,1.04-0.06,1.04,0.6s-0.47,1.48-1.04,1.81s-1.04,0.06-1.04-0.6
										C275.06,204.73,275.52,203.92,276.1,203.59z"/>
								</g>
								<g>
									<path style="fill:#27DEBF;" d="M284.22,184.82c0.58-0.33,1.04-0.06,1.04,0.6c0,0.67-0.47,1.48-1.04,1.81
										c-0.58,0.33-1.04,0.06-1.04-0.6S283.65,185.16,284.22,184.82z"/>
								</g>
								<g>
									<path style="fill:#27DEBF;" d="M292.35,194.14c0.58-0.33,1.04-0.06,1.04,0.6s-0.47,1.48-1.04,1.81
										c-0.58,0.33-1.04,0.06-1.04-0.6C291.3,195.28,291.77,194.47,292.35,194.14z"/>
								</g>
								<g>
									<path style="fill:#27DEBF;" d="M300.47,184.82c0.58-0.33,1.04-0.06,1.04,0.6s-0.47,1.48-1.04,1.81
										c-0.58,0.33-1.04,0.06-1.04-0.6C299.43,185.97,299.89,185.16,300.47,184.82z"/>
								</g>
								<g>
									<path style="fill:#27DEBF;" d="M308.6,180.13c0.58-0.33,1.04-0.06,1.04,0.6s-0.47,1.48-1.04,1.81
										c-0.58,0.33-1.04,0.06-1.04-0.6C307.55,181.28,308.02,180.47,308.6,180.13z"/>
								</g>
								<g>
									<path style="fill:#27DEBF;" d="M316.72,180.13c0.58-0.33,1.04-0.06,1.04,0.6s-0.47,1.48-1.04,1.81
										c-0.58,0.33-1.04,0.06-1.04-0.6C315.68,181.28,316.14,180.47,316.72,180.13z"/>
								</g>
								<g>
									<path style="fill:#27DEBF;" d="M324.84,175.44c0.58-0.33,1.04-0.06,1.04,0.6c0,0.67-0.47,1.48-1.04,1.81
										c-0.58,0.33-1.04,0.06-1.04-0.6S324.27,175.78,324.84,175.44z"/>
								</g>
								<g>
									<path style="fill:#27DEBF;" d="M332.97,175.44c0.58-0.33,1.04-0.06,1.04,0.6c0,0.67-0.47,1.48-1.04,1.81
										c-0.58,0.33-1.04,0.06-1.04-0.6S332.39,175.78,332.97,175.44z"/>
								</g>
							</g>
							<g>
								<path style="fill:#27DEBF;" d="M194.86,261.33c-0.04,0-0.09-0.01-0.12-0.03c-0.12-0.07-0.16-0.22-0.09-0.34l8.18-14.11
									c0.04-0.06,0.09-0.1,0.16-0.12l7.95-1.7l8.07-16.9c0.03-0.06,0.08-0.11,0.15-0.13c0.07-0.02,0.14-0.01,0.2,0.02l8.04,4.64
									l7.96-2.31l8.07-6.99l8.11-9.36c0.03-0.04,0.07-0.06,0.12-0.08l8.07-2.33l8.08-7c0.05-0.04,0.1-0.06,0.16-0.06h7.96
									l8.06-18.61c0.03-0.08,0.11-0.13,0.19-0.15c0.08-0.01,0.17,0.02,0.23,0.08l7.93,9.16l7.93-9.16
									c0.02-0.02,0.04-0.04,0.06-0.05l8.15-4.71c0.04-0.02,0.08-0.03,0.12-0.03h8.06l8.04-4.64c0.04-0.02,0.08-0.03,0.12-0.03
									h8.12c0.14,0,0.25,0.11,0.25,0.25s-0.11,0.25-0.25,0.25h-8.06l-8.04,4.64c-0.04,0.02-0.08,0.03-0.12,0.03h-8.06l-8.06,4.65
									l-8.1,9.35c-0.1,0.11-0.28,0.11-0.38,0l-7.86-9.08l-7.97,18.4c-0.04,0.09-0.13,0.15-0.23,0.15h-8.03l-8.05,6.97
									c-0.03,0.02-0.06,0.04-0.09,0.05l-8.05,2.32l-8.09,9.33l-8.14,7.05c-0.03,0.02-0.06,0.04-0.09,0.05l-8.12,2.35
									c-0.07,0.02-0.14,0.01-0.19-0.02l-7.9-4.56l-8.01,16.76c-0.03,0.07-0.1,0.12-0.17,0.14l-7.96,1.7l-8.13,14.01
									C195.03,261.28,194.94,261.33,194.86,261.33z"/>
							</g>
						</g>
						<g style="opacity:0.3;">
							<g>
								<g>
									<path d="M194.86,259.87c0.58-0.33,1.04-0.06,1.04,0.6c0,0.67-0.47,1.48-1.04,1.81c-0.58,0.33-1.04,0.06-1.04-0.6
										S194.28,260.2,194.86,259.87z"/>
								</g>
								<g>
									<path d="M202.98,245.8c0.58-0.33,1.04-0.06,1.04,0.6s-0.47,1.48-1.04,1.81c-0.58,0.33-1.04,0.06-1.04-0.6
										C201.94,246.94,202.41,246.13,202.98,245.8z"/>
								</g>
								<g>
									<ellipse transform="matrix(0.5 -0.8661 0.8661 0.5 -106.8349 305.4649)" cx="211.11" cy="245.25" rx="1.48" ry="0.85"/>
								</g>
								<g>
									<path d="M219.23,227.04c0.58-0.33,1.04-0.06,1.04,0.6c0,0.67-0.47,1.48-1.04,1.81c-0.58,0.33-1.04,0.06-1.04-0.6
										C218.19,228.18,218.65,227.37,219.23,227.04z"/>
								</g>
								<g>
									<path d="M227.36,231.73c0.58-0.33,1.04-0.06,1.04,0.6c0,0.67-0.47,1.48-1.04,1.81c-0.58,0.33-1.04,0.06-1.04-0.6
										S226.79,232.06,227.36,231.73z"/>
								</g>
								<g>
									<path d="M235.48,229.38c0.58-0.33,1.04-0.06,1.04,0.6c0,0.67-0.47,1.48-1.04,1.81c-0.58,0.33-1.04,0.06-1.04-0.6
										S234.9,229.72,235.48,229.38z"/>
								</g>
								<g>
									<path d="M243.6,222.35c0.58-0.33,1.04-0.06,1.04,0.6s-0.47,1.48-1.04,1.81c-0.58,0.33-1.04,0.06-1.04-0.6
										C242.56,223.49,243.03,222.68,243.6,222.35z"/>
								</g>
								<g>
									<path d="M251.73,212.97c0.58-0.33,1.04-0.06,1.04,0.6s-0.47,1.48-1.04,1.81c-0.58,0.33-1.04,0.06-1.04-0.6
										C250.68,214.11,251.15,213.3,251.73,212.97z"/>
								</g>
								<g>
									<path d="M259.85,210.62c0.58-0.33,1.04-0.06,1.04,0.6s-0.47,1.48-1.04,1.81s-1.04,0.06-1.04-0.6
										C258.81,211.76,259.27,210.95,259.85,210.62z"/>
								</g>
								<g>
									<path d="M267.97,203.59c0.58-0.33,1.04-0.06,1.04,0.6c0,0.67-0.47,1.48-1.04,1.81c-0.58,0.33-1.04,0.06-1.04-0.6
										C266.93,204.73,267.4,203.92,267.97,203.59z"/>
								</g>
								<g>
									<path d="M276.1,203.59c0.58-0.33,1.04-0.06,1.04,0.6s-0.47,1.48-1.04,1.81s-1.04,0.06-1.04-0.6
										C275.06,204.73,275.52,203.92,276.1,203.59z"/>
								</g>
								<g>
									<path d="M284.22,184.82c0.58-0.33,1.04-0.06,1.04,0.6c0,0.67-0.47,1.48-1.04,1.81c-0.58,0.33-1.04,0.06-1.04-0.6
										S283.65,185.16,284.22,184.82z"/>
								</g>
								<g>
									<path d="M292.35,194.14c0.58-0.33,1.04-0.06,1.04,0.6s-0.47,1.48-1.04,1.81c-0.58,0.33-1.04,0.06-1.04-0.6
										C291.3,195.28,291.77,194.47,292.35,194.14z"/>
								</g>
								<g>
									<path d="M300.47,184.82c0.58-0.33,1.04-0.06,1.04,0.6s-0.47,1.48-1.04,1.81c-0.58,0.33-1.04,0.06-1.04-0.6
										C299.43,185.97,299.89,185.16,300.47,184.82z"/>
								</g>
								<g>
									<path d="M308.6,180.13c0.58-0.33,1.04-0.06,1.04,0.6s-0.47,1.48-1.04,1.81c-0.58,0.33-1.04,0.06-1.04-0.6
										C307.55,181.28,308.02,180.47,308.6,180.13z"/>
								</g>
								<g>
									<path d="M316.72,180.13c0.58-0.33,1.04-0.06,1.04,0.6s-0.47,1.48-1.04,1.81c-0.58,0.33-1.04,0.06-1.04-0.6
										C315.68,181.28,316.14,180.47,316.72,180.13z"/>
								</g>
								<g>
									<path d="M324.84,175.44c0.58-0.33,1.04-0.06,1.04,0.6c0,0.67-0.47,1.48-1.04,1.81c-0.58,0.33-1.04,0.06-1.04-0.6
										S324.27,175.78,324.84,175.44z"/>
								</g>
								<g>
									<path d="M332.97,175.44c0.58-0.33,1.04-0.06,1.04,0.6c0,0.67-0.47,1.48-1.04,1.81c-0.58,0.33-1.04,0.06-1.04-0.6
										S332.39,175.78,332.97,175.44z"/>
								</g>
							</g>
							<g>
								<path d="M194.86,261.33c-0.04,0-0.09-0.01-0.12-0.03c-0.12-0.07-0.16-0.22-0.09-0.34l8.18-14.11
									c0.04-0.06,0.09-0.1,0.16-0.12l7.95-1.7l8.07-16.9c0.03-0.06,0.08-0.11,0.15-0.13c0.07-0.02,0.14-0.01,0.2,0.02l8.04,4.64
									l7.96-2.31l8.07-6.99l8.11-9.36c0.03-0.04,0.07-0.06,0.12-0.08l8.07-2.33l8.08-7c0.05-0.04,0.1-0.06,0.16-0.06h7.96
									l8.06-18.61c0.03-0.08,0.11-0.13,0.19-0.15c0.08-0.01,0.17,0.02,0.23,0.08l7.93,9.16l7.93-9.16
									c0.02-0.02,0.04-0.04,0.06-0.05l8.15-4.71c0.04-0.02,0.08-0.03,0.12-0.03h8.06l8.04-4.64c0.04-0.02,0.08-0.03,0.12-0.03
									h8.12c0.14,0,0.25,0.11,0.25,0.25s-0.11,0.25-0.25,0.25h-8.06l-8.04,4.64c-0.04,0.02-0.08,0.03-0.12,0.03h-8.06l-8.06,4.65
									l-8.1,9.35c-0.1,0.11-0.28,0.11-0.38,0l-7.86-9.08l-7.97,18.4c-0.04,0.09-0.13,0.15-0.23,0.15h-8.03l-8.05,6.97
									c-0.03,0.02-0.06,0.04-0.09,0.05l-8.05,2.32l-8.09,9.33l-8.14,7.05c-0.03,0.02-0.06,0.04-0.09,0.05l-8.12,2.35
									c-0.07,0.02-0.14,0.01-0.19-0.02l-7.9-4.56l-8.01,16.76c-0.03,0.07-0.1,0.12-0.17,0.14l-7.96,1.7l-8.13,14.01
									C195.03,261.28,194.94,261.33,194.86,261.33z"/>
							</g>
						</g>
					</g>
					<g>
						<path style="fill:#E0E0E0;" d="M199.11,225.07l7.87-4.56c0.4-0.23,0.72-0.07,0.72,0.36c0,0.43-0.32,0.97-0.72,1.2l-7.87,4.56
							c-0.4,0.23-0.72,0.07-0.72-0.36C198.39,225.83,198.72,225.3,199.11,225.07z"/>
						<g>
							<path style="fill:#27DEBF;" d="M194.86,227.04c0.58-0.33,1.04-0.06,1.04,0.6c0,0.67-0.47,1.48-1.04,1.81
								c-0.58,0.33-1.04,0.06-1.04-0.6C193.81,228.18,194.28,227.37,194.86,227.04z"/>
							<path style="opacity:0.3;" d="M194.86,227.04c0.58-0.33,1.04-0.06,1.04,0.6c0,0.67-0.47,1.48-1.04,1.81
								c-0.58,0.33-1.04,0.06-1.04-0.6C193.81,228.18,194.28,227.37,194.86,227.04z"/>
						</g>
					</g>
					<g>
						<path style="fill:#E0E0E0;" d="M199.11,229.74l7.87-4.56c0.4-0.23,0.72-0.07,0.72,0.36c0,0.43-0.32,0.97-0.72,1.2l-7.87,4.56
							c-0.4,0.23-0.72,0.07-0.72-0.37C198.39,230.51,198.72,229.97,199.11,229.74z"/>
						<g>
							<path style="fill:#27DEBF;" d="M194.86,231.73c0.58-0.33,1.04-0.06,1.04,0.6c0,0.67-0.47,1.48-1.04,1.81
								c-0.58,0.33-1.04,0.06-1.04-0.6C193.81,232.87,194.28,232.06,194.86,231.73z"/>
						</g>
					</g>
				</g>
				<g>
					<g>
						<g>
							<path style="fill:#27DEBF;" d="M194.86,294.23c-0.06,0-0.13-0.02-0.17-0.07c-0.1-0.1-0.1-0.25-0.01-0.35l4.12-4.24l4.05-0.51
								l4.09-5.28l4.09,0.56l3.97-3.59l4.06-2.43l4.14-5.73l4.11,1.29l3.95-3.53c0.1-0.09,0.26-0.08,0.35,0.02
								c0.09,0.1,0.08,0.26-0.02,0.35l-4.16,3.72l-4.03-1.26l-4.03,5.55l-4.06,2.43l-4.11,3.72l-4.03-0.55l-4.04,5.22l-4.08,0.52
								l-4,4.11C194.99,294.2,194.92,294.23,194.86,294.23z"/>
						</g>
						<g>
							<path style="fill:#455A64;" d="M196.47,280.51c0.03-0.03,0.06-0.06,0.1-0.09c0.04-0.03,0.08-0.06,0.11-0.08
								c0.22-0.13,0.43-0.19,0.61-0.19c0.19,0,0.35,0.07,0.49,0.18c0.14,0.12,0.24,0.29,0.32,0.51c0.08,0.22,0.12,0.49,0.12,0.8
								c0,0.31-0.04,0.62-0.12,0.94c-0.08,0.31-0.18,0.61-0.32,0.89c-0.14,0.28-0.3,0.53-0.49,0.75c-0.19,0.22-0.39,0.4-0.61,0.52
								c-0.22,0.13-0.43,0.19-0.62,0.19c-0.19,0-0.35-0.07-0.49-0.19c-0.14-0.12-0.24-0.29-0.32-0.51c-0.08-0.22-0.12-0.49-0.12-0.8
								c0-0.18,0.01-0.35,0.04-0.52c0.03-0.17,0.06-0.33,0.1-0.49c0.04-0.16,0.09-0.31,0.14-0.47c0.05-0.15,0.1-0.3,0.15-0.44
								l1.08-3.08c0.02-0.04,0.04-0.09,0.07-0.15c0.02-0.06,0.06-0.1,0.12-0.14l0.34-0.2c0.04-0.02,0.06-0.02,0.09,0.01
								c0.02,0.03,0.03,0.07,0.03,0.12c0,0.03,0,0.06-0.01,0.08c-0.01,0.02-0.01,0.04-0.02,0.06L196.47,280.51z M195.7,283.11
								c0,0.18,0.02,0.34,0.07,0.48c0.05,0.14,0.11,0.25,0.19,0.33c0.08,0.08,0.18,0.12,0.31,0.13c0.12,0.01,0.26-0.03,0.41-0.12
								c0.15-0.09,0.29-0.2,0.41-0.35c0.12-0.15,0.22-0.31,0.31-0.48c0.08-0.18,0.15-0.36,0.19-0.55c0.04-0.19,0.07-0.38,0.07-0.56
								c0-0.18-0.02-0.34-0.07-0.48c-0.05-0.14-0.11-0.25-0.19-0.33c-0.08-0.08-0.19-0.12-0.31-0.13c-0.12-0.01-0.26,0.03-0.41,0.12
								c-0.15,0.09-0.29,0.2-0.41,0.35c-0.12,0.15-0.22,0.31-0.31,0.48c-0.08,0.18-0.15,0.36-0.19,0.55
								C195.73,282.74,195.7,282.93,195.7,283.11z"/>
							<path style="fill:#455A64;" d="M199.23,281.64c0.02,0.09,0.05,0.17,0.08,0.24c0.04,0.08,0.09,0.13,0.16,0.17
								c0.07,0.04,0.17,0.04,0.28,0.03c0.12-0.02,0.27-0.08,0.46-0.19c0.12-0.07,0.24-0.16,0.35-0.27c0.11-0.11,0.21-0.24,0.29-0.38
								c0.08-0.15,0.15-0.3,0.2-0.48c0.05-0.17,0.07-0.36,0.07-0.56c0-0.2-0.02-0.35-0.07-0.46c-0.05-0.11-0.11-0.18-0.19-0.22
								c-0.08-0.04-0.18-0.04-0.29-0.01c-0.11,0.03-0.23,0.08-0.36,0.15l-0.49,0.29c-0.04,0.03-0.08,0.02-0.11-0.01
								c-0.03-0.03-0.05-0.08-0.05-0.15v-0.33c0-0.06,0.01-0.11,0.03-0.17c0.02-0.06,0.04-0.11,0.06-0.16l1.07-2.39l-1.71,0.99
								c-0.04,0.03-0.08,0.02-0.11-0.01c-0.03-0.03-0.05-0.08-0.05-0.15v-0.33c0-0.07,0.02-0.13,0.05-0.2
								c0.03-0.07,0.07-0.11,0.11-0.14l2.34-1.35c0.04-0.03,0.08-0.02,0.11,0.01c0.03,0.03,0.05,0.08,0.05,0.15v0.33
								c0,0.06-0.01,0.11-0.03,0.18c-0.02,0.06-0.05,0.13-0.08,0.2l-1.05,2.36c0.2-0.11,0.38-0.17,0.54-0.17
								c0.16-0.01,0.3,0.04,0.42,0.13c0.12,0.09,0.21,0.24,0.27,0.43c0.07,0.19,0.1,0.43,0.1,0.72c0,0.31-0.04,0.61-0.12,0.91
								c-0.08,0.29-0.19,0.56-0.32,0.81c-0.13,0.24-0.29,0.46-0.47,0.66c-0.18,0.2-0.37,0.35-0.57,0.47
								c-0.27,0.15-0.49,0.24-0.69,0.25c-0.19,0.02-0.35-0.02-0.48-0.1c-0.12-0.08-0.22-0.2-0.28-0.36
								c-0.06-0.16-0.09-0.33-0.1-0.53c0-0.06,0.01-0.11,0.04-0.17c0.03-0.05,0.06-0.09,0.09-0.11l0.27-0.16
								c0.04-0.03,0.08-0.03,0.1,0C199.2,281.56,199.22,281.6,199.23,281.64z"/>
							<path style="fill:#455A64;" d="M202.77,279.6c0.02,0.09,0.05,0.17,0.08,0.25c0.04,0.08,0.09,0.13,0.16,0.17
								c0.07,0.04,0.17,0.04,0.28,0.02c0.12-0.02,0.27-0.08,0.46-0.19c0.12-0.07,0.24-0.16,0.35-0.27c0.11-0.11,0.21-0.24,0.29-0.38
								c0.08-0.15,0.15-0.31,0.2-0.48c0.05-0.17,0.07-0.36,0.07-0.56c0-0.2-0.02-0.35-0.07-0.46c-0.05-0.11-0.11-0.18-0.19-0.22
								c-0.08-0.04-0.18-0.04-0.29-0.01c-0.11,0.03-0.23,0.08-0.36,0.15l-0.49,0.29c-0.04,0.02-0.08,0.02-0.11-0.01
								c-0.03-0.03-0.05-0.08-0.05-0.15v-0.33c0-0.05,0.01-0.11,0.03-0.17c0.02-0.06,0.04-0.11,0.06-0.16l1.07-2.39l-1.71,0.99
								c-0.04,0.03-0.08,0.02-0.11-0.01c-0.03-0.03-0.05-0.08-0.05-0.15v-0.33c0-0.07,0.02-0.13,0.05-0.2
								c0.03-0.07,0.07-0.11,0.11-0.14l2.34-1.35c0.04-0.03,0.08-0.02,0.11,0.01c0.03,0.03,0.05,0.08,0.05,0.15V274
								c0,0.06-0.01,0.11-0.03,0.18c-0.02,0.06-0.05,0.13-0.08,0.2l-1.05,2.36c0.2-0.11,0.38-0.17,0.54-0.17
								c0.17-0.01,0.31,0.04,0.42,0.13c0.12,0.09,0.21,0.24,0.27,0.43c0.07,0.19,0.1,0.43,0.1,0.72c0,0.31-0.04,0.61-0.12,0.91
								c-0.08,0.29-0.19,0.56-0.32,0.81c-0.13,0.25-0.29,0.46-0.47,0.66c-0.18,0.2-0.37,0.35-0.57,0.47
								c-0.27,0.15-0.5,0.24-0.69,0.25c-0.19,0.02-0.35-0.02-0.48-0.1c-0.12-0.08-0.22-0.2-0.28-0.36c-0.06-0.16-0.09-0.33-0.1-0.53
								c0-0.06,0.01-0.11,0.04-0.17c0.03-0.05,0.06-0.09,0.09-0.11l0.27-0.16c0.04-0.03,0.08-0.02,0.1,0
								C202.74,279.52,202.76,279.56,202.77,279.6z"/>
						</g>
						<g>
							<path style="fill:#E0E0E0;" d="M195.59,297.46l35.1-20.34c0.4-0.23,0.72-0.07,0.72,0.36s-0.32,0.97-0.72,1.2l-35.1,20.34
								c-0.4,0.23-0.72,0.07-0.72-0.36C194.87,298.22,195.2,297.69,195.59,297.46z"/>
						</g>
						<g>
							<path style="fill:#E0E0E0;" d="M195.59,273.99l7.87-4.56c0.4-0.23,0.72-0.07,0.72,0.36c0,0.43-0.32,0.97-0.72,1.2l-7.87,4.56
								c-0.4,0.23-0.72,0.07-0.72-0.36C194.87,274.76,195.2,274.22,195.59,273.99z"/>
						</g>
					</g>
					<g>
						<g>
							<path style="fill:#27DEBF;" d="M194.86,322.35c-0.06,0-0.13-0.02-0.17-0.07c-0.1-0.1-0.1-0.25-0.01-0.35l4.12-4.24l4.07-0.52
								l4.1-3.59l3.95-1.08l4.12-8.21l4.13,2.02l3.99-3.51l0.07-0.01l3.96-0.75l4-6.91c0.07-0.12,0.22-0.16,0.34-0.09
								c0.12,0.07,0.16,0.22,0.09,0.34l-4.11,7.11l-4.12,0.78l-4.14,3.64l-3.99-1.95l-4,7.97l-4.11,1.12l-4.08,3.6l-4.05,0.51
								l-4,4.11C194.99,322.32,194.92,322.35,194.86,322.35z"/>
						</g>
						<g style="opacity:0.3;">
							<path d="M194.86,322.35c-0.06,0-0.13-0.02-0.17-0.07c-0.1-0.1-0.1-0.25-0.01-0.35l4.12-4.24l4.07-0.52l4.1-3.59l3.95-1.08
								l4.12-8.21l4.13,2.02l3.99-3.51l0.07-0.01l3.96-0.75l4-6.91c0.07-0.12,0.22-0.16,0.34-0.09c0.12,0.07,0.16,0.22,0.09,0.34
								l-4.11,7.11l-4.12,0.78l-4.14,3.64l-3.99-1.95l-4,7.97l-4.11,1.12l-4.08,3.6l-4.05,0.51l-4,4.11
								C194.99,322.32,194.92,322.35,194.86,322.35z"/>
						</g>
						<g>
							<path style="fill:#455A64;" d="M196.93,312.38c0,0.07-0.02,0.13-0.05,0.2c-0.03,0.07-0.07,0.11-0.11,0.14l-0.24,0.14
								c-0.04,0.03-0.08,0.02-0.11-0.01c-0.03-0.03-0.05-0.08-0.05-0.15v-5.04l-0.96,1.68c-0.04,0.07-0.08,0.11-0.12,0.12
								c-0.04,0.01-0.08,0-0.11-0.03l-0.14-0.2c-0.03-0.04-0.04-0.09-0.03-0.17c0.01-0.07,0.03-0.14,0.06-0.2l1.27-2.24
								c0.03-0.05,0.06-0.09,0.1-0.12c0.03-0.02,0.06-0.04,0.09-0.06l0.24-0.14c0.04-0.03,0.08-0.02,0.11,0.01
								c0.03,0.03,0.05,0.08,0.05,0.15V312.38z"/>
							<path style="fill:#455A64;" d="M199.53,307.76c0.12-0.23,0.21-0.45,0.27-0.66c0.06-0.21,0.09-0.45,0.09-0.72
								c0-0.32-0.06-0.56-0.18-0.71c-0.12-0.14-0.32-0.14-0.58,0.01c-0.14,0.08-0.26,0.18-0.35,0.29c-0.1,0.12-0.18,0.25-0.24,0.39
								c-0.06,0.14-0.12,0.3-0.15,0.46c-0.04,0.16-0.07,0.32-0.09,0.48c-0.01,0.07-0.03,0.14-0.06,0.19
								c-0.03,0.05-0.06,0.09-0.09,0.11l-0.27,0.16c-0.04,0.02-0.07,0.02-0.09-0.01c-0.03-0.03-0.04-0.07-0.04-0.12
								c0-0.23,0.04-0.48,0.1-0.75c0.06-0.27,0.15-0.53,0.27-0.79c0.12-0.26,0.26-0.5,0.44-0.72c0.17-0.22,0.37-0.4,0.59-0.52
								c0.22-0.13,0.41-0.18,0.58-0.18c0.17,0.01,0.31,0.07,0.42,0.18c0.11,0.11,0.2,0.27,0.25,0.48c0.06,0.21,0.09,0.44,0.09,0.71
								c0,0.2-0.01,0.38-0.03,0.55c-0.02,0.17-0.05,0.34-0.1,0.51s-0.1,0.34-0.18,0.52c-0.07,0.17-0.16,0.36-0.26,0.56l-1.33,2.67
								l1.82-1.05c0.04-0.03,0.08-0.02,0.11,0.01c0.03,0.03,0.05,0.08,0.05,0.15v0.33c0,0.07-0.02,0.13-0.05,0.2
								c-0.03,0.07-0.07,0.11-0.11,0.14l-2.56,1.48c-0.04,0.03-0.08,0.02-0.11-0.01c-0.03-0.03-0.05-0.08-0.05-0.15v-0.33
								c0-0.07,0.01-0.13,0.03-0.19c0.02-0.06,0.05-0.14,0.1-0.23L199.53,307.76z"/>
							<path style="fill:#455A64;" d="M204.23,304.45c0,0.27,0.01,0.53,0.01,0.77c0,0.24,0,0.5-0.01,0.78c0,0.36-0.04,0.71-0.1,1.05
								c-0.06,0.34-0.15,0.66-0.28,0.96c-0.12,0.3-0.28,0.56-0.47,0.8c-0.19,0.24-0.41,0.43-0.67,0.58
								c-0.26,0.15-0.49,0.22-0.67,0.2c-0.19-0.02-0.34-0.11-0.47-0.26c-0.12-0.15-0.22-0.37-0.28-0.64
								c-0.06-0.27-0.09-0.58-0.1-0.94c0-0.27-0.01-0.53-0.01-0.77c0-0.24,0-0.5,0.01-0.78c0-0.36,0.04-0.71,0.1-1.05
								c0.06-0.34,0.15-0.66,0.28-0.96c0.12-0.3,0.28-0.57,0.47-0.8c0.19-0.24,0.41-0.44,0.67-0.59c0.26-0.15,0.49-0.21,0.67-0.19
								c0.19,0.02,0.34,0.11,0.47,0.27c0.12,0.15,0.21,0.37,0.28,0.64C204.2,303.78,204.23,304.09,204.23,304.45z M201.76,307.42
								c0.01,0.57,0.09,0.95,0.25,1.13c0.16,0.18,0.4,0.18,0.7,0c0.31-0.18,0.54-0.45,0.7-0.82c0.16-0.37,0.25-0.84,0.25-1.43
								c0-0.28,0.01-0.54,0.01-0.78c0-0.24,0-0.5-0.01-0.77c-0.01-0.58-0.09-0.96-0.25-1.14c-0.16-0.18-0.39-0.19-0.7-0.01
								c-0.31,0.18-0.54,0.45-0.7,0.82c-0.16,0.37-0.25,0.85-0.25,1.43c0,0.28-0.01,0.54-0.01,0.78
								C201.76,306.89,201.76,307.15,201.76,307.42z"/>
						</g>
						<g>
							<path style="fill:#E0E0E0;" d="M195.59,325.57l35.1-20.34c0.4-0.23,0.72-0.07,0.72,0.36c0,0.43-0.32,0.97-0.72,1.2
								l-35.1,20.34c-0.4,0.23-0.72,0.07-0.72-0.36C194.87,326.34,195.2,325.8,195.59,325.57z"/>
						</g>
						<g>
							<path style="fill:#E0E0E0;" d="M195.59,302.11l7.87-4.56c0.4-0.23,0.72-0.07,0.72,0.36c0,0.43-0.32,0.97-0.72,1.2l-7.87,4.56
								c-0.4,0.23-0.72,0.07-0.72-0.37C194.87,302.87,195.2,302.34,195.59,302.11z"/>
						</g>
					</g>
					<g>
						<g>
							<path style="fill:#27DEBF;" d="M243.6,266.03c-0.07,0-0.15-0.03-0.2-0.09c-0.09-0.11-0.07-0.27,0.04-0.35l4.06-3.24
								l4.09-4.67l4.15-0.6l3.96-0.89l4.1-4.84l4.04,0.71l4.05-6.41l4.11,0.07l3.98-3.56c0.1-0.09,0.26-0.08,0.35,0.02
								c0.09,0.1,0.08,0.26-0.02,0.35l-4.13,3.69l-4.03-0.07l-4.08,6.46l-4.09-0.72l-4.02,4.75l-4.14,0.93l-3.99,0.58l-4,4.57
								l-4.09,3.27C243.71,266.01,243.66,266.03,243.6,266.03z"/>
						</g>
						<g>
							<path style="fill:#455A64;" d="M245.21,252.31c0.03-0.03,0.06-0.06,0.1-0.09c0.04-0.03,0.08-0.06,0.11-0.08
								c0.22-0.13,0.43-0.19,0.61-0.19c0.19,0,0.35,0.07,0.49,0.18c0.14,0.12,0.24,0.29,0.32,0.51c0.08,0.22,0.12,0.49,0.12,0.8
								c0,0.31-0.04,0.62-0.12,0.94c-0.08,0.31-0.18,0.61-0.32,0.89c-0.14,0.28-0.3,0.53-0.49,0.75c-0.19,0.22-0.39,0.4-0.61,0.52
								c-0.22,0.13-0.43,0.19-0.62,0.19c-0.19,0-0.35-0.07-0.49-0.19c-0.14-0.12-0.24-0.29-0.32-0.51c-0.08-0.22-0.12-0.49-0.12-0.8
								c0-0.18,0.01-0.35,0.04-0.52c0.03-0.17,0.06-0.33,0.1-0.49c0.04-0.16,0.09-0.31,0.14-0.47c0.05-0.15,0.1-0.3,0.15-0.44
								l1.08-3.08c0.02-0.04,0.04-0.09,0.07-0.15c0.02-0.06,0.06-0.1,0.12-0.14l0.34-0.2c0.04-0.02,0.06-0.02,0.09,0.01
								c0.02,0.03,0.03,0.07,0.03,0.12c0,0.03,0,0.06-0.01,0.08c-0.01,0.02-0.01,0.04-0.02,0.06L245.21,252.31z M244.45,254.91
								c0,0.18,0.02,0.34,0.07,0.48c0.05,0.14,0.11,0.25,0.19,0.33c0.08,0.08,0.18,0.12,0.31,0.13c0.12,0.01,0.26-0.03,0.41-0.12
								c0.15-0.09,0.29-0.2,0.41-0.35c0.12-0.15,0.22-0.31,0.31-0.48c0.08-0.18,0.15-0.36,0.19-0.55c0.04-0.19,0.07-0.38,0.07-0.56
								c0-0.18-0.02-0.34-0.07-0.48c-0.05-0.14-0.11-0.25-0.19-0.33c-0.08-0.08-0.19-0.12-0.31-0.13c-0.12-0.01-0.26,0.03-0.41,0.12
								c-0.15,0.09-0.29,0.2-0.41,0.35c-0.12,0.15-0.22,0.31-0.31,0.48c-0.08,0.18-0.15,0.36-0.19,0.55
								C244.47,254.54,244.45,254.73,244.45,254.91z"/>
							<path style="fill:#455A64;" d="M249.33,250.84c0.12-0.23,0.21-0.45,0.27-0.66c0.06-0.21,0.09-0.45,0.09-0.72
								c0-0.32-0.06-0.56-0.18-0.71c-0.12-0.14-0.32-0.14-0.58,0.01c-0.14,0.08-0.26,0.18-0.35,0.29c-0.1,0.12-0.18,0.25-0.24,0.39
								c-0.07,0.14-0.12,0.3-0.16,0.46c-0.04,0.16-0.07,0.32-0.09,0.48c-0.01,0.07-0.03,0.14-0.06,0.19
								c-0.03,0.05-0.06,0.09-0.09,0.11l-0.27,0.16c-0.04,0.02-0.07,0.02-0.09-0.01c-0.03-0.03-0.04-0.07-0.04-0.12
								c0-0.23,0.04-0.48,0.1-0.75c0.06-0.27,0.16-0.53,0.27-0.79c0.12-0.26,0.26-0.5,0.44-0.72c0.17-0.22,0.37-0.4,0.59-0.52
								c0.22-0.13,0.41-0.18,0.58-0.18c0.17,0.01,0.3,0.07,0.42,0.18c0.11,0.11,0.2,0.27,0.25,0.48c0.06,0.21,0.09,0.44,0.09,0.71
								c0,0.2-0.01,0.38-0.03,0.55c-0.02,0.17-0.05,0.34-0.1,0.51c-0.04,0.17-0.1,0.34-0.18,0.52c-0.07,0.17-0.16,0.36-0.26,0.56
								l-1.33,2.67l1.82-1.05c0.04-0.03,0.08-0.02,0.11,0.01c0.03,0.03,0.05,0.08,0.05,0.15v0.33c0,0.07-0.02,0.13-0.05,0.2
								c-0.03,0.07-0.07,0.11-0.11,0.14l-2.56,1.48c-0.04,0.03-0.08,0.02-0.11-0.01c-0.03-0.03-0.05-0.08-0.05-0.15v-0.33
								c0-0.07,0.01-0.13,0.03-0.19c0.02-0.06,0.05-0.14,0.1-0.23L249.33,250.84z"/>
							<path style="fill:#455A64;" d="M253.37,245.47c0.04-0.03,0.08-0.02,0.11,0.01c0.03,0.03,0.05,0.08,0.05,0.15v0.33
								c0,0.05-0.01,0.12-0.02,0.18c-0.01,0.07-0.03,0.14-0.05,0.22l-1.32,6.01c-0.02,0.06-0.04,0.13-0.06,0.19
								c-0.03,0.06-0.06,0.1-0.11,0.13l-0.27,0.16c-0.04,0.02-0.07,0.02-0.1-0.01c-0.03-0.03-0.04-0.07-0.04-0.13
								c0-0.01,0-0.03,0-0.04c0-0.02,0.01-0.04,0.02-0.08l1.33-6.02l-1.95,1.13c-0.04,0.03-0.08,0.02-0.11-0.01
								c-0.03-0.03-0.05-0.08-0.05-0.15v-0.33c0-0.07,0.02-0.13,0.05-0.2c0.03-0.07,0.07-0.11,0.11-0.14L253.37,245.47z"/>
						</g>
						<g>
							<path style="fill:#E0E0E0;" d="M244.34,269.26l35.1-20.34c0.4-0.23,0.72-0.07,0.72,0.36c0,0.43-0.32,0.97-0.72,1.2
								l-35.1,20.34c-0.4,0.23-0.72,0.07-0.72-0.37C243.62,270.02,243.94,269.49,244.34,269.26z"/>
						</g>
						<g>
							<path style="fill:#E0E0E0;" d="M244.34,245.79l7.87-4.56c0.4-0.23,0.72-0.07,0.72,0.37c0,0.43-0.32,0.97-0.72,1.2l-7.87,4.56
								c-0.4,0.23-0.72,0.07-0.72-0.37C243.62,246.56,243.94,246.02,244.34,245.79z"/>
						</g>
					</g>
					<g>
						<g>
							<path style="fill:#27DEBF;" d="M243.6,294.14c-0.04,0-0.09-0.01-0.13-0.04c-0.12-0.07-0.16-0.23-0.08-0.34l4.15-6.81
								l4.17,0.77l3.93-1.07l4.06-4.96l4.04-1.02l4.11-7.32l4.2,1.22l3.94-0.75l4-3.56c0.1-0.09,0.26-0.08,0.35,0.02
								c0.09,0.1,0.08,0.26-0.02,0.35l-4.1,3.65l-0.07,0.01l-4.13,0.78l-3.93-1.14l-4.02,7.16l-4.09,1.03l-4.06,4.95l-0.08,0.02
								l-4.12,1.12l-0.06-0.01l-3.89-0.72l-3.97,6.51C243.77,294.1,243.69,294.14,243.6,294.14z"/>
						</g>
						<g style="opacity:0.3;">
							<path d="M243.6,294.14c-0.04,0-0.09-0.01-0.13-0.04c-0.12-0.07-0.16-0.23-0.08-0.34l4.15-6.81l4.17,0.77l3.93-1.07l4.06-4.96
								l4.04-1.02l4.11-7.32l4.2,1.22l3.94-0.75l4-3.56c0.1-0.09,0.26-0.08,0.35,0.02c0.09,0.1,0.08,0.26-0.02,0.35l-4.1,3.65
								l-0.07,0.01l-4.13,0.78l-3.93-1.14l-4.02,7.16l-4.09,1.03l-4.06,4.95l-0.08,0.02l-4.12,1.12l-0.06-0.01l-3.89-0.72
								l-3.97,6.51C243.77,294.1,243.69,294.14,243.6,294.14z"/>
						</g>
						<g>
							<path style="fill:#455A64;" d="M245.48,282.35c-0.02,0.02-0.05,0.04-0.08,0.06c-0.04,0.02-0.06,0.04-0.08,0.05
								c-0.19,0.11-0.38,0.17-0.55,0.18c-0.18,0.01-0.34-0.04-0.48-0.14c-0.14-0.1-0.25-0.26-0.34-0.48
								c-0.09-0.22-0.13-0.5-0.13-0.85c0-0.31,0.04-0.62,0.12-0.93c0.08-0.31,0.19-0.6,0.32-0.87c0.14-0.27,0.29-0.51,0.48-0.73
								c0.18-0.21,0.37-0.38,0.57-0.5c0.23-0.13,0.44-0.2,0.62-0.19c0.18,0,0.34,0.06,0.47,0.18c0.13,0.12,0.23,0.29,0.3,0.51
								c0.07,0.22,0.1,0.49,0.1,0.8c0,0.15-0.01,0.32-0.05,0.49c-0.03,0.17-0.07,0.35-0.12,0.52c-0.05,0.17-0.1,0.34-0.16,0.51
								c-0.06,0.17-0.11,0.32-0.15,0.46l-1.08,3.08c-0.02,0.04-0.04,0.09-0.07,0.15c-0.02,0.06-0.06,0.11-0.12,0.14l-0.34,0.2
								c-0.04,0.02-0.06,0.02-0.09-0.01c-0.02-0.03-0.03-0.07-0.03-0.12c0-0.03,0-0.06,0.01-0.08c0.01-0.02,0.01-0.04,0.02-0.06
								L245.48,282.35z M246.25,279.76c0-0.19-0.02-0.35-0.07-0.49c-0.05-0.14-0.11-0.24-0.19-0.32c-0.08-0.07-0.18-0.11-0.29-0.11
								c-0.11,0-0.24,0.04-0.37,0.12c-0.14,0.08-0.26,0.19-0.38,0.32c-0.11,0.13-0.21,0.28-0.29,0.45
								c-0.08,0.16-0.14,0.34-0.19,0.53c-0.05,0.19-0.07,0.38-0.07,0.57c0,0.2,0.02,0.36,0.07,0.5c0.04,0.14,0.11,0.24,0.19,0.31
								c0.08,0.07,0.18,0.11,0.29,0.11c0.11,0,0.24-0.04,0.38-0.12c0.13-0.08,0.26-0.18,0.37-0.32c0.12-0.13,0.21-0.28,0.29-0.45
								c0.08-0.17,0.14-0.34,0.19-0.53C246.23,280.15,246.25,279.96,246.25,279.76z"/>
							<path style="fill:#455A64;" d="M247.79,281.66c0.02,0.09,0.05,0.17,0.08,0.25c0.04,0.08,0.09,0.13,0.16,0.17
								c0.07,0.04,0.17,0.04,0.28,0.02c0.12-0.02,0.27-0.08,0.46-0.19c0.12-0.07,0.24-0.16,0.35-0.27c0.11-0.11,0.21-0.24,0.29-0.38
								c0.08-0.15,0.15-0.31,0.2-0.48c0.05-0.17,0.08-0.36,0.08-0.56c0-0.2-0.02-0.35-0.07-0.46c-0.05-0.11-0.11-0.18-0.19-0.22
								c-0.08-0.04-0.18-0.04-0.29-0.01c-0.11,0.03-0.23,0.08-0.36,0.15l-0.49,0.29c-0.04,0.03-0.08,0.02-0.11-0.01
								c-0.03-0.03-0.05-0.08-0.05-0.15v-0.33c0-0.06,0.01-0.11,0.03-0.17c0.02-0.06,0.04-0.11,0.06-0.16l1.07-2.39l-1.71,0.99
								c-0.04,0.03-0.08,0.02-0.11-0.01c-0.03-0.03-0.05-0.08-0.05-0.15v-0.33c0-0.07,0.02-0.13,0.05-0.2
								c0.03-0.07,0.07-0.11,0.11-0.14l2.34-1.35c0.04-0.03,0.08-0.02,0.11,0.01c0.03,0.03,0.05,0.08,0.05,0.15v0.33
								c0,0.05-0.01,0.11-0.03,0.18c-0.02,0.06-0.05,0.13-0.08,0.2l-1.05,2.36c0.2-0.11,0.38-0.17,0.54-0.17
								c0.17-0.01,0.31,0.04,0.42,0.13c0.12,0.09,0.21,0.24,0.27,0.43c0.06,0.19,0.1,0.43,0.1,0.72c0,0.31-0.04,0.61-0.12,0.91
								c-0.08,0.29-0.19,0.56-0.32,0.81c-0.13,0.24-0.29,0.46-0.47,0.66c-0.18,0.2-0.37,0.35-0.57,0.47
								c-0.27,0.15-0.5,0.24-0.69,0.25c-0.19,0.02-0.35-0.02-0.48-0.1c-0.12-0.08-0.22-0.2-0.28-0.36c-0.06-0.16-0.09-0.33-0.1-0.53
								c0-0.06,0.01-0.11,0.04-0.17c0.03-0.05,0.06-0.09,0.09-0.11l0.27-0.16c0.04-0.03,0.08-0.03,0.1,0
								C247.77,281.58,247.79,281.62,247.79,281.66z"/>
						</g>
						<g>
							<path style="fill:#E0E0E0;" d="M244.34,297.37l35.1-20.34c0.4-0.23,0.72-0.07,0.72,0.36c0,0.43-0.32,0.97-0.72,1.2
								l-35.1,20.34c-0.4,0.23-0.72,0.07-0.72-0.36C243.62,298.14,243.94,297.6,244.34,297.37z"/>
						</g>
						<g>
							<path style="fill:#E0E0E0;" d="M244.34,273.91l7.87-4.56c0.4-0.23,0.72-0.07,0.72,0.36c0,0.43-0.32,0.97-0.72,1.2l-7.87,4.56
								c-0.4,0.23-0.72,0.07-0.72-0.36C243.62,274.67,243.94,274.14,244.34,273.91z"/>
						</g>
					</g>
				</g>
				<g>
					<g>
						<g id="XMLID_653_">
							<g id="XMLID_655_">
								<g id="XMLID_697_">
									<path id="XMLID_737_" style="fill:#27DEBF;" d="M296.41,220.38c1.73-1,3.33-1.05,4.63-0.34l-4.63,12.48V220.38z"/>
									<path id="XMLID_736_" style="fill:#27DEBF;" d="M291.78,225.38c1.3-2.21,2.9-4,4.63-5v12.14L291.78,225.38z"/>
									<path id="XMLID_735_" style="fill:#27DEBF;" d="M288.91,233.1c0.52-2.76,1.54-5.46,2.87-7.72l4.63,7.14L288.91,233.1z"/>
									<path style="opacity:0.3;" d="M291.78,225.38c-1.33,2.26-2.35,4.96-2.87,7.72l7.5-0.58v-12.14
										C294.68,221.38,293.08,223.17,291.78,225.38z"/>
									<path id="XMLID_733_" style="fill:#27DEBF;" d="M301.04,220.04c1.33,0.72,2.35,2.24,2.87,4.41l-7.5,8.08L301.04,220.04z"/>
									<path id="XMLID_731_" style="fill:#27DEBF;" d="M288.91,240.6c-0.25-1.04-0.39-2.22-0.39-3.53c0-1.31,0.14-2.65,0.39-3.97
										l7.5-0.58L288.91,240.6z"/>
									<path id="XMLID_720_" style="fill:#27DEBF;" d="M303.91,231.94c-0.52,2.76-1.54,5.46-2.87,7.72l-4.63-7.14L303.91,231.94z"
										/>
									<path id="XMLID_712_" style="fill:#27DEBF;" d="M296.41,244.66c-1.73,1-3.33,1.05-4.63,0.34l4.63-12.48V244.66z"/>
									<path id="XMLID_710_" style="fill:#27DEBF;" d="M288.91,240.6l7.5-8.08L291.78,245
										C290.45,244.28,289.43,242.76,288.91,240.6z"/>
									<path id="XMLID_706_" style="fill:#27DEBF;" d="M303.91,224.44c0.25,1.04,0.39,2.22,0.39,3.53c0,1.31-0.14,2.65-0.39,3.97
										l-7.5,0.58L303.91,224.44z"/>
									<path id="XMLID_698_" style="fill:#27DEBF;" d="M301.04,239.66c-1.3,2.21-2.9,4-4.63,5v-12.14L301.04,239.66z"/>
								</g>
							</g>
						</g>
						<g>
							<path style="fill:#455A64;" d="M292.48,250.85l7.87-4.56c0.4-0.23,0.72-0.07,0.72,0.37s-0.32,0.97-0.72,1.2l-7.87,4.56
								c-0.4,0.23-0.72,0.07-0.72-0.37S292.08,251.08,292.48,250.85z"/>
							<path style="fill:#E0E0E0;" d="M290.74,256.56l11.34-6.58c0.4-0.23,0.72-0.07,0.72,0.36c0,0.43-0.32,0.97-0.72,1.2
								l-11.34,6.58c-0.4,0.23-0.72,0.07-0.72-0.36C290.02,257.32,290.34,256.79,290.74,256.56z"/>
							<path style="fill:#E0E0E0;" d="M290.74,261.26l11.34-6.58c0.4-0.23,0.72-0.07,0.72,0.36c0,0.43-0.32,0.97-0.72,1.2
								l-11.34,6.58c-0.4,0.23-0.72,0.07-0.72-0.36C290.02,262.02,290.34,261.49,290.74,261.26z"/>
							<path style="fill:#E0E0E0;" d="M290.74,265.96l11.34-6.58c0.4-0.23,0.72-0.07,0.72,0.36s-0.32,0.97-0.72,1.2l-11.34,6.58
								c-0.4,0.23-0.72,0.07-0.72-0.36C290.02,266.73,290.34,266.19,290.74,265.96z"/>
						</g>
					</g>
					<g>
						<g id="XMLID_420_">
							<g id="XMLID_468_">
								<g id="XMLID_478_">
									<path id="XMLID_647_" style="fill:#27DEBF;" d="M324.84,203.9c1.73-1,3.33-1.05,4.63-0.34l-4.63,12.48V203.9z"/>
									<path id="XMLID_601_" style="fill:#27DEBF;" d="M320.21,208.9c1.3-2.21,2.9-4,4.63-5v12.14L320.21,208.9z"/>
									<path id="XMLID_620_" style="fill:#27DEBF;" d="M317.35,216.62c0.52-2.76,1.54-5.46,2.87-7.72l4.63,7.14L317.35,216.62z"/>
									<path id="XMLID_554_" style="fill:#27DEBF;" d="M329.47,203.56c1.33,0.72,2.35,2.24,2.87,4.41l-7.5,8.08L329.47,203.56z"/>
									<path id="XMLID_550_" style="fill:#27DEBF;" d="M317.35,224.12c-0.25-1.04-0.39-2.22-0.39-3.53c0-1.31,0.14-2.65,0.39-3.97
										l7.5-0.58L317.35,224.12z"/>
									<path id="XMLID_517_" style="fill:#27DEBF;" d="M332.34,215.46c-0.52,2.76-1.54,5.46-2.87,7.72l-4.63-7.14L332.34,215.46z"
										/>
									<path id="XMLID_496_" style="fill:#27DEBF;" d="M324.84,228.18c-1.73,1-3.33,1.05-4.63,0.34l4.63-12.48V228.18z"/>
									<path id="XMLID_494_" style="fill:#27DEBF;" d="M317.35,224.12l7.5-8.08l-4.63,12.48
										C318.88,227.8,317.87,226.28,317.35,224.12z"/>
									<path style="opacity:0.3;" d="M320.21,208.9c-1.33,2.26-2.35,4.96-2.87,7.72c-0.25,1.33-0.39,2.66-0.39,3.97
										c0,1.31,0.14,2.49,0.39,3.53c0.52,2.16,1.54,3.68,2.87,4.41l4.63-12.48V203.9C323.11,204.9,321.52,206.69,320.21,208.9z"/>
									<path id="XMLID_490_" style="fill:#27DEBF;" d="M332.34,207.96c0.25,1.04,0.39,2.22,0.39,3.53c0,1.31-0.14,2.65-0.39,3.97
										l-7.5,0.58L332.34,207.96z"/>
									<path id="XMLID_483_" style="fill:#27DEBF;" d="M329.47,223.18c-1.3,2.21-2.9,4-4.63,5v-12.14L329.47,223.18z"/>
								</g>
							</g>
						</g>
						<g>
							<path style="fill:#455A64;" d="M320.91,234.43l7.87-4.56c0.4-0.23,0.72-0.07,0.72,0.36c0,0.43-0.32,0.97-0.72,1.2l-7.87,4.56
								c-0.4,0.23-0.72,0.07-0.72-0.37C320.19,235.2,320.51,234.66,320.91,234.43z"/>
							<path style="fill:#E0E0E0;" d="M319.18,240.14l11.34-6.58c0.4-0.23,0.72-0.07,0.72,0.37c0,0.43-0.32,0.97-0.72,1.2
								l-11.34,6.58c-0.4,0.23-0.72,0.07-0.72-0.36C318.45,240.91,318.78,240.37,319.18,240.14z"/>
							<path style="fill:#E0E0E0;" d="M319.18,244.84l11.34-6.58c0.4-0.23,0.72-0.07,0.72,0.36c0,0.43-0.32,0.97-0.72,1.2
								l-11.34,6.58c-0.4,0.23-0.72,0.07-0.72-0.37C318.45,245.61,318.78,245.07,319.18,244.84z"/>
							<path style="fill:#E0E0E0;" d="M319.18,249.54l11.34-6.58c0.4-0.23,0.72-0.07,0.72,0.36c0,0.43-0.32,0.97-0.72,1.2
								l-11.34,6.58c-0.4,0.23-0.72,0.07-0.72-0.37C318.45,250.31,318.78,249.77,319.18,249.54z"/>
						</g>
					</g>
				</g>
			</g>
		</g>
	</g>
</g>
<g id="Magnifying_Glass">
	<g id="Glass">
		<g id="XMLID_762_">
			<g id="XMLID_768_">
				<path id="XMLID_773_" style="fill:#27DEBF;" d="M324.69,366.68c0.13-3.85-2.42-8.62-5.69-10.66c-1.61-1.01-3.1-1.15-4.21-0.58
					l0,0c-6.69,3.36-53.71,33.51-56.71,34.99l-0.04,0.02c-0.56,0.3-0.92,0.97-0.95,1.94c-0.07,1.94,1.22,4.35,2.86,5.37
					c0.83,0.51,1.59,0.58,2.15,0.28l0.04-0.02c4.76-2.62,51.16-22.4,60.65-27.48c0,0,0,0,0,0c0,0,0,0,0.01,0l0,0
					C323.91,369.93,324.63,368.6,324.69,366.68z"/>
				<path id="XMLID_770_" style="opacity:0.1;" d="M322.84,360.18c-1.01-1.72-2.34-3.23-3.84-4.16c-1.61-1-3.09-1.15-4.2-0.59
					c-0.22,0.12-0.29,0.16-0.14,0.07c-6.11,3.12-41.1,25.45-52.87,32.7c-0.03,0.02-0.05,0.03-0.08,0.05
					c-0.16,0.1-0.32,0.2-0.48,0.29c-0.05,0.03-0.1,0.06-0.14,0.09c-0.09,0.06-0.18,0.11-0.27,0.16c-0.11,0.06-0.21,0.13-0.32,0.19
					c-0.01,0.01-0.02,0.01-0.02,0.01c-1.25,0.76-2.09,1.26-2.41,1.42l-0.04,0.02c-0.1,0.05-0.19,0.13-0.28,0.21
					c-0.39,0.36-0.65,0.93-0.68,1.72c-0.01,0.22,0.01,0.45,0.03,0.67c0.01,0.09,0.03,0.17,0.04,0.26c0.02,0.14,0.05,0.27,0.08,0.41
					c0.03,0.11,0.05,0.22,0.09,0.33c0.04,0.13,0.08,0.26,0.13,0.39c0.03,0.1,0.07,0.19,0.1,0.29c0.01,0.02,0.01,0.03,0.02,0.05
					L322.84,360.18z"/>
				<path id="XMLID_769_" style="fill:#27DEBF;" d="M259.94,397.75c-1.64-1.02-2.92-3.42-2.85-5.35c0.06-1.93,1.45-2.67,3.09-1.65
					c1.64,1.02,2.92,3.42,2.85,5.35C262.96,398.04,261.58,398.77,259.94,397.75z"/>
			</g>
			<path id="XMLID_767_" style="fill:#37474F;" d="M245.89,399.05c-0.05,1.48,0.93,3.32,2.19,4.11c0.63,0.39,1.2,0.45,1.63,0.22l0,0
				l0.01,0l0,0l11.37-6.05c0,0,0,0,0.01,0l0,0l0,0c0.43-0.23,0.7-0.74,0.73-1.48c0.05-1.48-0.93-3.32-2.19-4.11
				c-0.63-0.39-1.21-0.45-1.64-0.22l0,0l-11.37,6.05l0,0C246.2,397.79,245.92,398.3,245.89,399.05z"/>
			<path id="XMLID_763_" style="fill:#263238;" d="M246.63,397.56c-0.43,0.23-0.71,0.74-0.74,1.49c-0.02,0.56,0.11,1.17,0.34,1.75
				l14.67-7.82c-0.35-0.52-0.79-0.96-1.26-1.25c-0.63-0.39-1.21-0.45-1.64-0.22L246.63,397.56L246.63,397.56z"/>
		</g>
		<g id="XMLID_440_">
			<path id="XMLID_758_" style="fill:#27DEBF;" d="M260.48,409.14c0-7.29-4.82-14.58-14.45-20.14c-19.26-11.12-50.49-11.12-69.75,0
				c-9.63,5.56-14.45,12.85-14.45,20.14l0,0v13.42c0,7.29,4.82,14.58,14.45,20.14c19.26,11.12,50.49,11.12,69.75,0
				c9.63-5.56,14.45-12.85,14.45-20.14V409.14L260.48,409.14z M178.67,393.14c8.6-4.97,20.14-7.7,32.49-7.7
				c12.35,0,23.89,2.74,32.49,7.7c7.78,4.49,12.06,10.17,12.06,16.01c0,5.83-4.28,11.51-12.06,16c-8.6,4.97-20.14,7.7-32.49,7.7
				c-12.35,0-23.89-2.74-32.49-7.7c-7.78-4.49-12.06-10.17-12.06-16C166.6,403.31,170.89,397.63,178.67,393.14z"/>
			<path id="XMLID_739_" style="opacity:0.3;fill:#FFFFFF;" d="M176.28,429.28c19.26,11.12,50.49,11.12,69.75,0
				c19.26-11.12,19.26-29.15,0-40.27c-19.26-11.12-50.49-11.12-69.75,0C157.02,400.13,157.02,418.16,176.28,429.28z M166.6,409.14
				c0-5.83,4.28-11.51,12.06-16.01c8.6-4.97,20.14-7.7,32.49-7.7c12.35,0,23.89,2.74,32.49,7.7c7.78,4.49,12.06,10.17,12.06,16.01
				c0,5.83-4.28,11.51-12.06,16c-8.6,4.97-20.14,7.7-32.49,7.7c-12.35,0-23.89-2.74-32.49-7.7
				C170.89,420.66,166.6,414.97,166.6,409.14z"/>
			<g id="XMLID_732_">
				<path id="XMLID_738_" style="fill:#27DEBF;" d="M166.6,409.14c0,2.29,0.66,4.54,1.93,6.72c1.96-3.39,5.4-6.56,10.14-9.29
					c8.6-4.97,20.14-7.71,32.49-7.71c12.34,0,23.89,2.74,32.48,7.71c4.74,2.73,8.18,5.91,10.15,9.29c1.26-2.17,1.92-4.43,1.92-6.72
					c0-5.83-4.28-11.51-12.07-16.01c-8.6-4.96-20.14-7.7-32.48-7.7c-12.35,0-23.9,2.74-32.49,7.7
					C170.88,397.63,166.6,403.31,166.6,409.14z"/>
				<path id="XMLID_734_" style="opacity:0.1;" d="M166.6,409.14c0,2.29,0.66,4.54,1.93,6.72c1.96-3.39,5.4-6.56,10.14-9.29
					c8.6-4.97,20.14-7.71,32.49-7.71c12.34,0,23.89,2.74,32.48,7.71c4.74,2.73,8.18,5.91,10.15,9.29c1.26-2.17,1.92-4.43,1.92-6.72
					c0-5.83-4.28-11.51-12.07-16.01c-8.6-4.96-20.14-7.7-32.48-7.7c-12.35,0-23.9,2.74-32.49,7.7
					C170.88,397.63,166.6,403.31,166.6,409.14z"/>
			</g>
			<path id="XMLID_726_" style="opacity:0.4;fill:#FFFFFF;" d="M178.66,399.21c8.6-4.97,20.14-7.7,32.49-7.7
				c12.35,0,23.89,2.74,32.49,7.7c6.42,3.71,10.45,8.22,11.66,12.97c-1.22,4.74-5.25,9.26-11.66,12.97
				c-8.6,4.97-20.14,7.7-32.49,7.7c-12.35,0-23.89-2.74-32.49-7.7c-6.42-3.71-10.45-8.22-11.66-12.97
				C168.21,407.44,172.24,402.92,178.66,399.21z"/>
			<path id="XMLID_715_" style="opacity:0.1;" d="M199.53,436.83v13.41c-8.52-1.18-16.6-3.69-23.25-7.54
				c-9.64-5.56-14.45-12.85-14.45-20.14v-13.42c0-1.47,0.2-2.94,0.59-4.4h0.01c-2.34,8.67,2.28,17.85,13.85,24.54
				C182.93,433.12,191.01,435.63,199.53,436.83z"/>
		</g>
	</g>
</g>
<g id="Character">
	<g id="Character_6_">
		<g id="XMLID_950_">
			<g id="XMLID_4042_">
				<path id="XMLID_4043_" style="fill:#263238;" d="M434.61,354.86c0.58,0.24,0.71,1.36,0.75,3.59c0.03,1.69,0.32,4.64-1.66,5.19
					c-1.99,0.54-4.88,0.18-6.11-1.44c-1.54-2.02-2.57-3.79-4.77-6.26c-1.91-2.14-3.98-4.15-4.71-7.12c-0.65-2.68-0.03-3.82,1.8-4.55
					c2.52-1.01,6.37,2.56,8.31,3.15C429.9,347.92,434.03,354.62,434.61,354.86z"/>
			</g>
			<g id="XMLID_4040_">
				<path id="XMLID_4041_" style="fill:#FFA8A7;" d="M434.66,352.8l-0.06,2.74c0,0-2.9,2.12-6.92,0.03
					c-0.11-0.27-0.63-3.93-0.63-3.93L434.66,352.8z"/>
			</g>
			<g id="XMLID_4038_">
				<path id="XMLID_4039_" style="fill:#263238;" d="M412.09,370.14c0,0,0.73,2.4,1.11,4.49c0.3,1.66,0.72,4.44,0.11,5.67
					c-0.61,1.23-2.89,1.98-6.39,1.88c-2.27-0.07-5.84,1.39-8.29,2.69c-2.53,1.34-7.75,1.78-10.39,1.41
					c-3.11-0.44-6.3-2.32-6.77-3.62c-0.48-1.3,0.22-2.63,7.64-5.59c0.07-0.03,10.29-3.1,13.94-6.94L412.09,370.14z"/>
			</g>
			<g id="XMLID_4036_">
				<path id="XMLID_4037_" style="fill:#FFA8A7;" d="M412.16,367.18c0,0-0.06,2.03-0.07,3.19c-0.02,1.16-1.43,2.86-4.97,2.65
					c-2.49-0.15-4.22-0.85-4.07-2.91l0.07-2.96L412.16,367.18z"/>
			</g>
			<g id="XMLID_4023_">
				<path id="XMLID_4035_" style="fill:#37474F;" d="M437.26,316.51c-1.05-8.97-2.91-14.33-2.91-14.33s1.25-12.28,1.99-23.93
					c0.79-12.59,1.52-19.07-0.95-37.25c0,0-38.59-3.47-39.64,11.08c-1.05,14.55,0.44,51.67,0.78,58.08
					c0.34,6.41,1.31,12.09,2.4,22.49c1.07,10.26,4.19,34.51,4.19,34.51c4.59,2.61,9.05,0.02,9.05,0.02s3.52-29.05,3.38-36.44
					c-0.16-9.02-2.44-16.18-2.44-16.18s1.04-11.99,1.96-22.42c0.92-10.43,1.75-15.43,2.01-19.97l0.88-0.41
					c0,0,0.49,18.04,0.82,24.45c0.34,6.41,1.22,12.57,2.8,24.49c1.37,10.34,5.66,32.26,5.66,32.26c4.59,2.62,7.42-0.16,7.42-0.16
					S438.31,325.48,437.26,316.51z"/>
			</g>
			<g id="XMLID_951_">
				<path id="XMLID_4022_" style="fill:#263238;" d="M417.07,272.17c0,0,9.97-4.64,15.01-8.91c0,0-4.73,6.35-10.81,9.08
					c0,0-2.64,22.34-2.62,21.89l-0.74-22.08L417.07,272.17z"/>
			</g>
		</g>
		<g id="XMLID_804_">
			<polygon id="XMLID_949_" style="fill:#FFA8A7;" points="410.16,189.15 411.66,202.47 424.24,201.84 422.85,186.29 			"/>
			<g id="XMLID_815_">
				<path style="fill:#37474F;" d="M428.99,194.25c4.68-0.22,7.06,0.49,9.17,4.53c2.1,4.04,2.93,16.11,3.66,22.34
					c0.73,6.22,0.92,10.62-1.65,11.26c-2.56,0.64-12.54,0.92-12.54,0.92L428.99,194.25z"/>
				<path id="XMLID_947_" style="fill:#455A64;" d="M436.89,201.15c-0.68-3.73-5.58-7.65-10.17-6.9c-1.07,0.17-2.1,0.35-3.12,0.53
					c-0.55,2.24-6.69,3.64-12.56,2.26c-1.77,0.46-7.59,1.55-9.06,2.04c-4.22,1.4-5.96,5.55-6.61,19.31c0,0,0.34,31.15,0.17,37.35
					c10.41,4.39,21.34,4.51,27.41,3.33c12.63-2.46,14.27-7.65,14.27-7.65l-1.88-14.25C435.34,237.18,438.43,209.59,436.89,201.15z"
					/>
				<path style="fill:#37474F;" d="M410.65,193.54l0.09,0.84c0,0,3.64,0.91,7.73,0c4.09-0.91,4.91-2.06,4.91-2.06l-0.09-0.95
					c0,0,1.02-0.38,1.55,1.19c0.53,1.57,0.59,1.91,0.59,1.91s0.47,2.86-4.34,4.32c-6.92,2.1-11.97-1.31-11.97-1.31l-1.88,0.4
					c0,0,1.63-3.76,2.12-4.52c0.49-0.76,1.18-0.65,1.18-0.65L410.65,193.54z"/>
				<g id="XMLID_907_">
					<polygon id="XMLID_916_" style="fill:#455A64;" points="372.24,179.25 347.29,192.28 359.69,226.17 382.97,213.13 					"/>
					<polygon id="XMLID_915_" style="fill:#F5F5F5;" points="371.1,182.57 350.16,193.5 361.14,222.64 380.67,211.7 					"/>
					<path id="XMLID_914_" style="opacity:0.15;" d="M366.68,185.72c0,0-0.18-0.46-0.41-1.04c-0.22-0.57-1.97-0.23-3.89,0.76
						l-3.69,1.9c-1.93,0.99-3.3,2.26-3.08,2.84l0.41,1.04L366.68,185.72z"/>
					<g id="XMLID_908_">
						<path id="XMLID_913_" style="fill:#27DEBF;" d="M366.27,181.57c-0.14-0.36-0.9-0.3-1.69,0.13l-1.44,0.78
							c0,0-0.89-2.24-4.21-0.69c-3.32,1.55-2.56,4.15-2.56,4.15s-0.69,0.38-1.53,0.84c-0.85,0.47-1.45,1.14-1.35,1.5l0.19,0.66
							l12.85-6.71C366.53,182.24,366.41,181.93,366.27,181.57z"/>
						<path id="XMLID_911_" style="fill:#27DEBF;" d="M364.89,183.07c-1.2,0.59-1.67,0.87-1.32,1.75c0.39,1.01,0.76,1.73,0.76,1.73
							l-5.68,2.97c0,0-0.47-1.28-0.68-1.78c-0.21-0.49-0.62-0.73-1.53-0.26l-0.34-0.36l8.97-4.57L364.89,183.07z"/>
						<path id="XMLID_4044_" style="opacity:0.3;" d="M364.89,183.07c-1.2,0.59-1.67,0.87-1.32,1.75c0.39,1.01,0.76,1.73,0.76,1.73
							l-5.68,2.97c0,0-0.47-1.28-0.68-1.78c-0.21-0.49-0.62-0.73-1.53-0.26l-0.34-0.36l8.97-4.57L364.89,183.07z"/>
						<path id="XMLID_909_" style="fill:#27DEBF;" d="M366.92,185.77c0,0-0.18-0.46-0.41-1.04c-0.22-0.57-1.97-0.23-3.89,0.76
							l-3.69,1.9c-1.93,0.99-3.3,2.26-3.08,2.84l0.41,1.04L366.92,185.77z"/>
					</g>
				</g>
				<g id="XMLID_817_">
					<g id="XMLID_895_">
						<path id="XMLID_899_" style="fill:#FFA8A7;" d="M401.98,199.09c-5.76,0.5-8.21,1.55-12.54,9.35
							c-4.69,8.46-13.71,23.78-14.86,25.71c-1.59,2.69-1.89,6.78-0.52,9.25c1.28,2.31,5.35,3.36,9.97-1.85
							c5.49-6.2,15.7-21.34,15.7-21.34S408.41,208.77,401.98,199.09z"/>
					</g>
				</g>
				<path id="XMLID_816_" style="fill:#FFA8A7;" d="M376.46,245.17c-4.42-0.54-14.73-14.53-17.66-19.1c-3.21-5-6.2-7.41-8.93-9.43
					c-4.67-3.45-3.99-8.76-1.95-13.62c0.71-1.68,3.1-0.59,3.1-0.59l0.84,2.31l1.46,4c0.99,0.92,1.55,1.22,1.62,0.94
					c0.12-0.52-0.73-2.66-0.71-4.9c0.03-2.69,1.91-0.92,2.48,0.02c0.56,0.94,1.22,2.48,1.99,4.45c0.94,2.41,0.55,4.85,1.7,6.5
					c1.15,1.64,16.53,16.38,16.53,16.38L376.46,245.17z"/>
				<path style="fill:#37474F;" d="M403.09,198.78c-3.49-0.09-7.68,0.47-10.93,4.69c-3.25,4.22-16.25,27.17-16.25,27.17l-7.3-6.54
					c0,0-4.59,2.65-5.61,7.93c0,0,3.52,5.58,6.61,8.97c3.08,3.38,6.52,5.73,9.34,4.69c2.82-1.04,5.7-3.27,11.77-11.73
					c6.07-8.45,12.7-18.43,12.7-18.43S407.61,205.79,403.09,198.78z"/>
			</g>
			<g id="XMLID_813_">
				<path id="XMLID_814_" style="fill:#F28F8F;" d="M401.29,172.84c0,0-3.14,4.77-2.78,5.24c0.36,0.47,2.67,0.89,2.67,0.89
					L401.29,172.84z"/>
			</g>
			<g id="XMLID_809_">
				<path id="XMLID_810_" style="fill:#263238;" d="M402.76,175.9c-2.06,0-3.74-1.68-3.74-3.74c0-2.06,1.68-3.74,3.74-3.74
					c2.06,0,3.74,1.68,3.74,3.74C406.51,174.22,404.83,175.9,402.76,175.9z M402.76,169.24c-1.61,0-2.91,1.31-2.91,2.91
					c0,1.61,1.31,2.91,2.91,2.91c1.61,0,2.91-1.31,2.91-2.91C405.67,170.55,404.37,169.24,402.76,169.24z"/>
			</g>
			<g id="XMLID_807_">
				<path id="XMLID_808_" style="fill:#FFA8A7;" d="M410.02,159.65c-6.36,1.34-8.19,4.14-8.79,14.23
					c-0.63,10.55,0.45,13.87,1.84,15.29c0.94,0.96,6.14,1.13,8.76,0.41c3.28-0.91,10.7-3.54,14.18-8.84
					c4.09-6.24,5.16-14.71,0.79-18.18C420.63,157.67,412.6,159.1,410.02,159.65z"/>
			</g>
			<path style="fill:#F28F8F;" d="M410.24,189.88l-0.29-1.94c0,0-3.06,1.76-6.52,1.48C404.64,190.01,407.8,190.18,410.24,189.88z"/>
			<polygon id="XMLID_806_" style="fill:#263238;" points="399.37,171.37 410.67,172.84 410.22,173.63 399.37,172.22 			"/>
			<g id="XMLID_792_">
				<g id="XMLID_801_">
					<g id="XMLID_802_">
						<path id="XMLID_803_" style="fill:#263238;" d="M400.14,163.73c0.48,0.07,0.97,0.04,1.44-0.09c-0.42,0.9-0.02,2.05,0.77,2.65
							c0.8,0.6,1.9,0.68,2.85,0.38c-0.34,0.59-0.46,1.3-0.31,1.97c0.3,1.38,1.86,2.58,3.29,2.38c0.07,1.48,0.09,2.92,1.66,3.6
							c0,0,1.01-3.9,4.29-3.41c3.31,0.49,3.76,4.71,1.67,7.27c-2.07,2.55-4,1.59-4.03,1.58c0.19,0.1,0.26,1.34,0.33,1.58
							c0.21,0.73,0.49,1.46,0.85,2.13c0.71,1.37,1.73,2.57,2.97,3.49c1.72,1.27,3.82,2.18,5.97,1.66c1.86-0.45,3.56-1.73,4.35-3.5
							c0.2-0.44,0.36-0.93,0.71-1.26c0.43-0.41,1.06-0.51,1.62-0.7c1.3-0.44,2.38-1.47,2.89-2.74c0.51-1.27,0.43-2.76-0.2-3.98
							c1.56-0.4,2.84-1.72,3.19-3.29c0.34-1.57-0.27-3.31-1.52-4.33c1.86-1.14,2.83-3.57,2.25-5.68c-0.49-1.81-2-3.1-3.76-3.6
							c-1.28-0.37-0.79-0.57-1.19-1.83c-0.27-0.86-0.78-1.64-1.48-2.21c-1.2-0.98-2.91-1.3-4.38-0.81
							c-0.28-1.64-1.59-2.97-3.17-3.41c-0.72-0.2-1.51-0.28-2.24-0.09c-0.53,0.14-1.61,0.63-1.81,1.13
							c-0.67-0.66-0.89-1.53-1.7-2.12c-0.83-0.61-1.85-0.96-2.89-0.96c-1.71,0.01-3.38,0.99-4.21,2.48
							c-1.14-1.19-2.79-1.94-4.44-1.87c-1.65,0.07-3.28,1.01-4.05,2.47c-0.77,1.46-0.59,3.41,0.54,4.62
							c-1.02,0.43-1.96,1.14-2.46,2.12c-0.54,1.07-0.47,2.41,0.35,3.32c0.39,0.44,0.65,0.73,1.24,0.92
							C399.73,163.65,399.94,163.7,400.14,163.73z"/>
					</g>
				</g>
				<g id="XMLID_793_">
					<g id="XMLID_796_">
						<path id="XMLID_797_" style="fill:#263238;" d="M409.78,176.83l0.12-4.41c-1.22-0.03-2.23,0.93-2.27,2.15
							C407.6,175.78,408.56,176.8,409.78,176.83z"/>
					</g>
				</g>
			</g>
		</g>
	</g>
</g>
</svg>
