<?xml version="1.0" encoding="utf-8"?>
<!-- Generator: Adobe Illustrator 25.3.1, SVG Export Plug-In . SVG Version: 6.00 Build 0)  -->
<svg version="1.1" id="Layer_1" xmlns="http://www.w3.org/2000/svg" xmlns:xlink="http://www.w3.org/1999/xlink" x="0px" y="0px"
	 viewBox="0 0 141.73 141.73" style="enable-background:new 0 0 141.73 141.73;" xml:space="preserve">
<g>
	<path style="fill-rule:evenodd;clip-rule:evenodd;fill:#231E1B;" d="M70.87,5.13c-37.22,0-67.4,30.18-67.4,67.4
		c0,29.78,19.31,55.05,46.1,63.96c3.37,0.62,4.61-1.46,4.61-3.24c0-1.61-0.06-6.92-0.09-12.55c-18.75,4.08-22.71-7.95-22.71-7.95
		c-3.07-7.79-7.48-9.86-7.48-9.86c-6.12-4.18,0.46-4.1,0.46-4.1c6.77,0.48,10.33,6.95,10.33,6.95c6.01,10.3,15.77,7.33,19.62,5.6
		c0.6-4.36,2.35-7.33,4.28-9.01c-14.97-1.7-30.71-7.48-30.71-33.31c0-7.36,2.63-13.37,6.95-18.09c-0.7-1.7-3.01-8.55,0.65-17.84
		c0,0,5.66-1.81,18.54,6.91c5.38-1.49,11.14-2.24,16.87-2.27c5.73,0.03,11.5,0.78,16.89,2.27c12.87-8.72,18.52-6.91,18.52-6.91
		c3.67,9.28,1.36,16.14,0.66,17.84c4.32,4.72,6.94,10.73,6.94,18.09c0,25.89-15.77,31.59-30.78,33.26
		c2.42,2.09,4.57,6.19,4.57,12.48c0,9.02-0.08,16.28-0.08,18.5c0,1.79,1.21,3.9,4.63,3.23c26.77-8.92,46.06-34.18,46.06-63.95
		C138.27,35.3,108.09,5.13,70.87,5.13z"/>
	<path style="fill:#231E1B;" d="M28.99,101.9c-0.15,0.34-0.68,0.44-1.16,0.21c-0.49-0.22-0.76-0.68-0.6-1.01
		c0.14-0.34,0.67-0.44,1.16-0.21C28.88,101.11,29.16,101.57,28.99,101.9L28.99,101.9z M28.16,101.29"/>
	<path style="fill:#231E1B;" d="M31.72,104.95c-0.32,0.3-0.95,0.16-1.38-0.31c-0.44-0.47-0.52-1.1-0.2-1.4
		c0.33-0.3,0.94-0.16,1.38,0.31C31.97,104.02,32.06,104.65,31.72,104.95L31.72,104.95z M31.08,104.26"/>
	<path style="fill:#231E1B;" d="M34.38,108.83c-0.41,0.29-1.09,0.02-1.51-0.58c-0.41-0.6-0.41-1.32,0.01-1.61
		c0.42-0.29,1.08-0.03,1.51,0.57C34.8,107.82,34.8,108.54,34.38,108.83L34.38,108.83z M34.38,108.83"/>
	<path style="fill:#231E1B;" d="M38.02,112.58c-0.37,0.41-1.16,0.3-1.73-0.26c-0.59-0.54-0.75-1.31-0.38-1.72
		c0.37-0.41,1.17-0.29,1.75,0.26C38.24,111.4,38.41,112.18,38.02,112.58L38.02,112.58z M38.02,112.58"/>
	<path style="fill:#231E1B;" d="M43.04,114.76c-0.16,0.53-0.92,0.77-1.68,0.54c-0.76-0.23-1.26-0.85-1.11-1.38
		c0.16-0.53,0.92-0.78,1.69-0.54C42.7,113.61,43.2,114.22,43.04,114.76L43.04,114.76z M43.04,114.76"/>
	<path style="fill:#231E1B;" d="M48.56,115.16c0.02,0.56-0.63,1.02-1.43,1.03c-0.81,0.02-1.46-0.43-1.47-0.98
		c0-0.56,0.63-1.02,1.44-1.03C47.9,114.16,48.56,114.61,48.56,115.16L48.56,115.16z M48.56,115.16"/>
	<path style="fill:#231E1B;" d="M53.69,114.29c0.1,0.54-0.46,1.1-1.26,1.25c-0.78,0.14-1.51-0.19-1.61-0.73
		c-0.1-0.56,0.47-1.11,1.25-1.26C52.88,113.41,53.59,113.74,53.69,114.29L53.69,114.29z M53.69,114.29"/>
</g>
</svg>
