<?xml version="1.0" encoding="utf-8"?>
<!-- Generator: Adobe Illustrator 25.3.1, SVG Export Plug-In . SVG Version: 6.00 Build 0)  -->
<svg version="1.1" id="Layer_1" xmlns="http://www.w3.org/2000/svg" xmlns:xlink="http://www.w3.org/1999/xlink" x="0px" y="0px"
	 viewBox="0 0 141.73 141.73" style="enable-background:new 0 0 141.73 141.73;" xml:space="preserve">
<rect width="141.73" height="141.73"/>
<g>
	<path style="fill-rule:evenodd;clip-rule:evenodd;fill:#FFFFFF;" d="M70.87,11.97c-33.35,0-60.39,27.04-60.39,60.39
		c0,26.68,17.3,49.32,41.3,57.3c3.02,0.56,4.13-1.31,4.13-2.91c0-1.44-0.06-6.2-0.08-11.24c-16.8,3.65-20.34-7.12-20.34-7.12
		c-2.75-6.98-6.71-8.84-6.71-8.84c-5.48-3.75,0.41-3.67,0.41-3.67c6.06,0.43,9.26,6.22,9.26,6.22c5.39,9.23,14.13,6.56,17.57,5.02
		c0.54-3.9,2.11-6.57,3.83-8.08c-13.41-1.53-27.51-6.71-27.51-29.84c0-6.59,2.36-11.98,6.22-16.21c-0.63-1.52-2.69-7.66,0.59-15.98
		c0,0,5.07-1.62,16.61,6.19c4.82-1.34,9.98-2.01,15.12-2.03c5.13,0.02,10.3,0.69,15.13,2.03c11.53-7.81,16.59-6.19,16.59-6.19
		c3.29,8.32,1.22,14.46,0.59,15.98c3.87,4.23,6.21,9.62,6.21,16.21c0,23.19-14.13,28.3-27.57,29.8c2.17,1.87,4.1,5.55,4.1,11.18
		c0,8.08-0.07,14.58-0.07,16.57c0,1.61,1.09,3.49,4.15,2.9c23.98-7.99,41.26-30.62,41.26-57.29C131.25,39,104.22,11.97,70.87,11.97z
		"/>
	<path style="fill:#FFFFFF;" d="M33.35,98.67c-0.13,0.3-0.61,0.39-1.04,0.18c-0.44-0.2-0.68-0.61-0.54-0.91
		c0.13-0.31,0.6-0.39,1.04-0.19C33.25,97.96,33.5,98.37,33.35,98.67L33.35,98.67z M32.61,98.12"/>
	<path style="fill:#FFFFFF;" d="M35.8,101.4c-0.29,0.27-0.85,0.14-1.23-0.28c-0.4-0.42-0.47-0.98-0.18-1.25
		c0.3-0.27,0.84-0.14,1.24,0.28C36.02,100.57,36.1,101.13,35.8,101.4L35.8,101.4z M35.22,100.78"/>
	<path style="fill:#FFFFFF;" d="M38.18,104.88c-0.37,0.26-0.98,0.02-1.35-0.52c-0.37-0.54-0.37-1.18,0.01-1.44
		c0.37-0.26,0.97-0.03,1.35,0.51C38.56,103.97,38.56,104.62,38.18,104.88L38.18,104.88z M38.18,104.88"/>
	<path style="fill:#FFFFFF;" d="M41.44,108.24c-0.33,0.37-1.04,0.27-1.55-0.23c-0.53-0.49-0.67-1.18-0.34-1.54
		c0.34-0.37,1.04-0.26,1.56,0.23C41.63,107.18,41.79,107.88,41.44,108.24L41.44,108.24z M41.44,108.24"/>
	<path style="fill:#FFFFFF;" d="M45.94,110.19c-0.15,0.47-0.83,0.69-1.51,0.49c-0.68-0.21-1.13-0.76-0.99-1.24
		c0.14-0.48,0.82-0.7,1.51-0.49C45.63,109.16,46.08,109.71,45.94,110.19L45.94,110.19z M45.94,110.19"/>
	<path style="fill:#FFFFFF;" d="M50.88,110.55c0.02,0.5-0.56,0.91-1.28,0.92c-0.72,0.02-1.31-0.39-1.31-0.88
		c0-0.5,0.57-0.91,1.29-0.92C50.29,109.66,50.88,110.06,50.88,110.55L50.88,110.55z M50.88,110.55"/>
	<path style="fill:#FFFFFF;" d="M55.48,109.77c0.09,0.49-0.41,0.98-1.13,1.12c-0.7,0.13-1.35-0.17-1.44-0.65
		c-0.09-0.5,0.42-1,1.12-1.13C54.75,108.98,55.39,109.28,55.48,109.77L55.48,109.77z M55.48,109.77"/>
</g>
</svg>
