<?xml version="1.0" encoding="utf-8"?>
<!-- Generator: Adobe Illustrator 25.3.1, SVG Export Plug-In . SVG Version: 6.00 Build 0)  -->
<svg version="1.1" id="Capa_1" xmlns="http://www.w3.org/2000/svg" xmlns:xlink="http://www.w3.org/1999/xlink" x="0px" y="0px"
	 viewBox="0 0 56.69 56.69" style="enable-background:new 0 0 56.69 56.69;" xml:space="preserve">
<style type="text/css">
	.st0{fill:#FFE719;stroke:#000000;stroke-width:0.4072;stroke-miterlimit:10;}
	.st1{fill:#FFE719;stroke:#000000;stroke-width:0.3912;stroke-miterlimit:10;}
	.st2{fill:#FFE719;stroke:#000000;stroke-width:0.3492;stroke-miterlimit:10;}
	.st3{fill:#FFFFFF;stroke:#000000;stroke-width:6;stroke-miterlimit:10;}
	.st4{fill:none;stroke:#000000;stroke-width:6;stroke-miterlimit:10;}
	.st5{fill:none;stroke:#000000;stroke-width:5.7643;stroke-miterlimit:10;}
	.st6{fill:none;stroke:#000000;stroke-width:5.1458;stroke-miterlimit:10;}
</style>
<g>
	<path class="st0" d="M5.96,52.69c2.81,2.02,12.91,3.22,15.9,3.22h6.68h8.2c3.24,0,10.35-1.57,14.19-2.88
		c1.48,0.21-5.76-34.49-19.52-35.27c-2.52-0.1-2.85-0.06-4,0.04C12.2,19.17,3.58,52.97,5.96,52.69z"/>
	<circle class="st0" cx="28.54" cy="51.59" r="2.87"/>
	<path class="st0" d="M7.13,45.27l5.01,1.08c3.08,0.66,6.22,0.99,9.38,0.99h7h8.31c3.41,0,6.81-0.31,10.15-0.93l2.98-0.55"/>
	<path class="st0" d="M22.35,17.45l-4.09-5.24l-2.18,0.05c-0.58,0.01-1.16-0.12-1.71-0.36c-1.13-0.5-1.72-1.75-1.41-2.94l0,0
		c0.43-0.94-0.81-1.79-1.85-1.79H9.53"/>
	<ellipse class="st0" cx="29.25" cy="30.57" rx="3.31" ry="4.83"/>
	<path class="st0" d="M20.78,18.88l-4-5.3l0.62-2.1c0.16-0.55,0.19-1.16,0.09-1.75c-0.19-1.22-1.24-2.11-2.48-2.12h0
		c-1.02,0.17-1.52-1.25-1.26-2.25l0.41-1.52"/>
	<path class="st0" d="M21.49,20.06l3.27,0.72c2.96,0.65,6.02,0.65,8.97,0l3.27-0.72"/>
	<path class="st0" d="M29.84,16.78l0.01-6.65l-1.75-1.3c-0.46-0.34-0.84-0.81-1.13-1.34c-0.58-1.09-0.28-2.44,0.7-3.19l0,0
		c0.92-0.48,0.47-1.91-0.35-2.55l-1.24-0.97"/>
	<path class="st0" d="M27.73,16.94l0.11-6.65l1.78-1.27c0.47-0.34,0.86-0.8,1.15-1.32c0.6-1.07,0.32-2.43-0.64-3.2l0,0
		c-0.91-0.5-0.43-1.92,0.4-2.54l1.26-0.95"/>
	<path class="st0" d="M36.99,17.59l4.37-5l-0.47-2.13c-0.12-0.56-0.1-1.17,0.03-1.75c0.27-1.2,1.39-2.02,2.62-1.94h0
		c1.01,0.24,1.61-1.13,1.41-2.15l-0.3-1.55"/>
	<path class="st0" d="M35.29,16.33l4.45-4.94l2.17,0.21c0.57,0.06,1.17-0.04,1.74-0.24c1.16-0.41,1.84-1.62,1.62-2.83v0
		c-0.36-0.97,0.94-1.73,1.97-1.66l1.57,0.11"/>
	<path class="st0" d="M25.95,30.57L25.95,30.57c2.1,0.95,4.51,0.95,6.61,0l0,0"/>
	<path class="st0" d="M25.95,29.01L25.95,29.01c2.1,0.95,4.51,0.95,6.61,0h0"/>
	<path class="st1" d="M26.2,32.14L26.2,32.14c1.94,0.95,4.16,0.95,6.1,0l0,0"/>
	<circle class="st0" cx="28.54" cy="51.6" r="1.29"/>
	<path class="st2" d="M26.38,27.73L26.38,27.73c1.8,0.81,3.87,0.81,5.67,0l0,0"/>
	<path class="st2" d="M26.42,33.22L26.42,33.22c1.8,0.81,3.87,0.81,5.67,0l0,0"/>
</g>
</svg>
