<?xml version="1.0" encoding="utf-8"?>
<!-- Generator: Adobe Illustrator 25.3.1, SVG Export Plug-In . SVG Version: 6.00 Build 0)  -->
<svg version="1.1" xmlns="http://www.w3.org/2000/svg" xmlns:xlink="http://www.w3.org/1999/xlink" x="0px" y="0px"
	 viewBox="0 0 500 500" style="enable-background:new 0 0 500 500;" xml:space="preserve">
<g id="Floor">
	<path id="Floor_7_" style="fill:#F0F0F0;" d="M81.82,446.22c-92.88-53.63-92.88-140.57,0-194.2c92.88-53.63,243.47-53.63,336.36,0
		c92.88,53.63,92.88,140.57,0,194.2S174.7,499.84,81.82,446.22z"/>
</g>
<g id="Shadows">
	<path id="Shadow_11_" style="fill:#E0E0E0;" d="M207.67,456.34l-141.8-81.93c-5.53-3.19-5.53-8.42,0-11.61l229.6-132.66
		c2.28-1.32,6.01-1.32,8.28,0l145.28,83.94c2.92,1.69,2.92,5.91,0,7.59L215.96,456.34C213.68,457.65,209.95,457.65,207.67,456.34z"
		/>
	<ellipse id="Shadow_14_" style="fill:#E0E0E0;" cx="384.29" cy="414.64" rx="52.56" ry="30.34"/>
</g>
<g id="Plants">
	<g id="Plants_11_">
		<g id="XMLID_28954_">
			<g id="XMLID_28958_">
				<path id="XMLID_28960_" style="fill:#27DEBF;" d="M80.51,326.81c0,0-0.3-21.35-9.17-38.77c-8.87-17.43-22.28-29.09-35.63-31.49
					c-13.36-2.4-25.46,8.9-11.9,18.84c13.56,9.94,38.28,21.16,46.89,54.15L80.51,326.81z"/>
				<path id="XMLID_28959_" style="opacity:0.15;" d="M80.51,326.81c0,0-0.3-21.35-9.17-38.77c-8.87-17.43-22.28-29.09-35.63-31.49
					c-13.36-2.4-25.46,8.9-11.9,18.84c13.56,9.94,38.28,21.16,46.89,54.15L80.51,326.81z"/>
			</g>
			<path id="XMLID_28957_" style="fill:#FFFFFF;" d="M77.11,320.93c0.05,0,0.1-0.01,0.15-0.03c0.38-0.11,0.6-0.51,0.49-0.9
				c-10.72-36.4-36.31-53.7-48.35-57.76c-0.38-0.13-0.79,0.08-0.92,0.45c-0.13,0.38,0.07,0.79,0.45,0.92
				c11.79,3.98,36.87,20.97,47.42,56.8C76.45,320.75,76.77,320.96,77.11,320.93z"/>
		</g>
		<g id="Plant_9_">
			<path style="fill:#27DEBF;" d="M81.86,346.95c-4.96,2.85-7.8,4.7-16.9,5.46c-5.43,0.46-12.77-0.31-19.1-2.59
				c-1.69-0.61-4.3-1.94-2.83-3.56c0.76-0.84,9.68-2.25,12.87-6.01c-3.73,1-8.65,2.13-12.51,2.22c-3.86,0.08-7.89-0.84-10.85-3.32
				c-2.94-2.46-4.54-6.14-6.03-9.67c-0.51-1.21-0.99-2.69-0.21-3.74c0.5-0.67,1.36-0.93,2.16-1.15c3.38-0.94,6.76-1.88,10.14-2.82
				c2.2-0.47,0.65-1.93-0.19-2.05c-1.45-0.21-2.83-0.21-3.67-0.16c-3.87,0.21-8.14,0.94-11.3-1.31c-1.89-1.34-3.01-3.57-3.48-5.84
				c-0.17-0.8-0.83-11.24-0.37-11.37c2.51-0.69,5.15-1.05,7.73-1.35c2.45-0.28,4.84-0.39,7.28-0.72c2.76-0.37,5.54-0.55,8.32-0.55
				c0.94,0,1.94,0.04,2.74,0.55c1.1,0.69,1.53,2.08,1.67,3.36c0.14,1.29,0.07,2.63,0.52,3.84c1.19-0.1,1.58-1.65,1.55-2.84
				c-0.03-1.19-0.01-2.68,1.07-3.19c0.55-0.26,1.19-0.16,1.78-0.03c3.78,0.77,7.46,2,10.95,3.64c1.6,0.75,3.19,1.62,4.34,2.96
				c1.69,1.98,2.2,4.72,2.21,7.32c0.01,2.6-0.39,5.21-0.22,7.8c2.04-1.82,4.87-7.35,5.09-10.07c4.38,2.82,6.98,8.62,7.79,16.56
				c0.54,5.24,0.41,12.13-0.32,17.44C82.07,345.93,82.02,346.86,81.86,346.95z"/>
			<path style="opacity:0.3;" d="M81.86,346.95c-4.96,2.85-7.8,4.7-16.9,5.46c-5.43,0.46-12.77-0.31-19.1-2.59
				c-1.69-0.61-4.3-1.94-2.83-3.56c0.76-0.84,9.68-2.25,12.87-6.01c-3.73,1-8.65,2.13-12.51,2.22c-3.86,0.08-7.89-0.84-10.85-3.32
				c-2.94-2.46-4.54-6.14-6.03-9.67c-0.51-1.21-0.99-2.69-0.21-3.74c0.5-0.67,1.36-0.93,2.16-1.15c3.38-0.94,6.76-1.88,10.14-2.82
				c2.2-0.47,0.65-1.93-0.19-2.05c-1.45-0.21-2.83-0.21-3.67-0.16c-3.87,0.21-8.14,0.94-11.3-1.31c-1.89-1.34-3.01-3.57-3.48-5.84
				c-0.17-0.8-0.83-11.24-0.37-11.37c2.51-0.69,5.15-1.05,7.73-1.35c2.45-0.28,4.84-0.39,7.28-0.72c2.76-0.37,5.54-0.55,8.32-0.55
				c0.94,0,1.94,0.04,2.74,0.55c1.1,0.69,1.53,2.08,1.67,3.36c0.14,1.29,0.07,2.63,0.52,3.84c1.19-0.1,1.58-1.65,1.55-2.84
				c-0.03-1.19-0.01-2.68,1.07-3.19c0.55-0.26,1.19-0.16,1.78-0.03c3.78,0.77,7.46,2,10.95,3.64c1.6,0.75,3.19,1.62,4.34,2.96
				c1.69,1.98,2.2,4.72,2.21,7.32c0.01,2.6-0.39,5.21-0.22,7.8c2.04-1.82,4.87-7.35,5.09-10.07c4.38,2.82,6.98,8.62,7.79,16.56
				c0.54,5.24,0.41,12.13-0.32,17.44C82.07,345.93,82.02,346.86,81.86,346.95z"/>
			<g>
				<g>
					<path style="fill:#FFFFFF;" d="M81.04,345.96c-0.22,0-0.43-0.12-0.53-0.32c-14.19-27.24-45.57-38.72-53.2-40.3
						c-0.32-0.07-0.53-0.39-0.47-0.71c0.07-0.32,0.39-0.53,0.71-0.47c7.75,1.61,39.61,13.26,54.02,40.92
						c0.15,0.29,0.04,0.66-0.25,0.81C81.23,345.94,81.14,345.96,81.04,345.96z"/>
				</g>
				<g>
					<path style="fill:#FFFFFF;" d="M39.82,330.27c-0.31,0-0.57-0.24-0.6-0.55c-0.03-0.33,0.22-0.62,0.55-0.65
						c15.66-1.23,20.72-7.36,20.77-7.42c0.21-0.26,0.58-0.3,0.84-0.1c0.26,0.21,0.3,0.58,0.1,0.84c-0.21,0.27-5.37,6.6-21.62,7.88
						C39.85,330.27,39.83,330.27,39.82,330.27z"/>
				</g>
			</g>
		</g>
	</g>
	<g id="Plants_8_">
		<g id="XMLID_28976_">
			<g id="XMLID_28994_">
				<path style="fill:#27DEBF;" d="M460.04,254.3c-6.94,7.59-19.67,20.08-27.07,32.14c-0.02,0.03-0.04,0.06-0.05,0.09
					c-2.89,4.73-4.96,9.39-5.53,13.66l-0.52,7.71l-3.17-1.83l-0.53-0.31l-1.31-0.75l0,0c-1.88-1.09-3.06-3.08-3.11-5.24
					c-0.51-18.8,4.51-34.78,9.37-44.46c6.65-13.21,19.11-26.68,29.94-25.36C468.13,231.18,469.72,243.72,460.04,254.3z"/>
				<path style="opacity:0.15;" d="M460.04,254.3c-6.94,7.59-19.67,20.08-27.07,32.14c-0.02,0.03-0.04,0.06-0.05,0.09
					c-2.89,4.73-4.96,9.39-5.53,13.66l-0.52,7.71l-3.17-1.83l-0.53-0.31l-1.31-0.75l0,0c-1.88-1.09-3.06-3.08-3.11-5.24
					c-0.51-18.8,4.51-34.78,9.37-44.46c6.65-13.21,19.11-26.68,29.94-25.36C468.13,231.18,469.72,243.72,460.04,254.3z"/>
			</g>
			<path style="fill:#FFFFFF;" d="M454.93,237.24c-13.26,8.38-32.19,37.59-31.76,68.52l-1.31-0.75
				c-0.11-31.12,18.98-60.4,32.37-68.87c0.31-0.2,0.71-0.1,0.9,0.21C455.32,236.65,455.23,237.05,454.93,237.24z"/>
		</g>
		<g id="XMLID_28961_">
			<g id="XMLID_28963_">
				<path style="fill:#27DEBF;" d="M467.9,279.08c-2.31,6.27-15.49,11.71-25.22,20.76c-2.56,2.38-4.79,4.84-6.67,7.25
					c-1.88,2.41-5.25,3.05-7.9,1.52l0,0l-1.16-0.67l-0.08-0.04l-3.17-1.83c1.88-7.08,5.26-13.79,9.22-19.54
					c0.01-0.03,0.03-0.06,0.05-0.09c6.44-9.34,14.39-16.09,19.94-17.62C463.82,265.82,470.67,271.55,467.9,279.08z"/>
				<path style="opacity:0.3;" d="M467.9,279.08c-2.31,6.27-15.49,11.71-25.22,20.76c-2.56,2.38-4.79,4.84-6.67,7.25
					c-1.88,2.41-5.25,3.05-7.9,1.52l0,0l-1.16-0.67l-0.08-0.04l-3.17-1.83c1.88-7.08,5.26-13.79,9.22-19.54
					c0.01-0.03,0.03-0.06,0.05-0.09c6.44-9.34,14.39-16.09,19.94-17.62C463.82,265.82,470.67,271.55,467.9,279.08z"/>
			</g>
			<path style="fill:#FFFFFF;" d="M458.63,275.31c-7.97,2.25-23.41,11.97-30.52,33.3l-1.16-0.67c7.21-21.59,22.56-31.41,31.33-33.88
				c0.36-0.1,0.7,0.1,0.8,0.45C459.18,274.86,458.98,275.22,458.63,275.31z"/>
		</g>
	</g>
</g>
<g id="Device">
	<g id="Laptop_2_">
		<g>
			<path id="XMLID_28956_" style="fill:#455A64;" d="M73.1,359.31c0,3.47,2.6,7.78,5.8,9.63l126.29,72.93c3.2,1.85,8.4,1.85,11.6,0
				l222.38-128.39c3.2-1.85,5.8-6.16,5.8-9.63c0-3.47-2.6-7.78-5.8-9.63l-126.29-72.93c-3.2-1.85-8.4-1.85-11.6,0L78.9,349.68
				C75.7,351.53,73.1,355.84,73.1,359.31z"/>
			<path id="XMLID_28955_" style="fill:#37474F;" d="M444.97,303.85c0,3.47-2.6,7.78-5.8,9.63l-222.38,128.4
				c-1.6,0.92-3.7,1.38-5.79,1.38v-12.56c2.09,0,4.19-0.47,5.79-1.39l222.38-128.38c2.81-1.62,3.16-4.12,1.05-5.96
				C442.91,297.05,444.97,300.77,444.97,303.85z"/>
			<path id="XMLID_28953_" style="fill:#263238;" d="M210.99,430.7v12.55c-2.1,0-4.21-0.46-5.8-1.38L78.9,368.94
				c-3.2-1.85-5.8-6.16-5.8-9.63c0-3.26,2.29-7.25,5.21-9.26c-2.6,1.86-2.4,4.59,0.59,6.32l126.29,72.93
				C206.78,430.23,208.89,430.7,210.99,430.7z"/>
		</g>
		<g>
			<path id="XMLID_28952_" style="fill:#37474F;" d="M67.66,349.88c-2.84-2-2.84-4.66-2.84-8.36l0-186.88c0-3.7,2.6-8.2,5.8-10.05
				L292.99,16.21c3.2-1.85,6.16-0.51,9.16,1.23c3.01,1.74,4.92,3.23,4.92,6.93v186.88c0,3.7-2.6,8.2-5.8,10.05L78.9,349.68
				C74.05,352.95,70.74,352.06,67.66,349.88z"/>
			<path style="fill:#263238;" d="M78.9,349.68c-4.85,3.26-8.16,2.38-11.24,0.2c-2.83-2-2.84-4.67-2.84-8.36V154.65
				c0-1.85,0.65-3.9,1.69-5.71l8.28,4.82c-1.05,1.8-1.69,3.85-1.69,5.69v186.88C73.1,350.02,75.69,351.52,78.9,349.68z"/>
			<path id="XMLID_28951_" style="fill:#455A64;" d="M307.08,24.36c0-3.69-2.6-5.19-5.8-3.35L78.9,149.41
				c-1.6,0.93-3.06,2.52-4.1,4.34l-8.28-4.81h-0.01c1.05-1.82,2.51-3.41,4.11-4.34L292.99,16.21c3.2-1.85,6.16-0.51,9.16,1.22
				C305.16,19.17,307.08,20.67,307.08,24.36z"/>
		</g>
		<g>
			<path id="XMLID_28949_" style="fill:#263238;" d="M82.02,156.1l214.4-123.75c1.92-1.11,3.48-0.21,3.48,2.01v171.41
				c0,2.22-1.56,4.92-3.48,6.03L82.02,335.54c-1.92,1.11-3.48,0.21-3.48-2.01v-171.4C78.54,159.9,80.1,157.21,82.02,156.1z"/>
			<path style="fill:#27DEBF;" d="M82.02,156.1c-1.92,1.11-3.48,3.81-3.48,6.03v170.37l213.14-123.02c1.92-1.11,3.48-3.81,3.48-6.03
				V33.07L82.02,156.1z"/>
			<path style="opacity:0.65;fill:#FFFFFF;" d="M82.02,156.1c-1.92,1.11-3.48,3.81-3.48,6.03v170.37l213.14-123.02
				c1.92-1.11,3.48-3.81,3.48-6.03V33.07L82.02,156.1z"/>
		</g>
		<path id="XMLID_28948_" style="fill:#37474F;" d="M94.95,350.02l206.41-119.17c1.6-0.92,4.2-0.92,5.8,0l6.01,3.15
			c1.6,0.92,1.6,2.42,0,3.35L106.73,356.5c-1.6,0.92-4.2,0.92-5.8,0l-5.97-3.14C93.35,352.44,93.35,350.94,94.95,350.02z"/>
		<g id="XMLID_8036_">
			<path id="XMLID_28947_" style="fill:#263238;" d="M111.14,359.65l206.41-119.17c1.6-0.92,3.97-1.05,5.3-0.29l53.73,31.02
				c1.33,0.76,1.1,2.13-0.5,3.06L169.91,393.27c-1.6,0.92-3.98,1.06-5.31,0.3l-53.95-30.88
				C109.32,361.94,109.54,360.57,111.14,359.65z"/>
			<path id="XMLID_8037_" style="fill:#455A64;" d="M288.3,290.04l6.46-3.73c0.27-0.16,0.31-0.39,0.09-0.52l-5.7-3.29
				c-0.22-0.13-0.63-0.11-0.9,0.05l-6.46,3.73c-0.27,0.16-0.31,0.39-0.09,0.52l5.7,3.29C287.62,290.22,288.02,290.2,288.3,290.04z
				 M279.28,277.37l-6.46,3.73c-0.27,0.16-0.31,0.39-0.09,0.52l5.7,3.29c0.22,0.13,0.63,0.11,0.9-0.05l6.46-3.73
				c0.27-0.16,0.32-0.39,0.09-0.52l-5.7-3.29C279.96,277.19,279.55,277.21,279.28,277.37z M258.4,289.43l-10.94,6.31
				c-0.27,0.16-0.31,0.39-0.09,0.52l5.7,3.29c0.23,0.13,0.63,0.11,0.9-0.05l10.94-6.31c0.27-0.16,0.31-0.39,0.09-0.52l-5.7-3.29
				C259.08,289.24,258.67,289.27,258.4,289.43z M269.83,282.82l-6.46,3.73c-0.27,0.16-0.31,0.39-0.09,0.52l5.7,3.29
				c0.22,0.13,0.63,0.11,0.9-0.05l6.46-3.73c0.27-0.16,0.32-0.39,0.09-0.52l-5.7-3.29C270.51,282.64,270.11,282.66,269.83,282.82z
				 M244.48,297.46l-6.46,3.73c-0.28,0.16-0.32,0.39-0.09,0.52l5.7,3.29c0.22,0.13,0.63,0.11,0.9-0.05l6.46-3.73
				c0.27-0.16,0.31-0.39,0.09-0.52l-5.7-3.29C245.16,297.28,244.75,297.3,244.48,297.46z M235.03,302.92l-6.46,3.73
				c-0.27,0.16-0.31,0.39-0.09,0.52l5.7,3.29c0.22,0.13,0.63,0.11,0.9-0.05l6.46-3.73c0.27-0.16,0.31-0.39,0.09-0.52l-5.7-3.29
				C235.71,302.73,235.31,302.76,235.03,302.92z M258.98,317.32l6.46-3.73c0.27-0.16,0.31-0.39,0.09-0.52l-5.7-3.29
				c-0.23-0.13-0.63-0.11-0.9,0.05l-6.46,3.73c-0.27,0.16-0.32,0.39-0.09,0.52l5.7,3.29C258.3,317.5,258.71,317.47,258.98,317.32z
				 M249.54,322.77l6.46-3.73c0.27-0.16,0.31-0.39,0.09-0.52l-5.7-3.29c-0.23-0.13-0.63-0.11-0.9,0.05l-6.46,3.73
				c-0.27,0.16-0.31,0.39-0.09,0.52l5.7,3.29C248.86,322.95,249.26,322.93,249.54,322.77z M240.09,328.22l6.46-3.73
				c0.27-0.16,0.31-0.39,0.09-0.52l-5.7-3.29c-0.23-0.13-0.63-0.11-0.9,0.05l-6.46,3.73c-0.28,0.16-0.31,0.39-0.09,0.52l5.7,3.29
				C239.41,328.4,239.82,328.38,240.09,328.22z M230.64,333.68l6.46-3.73c0.27-0.16,0.31-0.39,0.09-0.52l-5.7-3.29
				c-0.23-0.13-0.63-0.11-0.9,0.05l-6.46,3.73c-0.27,0.16-0.32,0.39-0.09,0.52l5.7,3.29C229.96,333.86,230.37,333.84,230.64,333.68z
				 M278.85,295.49l6.46-3.73c0.27-0.16,0.31-0.39,0.09-0.52l-5.7-3.29c-0.22-0.13-0.63-0.11-0.9,0.05l-6.46,3.73
				c-0.27,0.16-0.32,0.39-0.09,0.52l5.7,3.29C278.17,295.67,278.57,295.65,278.85,295.49z M268.43,311.86l14.42-8.32
				c0.27-0.16,0.31-0.39,0.09-0.52l-14.67-8.47c-0.23-0.13-0.63-0.11-0.9,0.05l-7.46,4.31c-0.27,0.16-0.31,0.39-0.09,0.52l8.15,4.71
				c0.22,0.13,0.18,0.36-0.09,0.52l-5.97,3.44c-0.27,0.16-0.32,0.39-0.09,0.52l5.7,3.29C267.75,312.04,268.15,312.02,268.43,311.86z
				 M225.59,308.37l-6.46,3.73c-0.27,0.16-0.31,0.39-0.09,0.52l5.7,3.29c0.22,0.13,0.63,0.11,0.9-0.05l6.46-3.73
				c0.27-0.16,0.31-0.39,0.09-0.52l-5.7-3.29C226.27,308.19,225.86,308.21,225.59,308.37z M216.14,313.82l-6.46,3.73
				c-0.27,0.16-0.31,0.39-0.09,0.52l5.7,3.29c0.23,0.13,0.63,0.11,0.9-0.05l6.46-3.73c0.27-0.16,0.31-0.39,0.09-0.52l-5.7-3.29
				C216.82,313.64,216.41,313.66,216.14,313.82z M163.62,371.9c0.22,0.13,0.63,0.11,0.9-0.05l6.46-3.73
				c0.27-0.16,0.31-0.39,0.09-0.52l-5.7-3.29c-0.23-0.13-0.63-0.11-0.9,0.05l-6.46,3.73c-0.27,0.16-0.31,0.39-0.09,0.52
				L163.62,371.9z M140.58,357.45l-6.46,3.73c-0.27,0.16-0.32,0.39-0.09,0.52l5.7,3.29c0.23,0.13,0.63,0.11,0.9-0.05l6.46-3.73
				c0.27-0.16,0.31-0.39,0.09-0.52l-5.7-3.29C141.25,357.27,140.85,357.29,140.58,357.45z M152.17,368.16
				c0.22,0.13,0.63,0.11,0.9-0.05l6.46-3.73c0.27-0.16,0.31-0.39,0.09-0.52l-5.7-3.29c-0.23-0.13-0.63-0.11-0.9,0.05l-6.46,3.73
				c-0.27,0.16-0.31,0.39-0.09,0.52L152.17,368.16z M178.46,374.16l6.46-3.73c0.27-0.16,0.32-0.39,0.09-0.52l-5.7-3.29
				c-0.22-0.13-0.63-0.11-0.9,0.05l-6.46,3.73c-0.27,0.16-0.31,0.39-0.09,0.52l5.7,3.29C177.78,374.34,178.19,374.32,178.46,374.16z
				 M168.11,379.66c0.22,0.13,0.63,0.11,0.9-0.05l6.46-3.73c0.27-0.16,0.31-0.39,0.09-0.52l-5.7-3.29c-0.23-0.13-0.63-0.11-0.9,0.05
				l-6.46,3.73c-0.27,0.16-0.31,0.39-0.09,0.52L168.11,379.66z M150.02,352l-6.46,3.73c-0.28,0.16-0.31,0.39-0.09,0.52l5.7,3.29
				c0.22,0.13,0.63,0.11,0.9-0.05l6.46-3.73c0.27-0.16,0.31-0.39,0.09-0.52l-5.7-3.29C150.7,351.81,150.3,351.84,150.02,352z
				 M197.25,324.73l-6.46,3.73c-0.27,0.16-0.31,0.39-0.09,0.52l5.7,3.29c0.23,0.13,0.63,0.11,0.9-0.05l6.46-3.73
				c0.27-0.16,0.31-0.39,0.09-0.52l-5.7-3.29C197.93,324.55,197.52,324.57,197.25,324.73z M159.47,346.54l-6.46,3.73
				c-0.27,0.16-0.31,0.39-0.09,0.52l5.7,3.29c0.22,0.13,0.63,0.11,0.9-0.05l6.46-3.73c0.27-0.16,0.31-0.39,0.09-0.52l-5.7-3.29
				C160.15,346.36,159.74,346.38,159.47,346.54z M206.69,319.28l-6.46,3.73c-0.27,0.16-0.31,0.39-0.09,0.52l5.7,3.29
				c0.23,0.13,0.63,0.11,0.9-0.05l6.46-3.73c0.27-0.16,0.31-0.39,0.09-0.52l-5.7-3.29C207.37,319.09,206.97,319.12,206.69,319.28z
				 M187.8,330.18l-6.46,3.73c-0.27,0.16-0.32,0.39-0.09,0.52l5.7,3.29c0.22,0.13,0.63,0.11,0.9-0.05l6.46-3.73
				c0.27-0.16,0.32-0.39,0.09-0.52l-5.7-3.29C188.48,330,188.08,330.02,187.8,330.18z M178.36,335.64l-6.46,3.73
				c-0.27,0.16-0.32,0.39-0.09,0.52l5.7,3.29c0.22,0.13,0.63,0.11,0.9-0.05l6.46-3.73c0.27-0.16,0.31-0.39,0.09-0.52l-5.7-3.29
				C179.04,335.45,178.63,335.48,178.36,335.64z M168.91,341.09l-6.46,3.73c-0.27,0.16-0.31,0.39-0.09,0.52l5.7,3.29
				c0.23,0.13,0.63,0.11,0.9-0.05l6.46-3.73c0.27-0.16,0.31-0.39,0.09-0.52l-5.7-3.29C169.59,340.91,169.19,340.93,168.91,341.09z
				 M211.75,344.58l6.46-3.73c0.27-0.16,0.32-0.39,0.09-0.52l-5.7-3.29c-0.23-0.13-0.63-0.11-0.9,0.05l-6.46,3.73
				c-0.27,0.16-0.31,0.39-0.09,0.52l5.7,3.29C211.07,344.77,211.48,344.74,211.75,344.58z M300.16,265.31l-6.46,3.73
				c-0.27,0.16-0.31,0.39-0.09,0.52l5.7,3.29c0.22,0.13,0.63,0.11,0.9-0.05l6.46-3.73c0.27-0.16,0.31-0.39,0.09-0.52l-5.7-3.29
				C300.84,265.13,300.43,265.16,300.16,265.31z M288.72,271.92l-6.46,3.73c-0.27,0.16-0.31,0.39-0.09,0.52l5.7,3.29
				c0.22,0.13,0.63,0.11,0.9-0.05l6.46-3.73c0.27-0.16,0.31-0.39,0.09-0.52l-5.7-3.29C289.4,271.73,289,271.76,288.72,271.92z
				 M309.6,259.86l-6.46,3.73c-0.27,0.16-0.31,0.39-0.09,0.52l5.7,3.29c0.22,0.13,0.63,0.11,0.9-0.05l6.46-3.73
				c0.27-0.16,0.32-0.39,0.09-0.52l-5.7-3.29C310.28,259.68,309.88,259.7,309.6,259.86z M256.98,308.12l6.46-3.73
				c0.27-0.16,0.31-0.39,0.09-0.52l-5.7-3.29c-0.22-0.13-0.63-0.11-0.9,0.05l-6.46,3.73c-0.27,0.16-0.31,0.39-0.09,0.52l5.7,3.29
				C256.3,308.3,256.7,308.28,256.98,308.12z M319.95,254.36c-0.22-0.13-0.63-0.11-0.9,0.05l-6.46,3.73
				c-0.27,0.16-0.32,0.39-0.09,0.52l5.7,3.29c0.22,0.13,0.63,0.11,0.9-0.05l6.46-3.73c0.27-0.16,0.32-0.39,0.09-0.52L319.95,254.36z
				 M221.2,339.13l6.46-3.73c0.27-0.16,0.31-0.39,0.09-0.52l-5.7-3.29c-0.23-0.13-0.63-0.11-0.9,0.05l-6.46,3.73
				c-0.27,0.16-0.31,0.39-0.09,0.52l5.7,3.29C220.52,339.31,220.92,339.29,221.2,339.13z M337.03,272.25l6.46-3.73
				c0.27-0.16,0.31-0.39,0.09-0.52l-5.7-3.29c-0.22-0.13-0.63-0.11-0.9,0.05l-6.46,3.73c-0.27,0.16-0.32,0.39-0.09,0.52l5.7,3.29
				C336.35,272.44,336.76,272.41,337.03,272.25z M318.62,272.53l6.46-3.73c0.27-0.16,0.31-0.39,0.09-0.52l-5.7-3.29
				c-0.22-0.13-0.63-0.11-0.9,0.05l-6.46,3.73c-0.27,0.16-0.32,0.39-0.09,0.52l5.7,3.29C317.94,272.71,318.35,272.69,318.62,272.53z
				 M328.92,259.53c-0.22-0.13-0.63-0.11-0.9,0.05l-6.46,3.73c-0.27,0.16-0.31,0.39-0.09,0.52l5.7,3.29
				c0.22,0.13,0.63,0.11,0.9-0.05l6.46-3.73c0.27-0.16,0.32-0.39,0.09-0.52L328.92,259.53z M330.91,258.38l14.67,8.47
				c0.23,0.13,0.63,0.11,0.9-0.05l6.46-3.73c0.27-0.16,0.31-0.39,0.09-0.52l-14.67-8.47c-0.23-0.13-0.63-0.11-0.9,0.05l-6.46,3.73
				C330.72,258.02,330.68,258.25,330.91,258.38z M309.12,270.49l-6.46,3.73c-0.27,0.16-0.32,0.39-0.09,0.52l5.7,3.29
				c0.23,0.13,0.63,0.11,0.9-0.05l6.46-3.73c0.27-0.16,0.31-0.39,0.09-0.52l-5.7-3.29C309.8,270.31,309.4,270.33,309.12,270.49z
				 M238.03,311.54l-6.46,3.73c-0.27,0.16-0.31,0.39-0.09,0.52l5.7,3.29c0.23,0.13,0.63,0.11,0.9-0.05l6.46-3.73
				c0.27-0.16,0.31-0.39,0.09-0.52l-5.7-3.29C238.71,311.35,238.31,311.38,238.03,311.54z M326.68,277.76
				c0.22,0.13,0.63,0.11,0.9-0.05l6.46-3.73c0.27-0.16,0.31-0.39,0.09-0.52l-5.7-3.29c-0.22-0.13-0.63-0.11-0.9,0.05l-6.46,3.73
				c-0.27,0.16-0.32,0.39-0.09,0.52L326.68,277.76z M247.48,306.08l-6.46,3.73c-0.27,0.16-0.31,0.39-0.09,0.52l5.7,3.29
				c0.22,0.13,0.63,0.11,0.9-0.05l6.46-3.73c0.27-0.16,0.31-0.39,0.09-0.52l-5.7-3.29C248.16,305.9,247.75,305.92,247.48,306.08z
				 M173.07,366.45c0.23,0.13,0.63,0.11,0.9-0.05l6.46-3.73c0.27-0.16,0.31-0.39,0.09-0.52l-5.7-3.29c-0.22-0.13-0.63-0.11-0.9,0.05
				l-6.46,3.73c-0.27,0.16-0.31,0.39-0.09,0.52L173.07,366.45z M162.47,355.16l-6.46,3.73c-0.27,0.16-0.31,0.39-0.09,0.52l5.7,3.29
				c0.23,0.13,0.63,0.11,0.9-0.05l6.46-3.73c0.27-0.16,0.31-0.39,0.09-0.52l-5.7-3.29C163.15,354.98,162.74,355,162.47,355.16z
				 M183.42,360.94l6.46-3.73c0.27-0.16,0.32-0.39,0.09-0.52l-5.7-3.29c-0.22-0.13-0.63-0.11-0.9,0.05l-6.46,3.73
				c-0.27,0.16-0.31,0.39-0.09,0.52l5.7,3.29C182.74,361.12,183.14,361.1,183.42,360.94z M192.86,355.49l6.46-3.73
				c0.27-0.16,0.32-0.39,0.09-0.52l-5.7-3.29c-0.22-0.13-0.63-0.11-0.9,0.05l-6.46,3.73c-0.27,0.16-0.32,0.39-0.09,0.52l5.7,3.29
				C192.18,355.67,192.59,355.65,192.86,355.49z M202.31,350.04l6.46-3.73c0.27-0.16,0.31-0.39,0.09-0.52l-5.7-3.29
				c-0.22-0.13-0.63-0.11-0.9,0.05l-6.46,3.73c-0.27,0.16-0.32,0.39-0.09,0.52l5.7,3.29C201.63,350.22,202.03,350.2,202.31,350.04z
				 M171.91,349.71l-6.46,3.73c-0.27,0.16-0.31,0.39-0.09,0.52l5.7,3.29c0.22,0.13,0.63,0.11,0.9-0.05l6.46-3.73
				c0.27-0.16,0.31-0.39,0.09-0.52l-5.7-3.29C172.59,349.53,172.19,349.55,171.91,349.71z M181.36,344.26l-6.46,3.73
				c-0.27,0.16-0.32,0.39-0.09,0.52l5.7,3.29c0.22,0.13,0.63,0.11,0.9-0.05l6.46-3.73c0.27-0.16,0.31-0.39,0.09-0.52l-5.7-3.29
				C182.04,344.07,181.63,344.1,181.36,344.26z M219.14,322.44l-6.46,3.73c-0.27,0.16-0.31,0.39-0.09,0.52l5.7,3.29
				c0.23,0.13,0.63,0.11,0.9-0.05l6.46-3.73c0.27-0.16,0.31-0.39,0.09-0.52l-5.7-3.29C219.82,322.26,219.42,322.28,219.14,322.44z
				 M209.7,327.9l-6.46,3.73c-0.27,0.16-0.32,0.39-0.09,0.52l5.7,3.29c0.22,0.13,0.63,0.11,0.9-0.05l6.46-3.73
				c0.27-0.16,0.32-0.39,0.09-0.52l-5.7-3.29C210.37,327.71,209.97,327.74,209.7,327.9z M228.59,316.99l-6.46,3.73
				c-0.27,0.16-0.31,0.39-0.09,0.52l5.7,3.29c0.23,0.13,0.63,0.11,0.9-0.05l6.46-3.73c0.27-0.16,0.31-0.39,0.09-0.52l-5.7-3.29
				C229.27,316.81,228.86,316.83,228.59,316.99z M190.8,338.8l-6.46,3.73c-0.27,0.16-0.32,0.39-0.09,0.52l5.7,3.29
				c0.22,0.13,0.63,0.11,0.9-0.05l6.46-3.73c0.27-0.16,0.32-0.39,0.09-0.52l-5.7-3.29C191.48,338.62,191.08,338.64,190.8,338.8z
				 M200.25,333.35l-6.46,3.73c-0.27,0.16-0.32,0.39-0.09,0.52l5.7,3.29c0.22,0.13,0.63,0.11,0.9-0.05l6.46-3.73
				c0.27-0.16,0.32-0.39,0.09-0.52l-5.7-3.29C200.93,333.17,200.52,333.19,200.25,333.35z M187.91,368.7l6.46-3.73
				c0.27-0.16,0.31-0.39,0.09-0.52l-5.7-3.29c-0.22-0.13-0.63-0.11-0.9,0.05l-6.46,3.73c-0.27,0.16-0.32,0.39-0.09,0.52l5.7,3.29
				C187.23,368.88,187.63,368.86,187.91,368.7z M137.74,366.14l-5.7-3.29c-0.23-0.13-0.63-0.11-0.9,0.05l-6.46,3.73
				c-0.27,0.16-0.31,0.39-0.09,0.52l5.7,3.29c0.23,0.13,0.63,0.11,0.9-0.05l6.46-3.73C137.92,366.51,137.96,366.27,137.74,366.14z
				 M150.18,369.31l-5.7-3.29c-0.22-0.13-0.63-0.11-0.9,0.05l-9.94,5.74c-0.27,0.16-0.31,0.39-0.09,0.52l5.7,3.29
				c0.23,0.13,0.63,0.11,0.9-0.05l9.94-5.74C150.37,369.67,150.41,369.44,150.18,369.31z M129.34,359.57l-5.7-3.29
				c-0.22-0.13-0.63-0.11-0.9,0.05l-7.95,4.59c-0.27,0.16-0.31,0.39-0.09,0.52l5.7,3.29c0.22,0.13,0.63,0.11,0.9-0.05l7.95-4.59
				C129.53,359.94,129.57,359.7,129.34,359.57z M135.44,356.05c0.22,0.13,0.63,0.11,0.9-0.05l6.46-3.73
				c0.27-0.16,0.32-0.39,0.09-0.52l-5.7-3.29c-0.22-0.13-0.63-0.11-0.9,0.05l-6.46,3.73c-0.28,0.16-0.32,0.39-0.09,0.52
				L135.44,356.05z M161.63,373.05l-5.7-3.29c-0.23-0.13-0.63-0.11-0.9,0.05l-12.43,7.17c-0.27,0.16-0.31,0.39-0.09,0.52l5.7,3.29
				c0.23,0.13,0.63,0.11,0.9-0.05l12.43-7.18C161.82,373.41,161.86,373.18,161.63,373.05z M166.12,380.81l-5.7-3.29
				c-0.22-0.13-0.63-0.11-0.9,0.05l-7.95,4.59c-0.27,0.16-0.32,0.39-0.09,0.52l5.7,3.29c0.22,0.13,0.63,0.11,0.9-0.05l7.95-4.59
				C166.31,381.17,166.35,380.94,166.12,380.81z M205.67,315.51c0.22,0.13,0.63,0.11,0.9-0.05l6.46-3.73
				c0.27-0.16,0.32-0.39,0.09-0.52l-5.7-3.29c-0.23-0.13-0.63-0.11-0.91,0.05l-6.46,3.73c-0.27,0.16-0.32,0.39-0.09,0.52
				L205.67,315.51z M186.78,326.41c0.23,0.13,0.63,0.11,0.9-0.05l6.46-3.73c0.27-0.16,0.31-0.39,0.09-0.52l-5.7-3.29
				c-0.22-0.13-0.63-0.11-0.9,0.05l-6.46,3.73c-0.27,0.16-0.31,0.39-0.09,0.52L186.78,326.41z M144.89,350.6
				c0.23,0.13,0.63,0.11,0.9-0.05l6.46-3.73c0.27-0.16,0.32-0.39,0.09-0.52l-5.7-3.29c-0.22-0.13-0.63-0.11-0.9,0.05l-6.46,3.73
				c-0.27,0.16-0.31,0.39-0.09,0.52L144.89,350.6z M196.22,320.96c0.22,0.13,0.63,0.11,0.9-0.05l6.46-3.73
				c0.27-0.16,0.31-0.39,0.09-0.52l-5.7-3.29c-0.22-0.13-0.63-0.11-0.9,0.05l-6.46,3.73c-0.27,0.16-0.32,0.39-0.09,0.52
				L196.22,320.96z M177.33,331.87c0.23,0.13,0.63,0.11,0.9-0.05l6.46-3.73c0.27-0.16,0.31-0.39,0.09-0.52l-5.7-3.29
				c-0.23-0.13-0.63-0.11-0.9,0.05l-6.46,3.73c-0.27,0.16-0.31,0.39-0.09,0.52L177.33,331.87z M171.38,381.55
				c-0.23-0.13-0.63-0.11-0.9,0.05l-9.94,5.74c-0.27,0.16-0.31,0.39-0.09,0.52l5.7,3.29c0.23,0.13,0.63,0.11,0.9-0.05l9.94-5.74
				c0.27-0.16,0.31-0.39,0.09-0.52L171.38,381.55z M163.78,339.69c0.23,0.13,0.63,0.11,0.9-0.05l6.46-3.73
				c0.27-0.16,0.31-0.39,0.09-0.52l-5.7-3.29c-0.22-0.13-0.63-0.11-0.9,0.05l-6.46,3.73c-0.27,0.16-0.31,0.39-0.09,0.52
				L163.78,339.69z M154.33,345.15c0.23,0.13,0.63,0.11,0.9-0.05l6.46-3.73c0.27-0.16,0.31-0.39,0.09-0.52l-5.7-3.29
				c-0.23-0.13-0.63-0.11-0.9,0.05l-6.46,3.73c-0.27,0.16-0.31,0.39-0.09,0.52L154.33,345.15z M346.37,280.51
				c-0.23-0.13-0.63-0.11-0.9,0.05l-15.91,9.18c-0.27,0.16-0.32,0.39-0.09,0.52l5.7,3.29c0.22,0.13,0.63,0.11,0.9-0.05l15.91-9.18
				c0.27-0.16,0.32-0.39,0.09-0.52L346.37,280.51z M325.49,292.57c-0.22-0.13-0.63-0.11-0.9,0.05l-6.46,3.73
				c-0.27,0.16-0.31,0.39-0.09,0.52l5.7,3.29c0.23,0.13,0.63,0.11,0.9-0.05l6.46-3.73c0.27-0.16,0.31-0.39,0.09-0.52L325.49,292.57z
				 M197.35,363.25l6.46-3.73c0.27-0.16,0.31-0.39,0.09-0.52l-5.7-3.29c-0.23-0.13-0.63-0.11-0.9,0.05l-6.46,3.73
				c-0.27,0.16-0.31,0.39-0.09,0.52l5.7,3.29C196.67,363.43,197.08,363.41,197.35,363.25z M306.6,303.48
				c-0.23-0.13-0.63-0.11-0.9,0.05l-6.46,3.73c-0.27,0.16-0.31,0.39-0.09,0.52l5.7,3.29c0.23,0.13,0.63,0.11,0.9-0.05l6.46-3.73
				c0.27-0.16,0.31-0.39,0.09-0.52L306.6,303.48z M355.82,275.06c-0.23-0.13-0.63-0.11-0.9,0.05l-6.46,3.73
				c-0.27,0.16-0.31,0.39-0.09,0.52l5.7,3.29c0.23,0.13,0.63,0.11,0.9-0.05l6.46-3.73c0.27-0.16,0.31-0.39,0.09-0.52L355.82,275.06z
				 M370.96,272.9l-14.67-8.47c-0.23-0.13-0.63-0.11-0.9,0.05l-6.46,3.73c-0.27,0.16-0.31,0.39-0.09,0.52l14.67,8.47
				c0.23,0.13,0.63,0.11,0.9-0.05l6.46-3.73C371.15,273.26,371.19,273.03,370.96,272.9z M271.3,323.86
				c-0.22-0.13-0.63-0.11-0.9,0.05l-7.95,4.59c-0.27,0.16-0.31,0.39-0.09,0.52l5.7,3.29c0.23,0.13,0.63,0.11,0.9-0.05l7.95-4.59
				c0.27-0.16,0.32-0.39,0.09-0.52L271.3,323.86z M295.16,310.08c-0.23-0.13-0.63-0.11-0.9,0.05l-9.94,5.74
				c-0.27,0.16-0.31,0.39-0.09,0.52l5.7,3.29c0.22,0.13,0.63,0.11,0.9-0.05l9.94-5.74c0.27-0.16,0.31-0.39,0.09-0.52L295.16,310.08z
				 M249.43,336.48c-0.22-0.13-0.63-0.11-0.9,0.05l-53.19,30.71c-0.27,0.16-0.32,0.39-0.09,0.52l5.7,3.29
				c0.22,0.13,0.63,0.11,0.9-0.05l53.19-30.71c0.27-0.16,0.32-0.39,0.09-0.52L249.43,336.48z M193.25,368.92
				c-0.23-0.13-0.63-0.11-0.9,0.05l-7.95,4.59c-0.27,0.16-0.31,0.39-0.09,0.52l5.7,3.29c0.23,0.13,0.63,0.11,0.9-0.05l7.95-4.59
				c0.27-0.16,0.31-0.39,0.09-0.52L193.25,368.92z M260.36,330.17c-0.22-0.13-0.63-0.11-0.9,0.05l-7.95,4.59
				c-0.27,0.16-0.32,0.39-0.09,0.52l5.7,3.29c0.22,0.13,0.63,0.11,0.9-0.05l7.95-4.59c0.27-0.16,0.31-0.39,0.09-0.52L260.36,330.17z
				 M182.31,375.23c-0.22-0.13-0.63-0.11-0.9,0.05l-7.95,4.59c-0.27,0.16-0.31,0.39-0.09,0.52l5.7,3.29
				c0.22,0.13,0.63,0.11,0.9-0.05l7.95-4.59c0.27-0.16,0.32-0.39,0.09-0.52L182.31,375.23z M282.24,317.54
				c-0.23-0.13-0.63-0.11-0.9,0.05l-7.95,4.59c-0.27,0.16-0.31,0.39-0.09,0.52l5.7,3.29c0.22,0.13,0.63,0.11,0.9-0.05l7.95-4.59
				c0.27-0.16,0.31-0.39,0.09-0.52L282.24,317.54z M316.04,298.02c-0.23-0.13-0.63-0.11-0.9,0.05l-6.46,3.73
				c-0.27,0.16-0.31,0.39-0.09,0.52l5.7,3.29c0.22,0.13,0.63,0.11,0.9-0.05l6.46-3.73c0.27-0.16,0.31-0.39,0.09-0.52L316.04,298.02z
				 M336.55,282.88l6.46-3.73c0.27-0.16,0.32-0.39,0.09-0.52l-5.7-3.29c-0.22-0.13-0.63-0.11-0.9,0.05l-6.46,3.73
				c-0.27,0.16-0.31,0.39-0.09,0.52l5.7,3.29C335.87,283.06,336.28,283.04,336.55,282.88z M297.74,284.59l6.46-3.73
				c0.27-0.16,0.31-0.39,0.09-0.52l-5.7-3.29c-0.22-0.13-0.63-0.11-0.9,0.05l-6.46,3.73c-0.28,0.16-0.31,0.39-0.09,0.52l5.7,3.29
				C297.06,284.77,297.47,284.74,297.74,284.59z M272.92,319.62l18.89-10.91c0.27-0.16,0.31-0.39,0.09-0.52l-5.7-3.29
				c-0.22-0.13-0.63-0.11-0.9,0.05l-18.89,10.91c-0.27,0.16-0.31,0.39-0.09,0.52l5.7,3.29C272.24,319.8,272.64,319.78,272.92,319.62
				z M326.2,288.39c0.22,0.13,0.63,0.11,0.9-0.05l6.46-3.73c0.27-0.16,0.32-0.39,0.09-0.52l-5.7-3.29c-0.22-0.13-0.63-0.11-0.9,0.05
				l-6.46,3.73c-0.27,0.16-0.31,0.39-0.09,0.52L326.2,288.39z M318.14,283.16l6.46-3.73c0.27-0.16,0.31-0.39,0.09-0.52l-5.7-3.29
				c-0.22-0.13-0.63-0.11-0.9,0.05l-6.46,3.73c-0.27,0.16-0.32,0.39-0.09,0.52l5.7,3.29C317.46,283.34,317.87,283.32,318.14,283.16z
				 M263.47,325.08l6.46-3.73c0.27-0.16,0.31-0.39,0.09-0.52l-5.7-3.29c-0.22-0.13-0.63-0.11-0.9,0.05l-6.46,3.73
				c-0.27,0.16-0.31,0.39-0.09,0.52l5.7,3.29C262.79,325.26,263.2,325.23,263.47,325.08z M305.32,300.44
				c0.23,0.13,0.63,0.11,0.9-0.05l6.46-3.73c0.27-0.16,0.31-0.39,0.09-0.52l-5.7-3.29c-0.22-0.13-0.63-0.11-0.9,0.05l-6.46,3.73
				c-0.27,0.16-0.31,0.39-0.09,0.52L305.32,300.44z M216.24,352.34l6.46-3.73c0.27-0.16,0.31-0.39,0.09-0.52l-5.7-3.29
				c-0.22-0.13-0.63-0.11-0.9,0.05l-6.46,3.73c-0.27,0.16-0.31,0.39-0.09,0.52l5.7,3.29C215.57,352.52,215.97,352.5,216.24,352.34z
				 M225.69,346.89l6.46-3.73c0.27-0.16,0.31-0.39,0.09-0.52l-5.7-3.29c-0.22-0.13-0.63-0.11-0.9,0.05l-6.46,3.73
				c-0.27,0.16-0.31,0.39-0.09,0.52l5.7,3.29C225.01,347.07,225.42,347.05,225.69,346.89z M206.8,357.8l6.46-3.73
				c0.27-0.16,0.31-0.39,0.09-0.52l-5.7-3.29c-0.23-0.13-0.63-0.11-0.9,0.05l-6.46,3.73c-0.27,0.16-0.31,0.39-0.09,0.52l5.7,3.29
				C206.12,357.98,206.52,357.95,206.8,357.8z M244.58,335.98l6.46-3.73c0.27-0.16,0.32-0.39,0.09-0.52l-5.7-3.29
				c-0.22-0.13-0.63-0.11-0.9,0.05l-6.46,3.73c-0.27,0.16-0.31,0.39-0.09,0.52l5.7,3.29C243.9,336.16,244.31,336.14,244.58,335.98z
				 M235.14,341.44l6.46-3.73c0.27-0.16,0.32-0.39,0.09-0.52l-5.7-3.29c-0.22-0.13-0.63-0.11-0.9,0.05l-6.46,3.73
				c-0.27,0.16-0.31,0.39-0.09,0.52l5.7,3.29C234.46,341.62,234.86,341.59,235.14,341.44z M254.03,330.53l6.46-3.73
				c0.27-0.16,0.31-0.39,0.09-0.52l-5.7-3.29c-0.22-0.13-0.63-0.11-0.9,0.05l-6.46,3.73c-0.27,0.16-0.31,0.39-0.09,0.52l5.7,3.29
				C253.35,330.71,253.75,330.69,254.03,330.53z M306.22,255.04c0.23,0.13,0.63,0.11,0.9-0.05l6.46-3.73
				c0.27-0.16,0.31-0.39,0.09-0.52l-1.52-0.88c-0.22-0.13-0.63-0.11-0.9,0.05l-6.46,3.73c-0.27,0.16-0.31,0.39-0.09,0.52
				L306.22,255.04z M259.1,284.66c0.22,0.13,0.63,0.11,0.9-0.05l6.46-3.73c0.27-0.16,0.31-0.39,0.09-0.52l-5.7-3.29
				c-0.22-0.13-0.63-0.11-0.9,0.05l-6.46,3.73c-0.27,0.16-0.32,0.39-0.09,0.52L259.1,284.66z M277.99,273.75
				c0.22,0.13,0.63,0.11,0.9-0.05l6.46-3.73c0.28-0.16,0.32-0.39,0.09-0.52l-5.7-3.29c-0.22-0.13-0.63-0.11-0.9,0.05l-6.46,3.73
				c-0.27,0.16-0.31,0.39-0.09,0.52L277.99,273.75z M247.56,291.32c0.23,0.13,0.63,0.11,0.9-0.05l6.46-3.73
				c0.27-0.16,0.31-0.39,0.09-0.52l-5.7-3.29c-0.23-0.13-0.63-0.11-0.9,0.05l-6.46,3.73c-0.27,0.16-0.32,0.39-0.09,0.52
				L247.56,291.32z M268.54,279.21c0.22,0.13,0.63,0.11,0.9-0.05l6.46-3.73c0.27-0.16,0.31-0.39,0.09-0.52l-5.7-3.29
				c-0.22-0.13-0.63-0.11-0.9,0.05l-6.46,3.73c-0.27,0.16-0.32,0.39-0.09,0.52L268.54,279.21z M228.67,302.23
				c0.23,0.13,0.63,0.11,0.9-0.05l6.46-3.73c0.27-0.16,0.31-0.39,0.09-0.52l-5.7-3.29c-0.23-0.13-0.63-0.11-0.9,0.05l-6.46,3.73
				c-0.27,0.16-0.31,0.39-0.09,0.52L228.67,302.23z M238.12,296.77c0.23,0.13,0.63,0.11,0.9-0.05l6.46-3.73
				c0.27-0.16,0.31-0.39,0.09-0.52l-5.7-3.29c-0.23-0.13-0.63-0.11-0.9,0.05l-6.46,3.73c-0.27,0.16-0.31,0.39-0.09,0.52
				L238.12,296.77z M287.33,265.95c0.22,0.13,0.63,0.11,0.9-0.05l6.46-3.73c0.27-0.16,0.31-0.39,0.09-0.52l-1.52-0.88
				c-0.22-0.13-0.63-0.11-0.9,0.05l-6.46,3.73c-0.27,0.16-0.32,0.39-0.09,0.52L287.33,265.95z M315.67,249.59
				c0.23,0.13,0.63,0.11,0.9-0.05l6.46-3.73c0.27-0.16,0.31-0.39,0.09-0.52l-1.52-0.88c-0.23-0.13-0.63-0.11-0.9,0.05l-6.46,3.73
				c-0.27,0.16-0.32,0.39-0.09,0.52L315.67,249.59z M327.64,256.5c0.23,0.13,0.63,0.11,0.9-0.05l6.46-3.73
				c0.27-0.16,0.31-0.39,0.09-0.52l-5.7-3.29c-0.22-0.13-0.63-0.11-0.9,0.05l-6.46,3.73c-0.27,0.16-0.31,0.39-0.09,0.52
				L327.64,256.5z M346,277.43l6.46-3.73c0.27-0.16,0.32-0.39,0.09-0.52l-5.7-3.29c-0.22-0.13-0.63-0.11-0.9,0.05l-6.46,3.73
				c-0.27,0.16-0.31,0.39-0.09,0.52l5.7,3.29C345.32,277.61,345.72,277.59,346,277.43z M296.78,260.49c0.23,0.13,0.63,0.11,0.9-0.05
				l6.46-3.73c0.27-0.16,0.31-0.39,0.09-0.52l-1.52-0.88c-0.22-0.13-0.63-0.11-0.9,0.05l-6.46,3.73c-0.27,0.16-0.31,0.39-0.09,0.52
				L296.78,260.49z M219.22,307.68c0.22,0.13,0.63,0.11,0.9-0.05l6.46-3.73c0.27-0.16,0.32-0.39,0.09-0.52l-5.7-3.29
				c-0.22-0.13-0.63-0.11-0.9,0.05l-6.46,3.73c-0.27,0.16-0.31,0.39-0.09,0.52L219.22,307.68z"/>
		</g>
		<g>
			<polygon id="XMLID_8035_" style="fill:#263238;" points="248.14,356.46 249.47,357.22 284.67,377.54 347.26,341.4 348.56,340.66 
				312.04,319.58 			"/>
			<polygon style="fill:#37474F;" points="346.68,341.74 312.04,321.76 250.05,357.56 284.67,377.54 			"/>
		</g>
	</g>
</g>
<g id="Browser">
	<g id="Www">
		<g id="www">
			<g>
				<path style="fill:#27DEBF;" d="M386.22,63.42c0-2.63-0.92-4.49-2.41-5.37c-1.51-0.89-10.23-5.92-11.75-6.78
					c-1.5-0.86-3.57-0.73-5.86,0.59l-163.26,94.26l0,54.03l11.7,6.75l163.26-94.26c4.59-2.65,8.31-9.1,8.31-14.4L386.22,63.42z"/>
				<path style="opacity:0.15;" d="M386.22,63.42c0-2.63-0.92-4.49-2.41-5.37c-1.51-0.89-10.23-5.92-11.75-6.78
					c-1.5-0.86-3.57-0.73-5.86,0.59l-163.26,94.26l0,54.03l11.7,6.75l163.26-94.26c4.59-2.65,8.31-9.1,8.31-14.4L386.22,63.42z"/>
				<path style="fill:#27DEBF;" d="M377.9,58.62c4.59-2.65,8.31-0.5,8.31,4.8l0,34.83c0,5.3-3.72,11.75-8.31,14.4l-163.26,94.26
					l0-54.03L377.9,58.62z"/>
				<path style="fill:#FAFAFA;" d="M376.23,108.2c3.08-1.78,5.6-6.15,5.6-9.71l0-32.18c0-2.54-1.8-3.57-3.99-2.31l-159.9,92.39
					v43.26L376.23,108.2z"/>
			</g>
			<g>
				<path style="fill:#455A64;" d="M245.8,172.98c0,0.25-0.06,0.5-0.18,0.74c-0.12,0.25-0.26,0.42-0.42,0.51l-2.76,1.59
					c-0.16,0.09-0.3,0.08-0.42-0.03c-0.12-0.11-0.17-0.29-0.17-0.54v-8.54c0-0.97-0.15-1.66-0.46-2.06
					c-0.31-0.41-0.79-0.42-1.45-0.04c-0.66,0.38-1.14,0.95-1.44,1.71c-0.3,0.76-0.45,1.62-0.45,2.59v8.54c0,0.25-0.06,0.5-0.18,0.74
					c-0.12,0.25-0.25,0.42-0.42,0.51l-2.76,1.59c-0.16,0.09-0.3,0.08-0.42-0.03c-0.12-0.11-0.18-0.29-0.18-0.54v-22.14
					c0-0.25,0.06-0.5,0.18-0.74c0.12-0.25,0.25-0.42,0.42-0.51l2.76-1.59c0.16-0.09,0.3-0.08,0.42,0.03
					c0.12,0.11,0.18,0.29,0.18,0.54v7.19c0.25-0.62,0.64-1.29,1.16-2.04c0.53-0.74,1.13-1.31,1.82-1.71c0.7-0.4,1.34-0.62,1.93-0.66
					c0.58-0.03,1.08,0.14,1.5,0.53c0.42,0.39,0.74,1,0.97,1.83c0.23,0.83,0.35,1.91,0.35,3.24V172.98z"/>
				<path style="fill:#455A64;" d="M253.39,162.66c0,0.52,0.07,0.88,0.22,1.07c0.15,0.2,0.39,0.2,0.72,0l1.75-1.01
					c0.16-0.09,0.3-0.08,0.42,0.03c0.12,0.11,0.17,0.29,0.17,0.54v3.41c0,0.25-0.06,0.5-0.17,0.74c-0.12,0.25-0.26,0.42-0.42,0.51
					l-2.08,1.2c-0.69,0.4-1.31,0.61-1.88,0.63s-1.04-0.14-1.44-0.49c-0.39-0.35-0.7-0.87-0.92-1.56c-0.22-0.69-0.33-1.56-0.33-2.59
					v-5.67l-1.62,0.94c-0.16,0.09-0.3,0.08-0.42-0.03c-0.12-0.11-0.17-0.29-0.17-0.54v-3.41c0-0.25,0.06-0.5,0.17-0.74
					c0.12-0.25,0.26-0.42,0.42-0.51l1.62-0.94v-5.5c0-0.25,0.06-0.5,0.17-0.74c0.12-0.25,0.26-0.42,0.42-0.51l2.76-1.59
					c0.16-0.09,0.3-0.08,0.42,0.03c0.12,0.11,0.17,0.29,0.17,0.54v5.5l2.48-1.43c0.16-0.09,0.3-0.08,0.42,0.03
					c0.12,0.11,0.17,0.29,0.17,0.54v3.41c0,0.25-0.06,0.5-0.17,0.74c-0.12,0.25-0.26,0.42-0.42,0.51l-2.48,1.43V162.66z"/>
				<path style="fill:#455A64;" d="M263.78,156.66c0,0.52,0.07,0.88,0.22,1.07c0.15,0.2,0.39,0.2,0.72,0l1.75-1.01
					c0.16-0.09,0.3-0.08,0.42,0.03c0.12,0.11,0.17,0.29,0.17,0.54v3.41c0,0.25-0.06,0.5-0.17,0.74c-0.12,0.25-0.26,0.42-0.42,0.51
					l-2.08,1.2c-0.69,0.4-1.31,0.61-1.88,0.63c-0.56,0.02-1.04-0.14-1.44-0.49c-0.39-0.35-0.7-0.87-0.92-1.56
					c-0.22-0.7-0.33-1.56-0.33-2.6v-5.67l-1.62,0.94c-0.16,0.09-0.3,0.08-0.42-0.03c-0.12-0.11-0.17-0.29-0.17-0.54v-3.41
					c0-0.25,0.06-0.49,0.17-0.74c0.12-0.25,0.26-0.42,0.42-0.51l1.62-0.94v-5.5c0-0.25,0.06-0.49,0.17-0.74
					c0.12-0.25,0.26-0.42,0.42-0.51l2.76-1.59c0.16-0.09,0.3-0.08,0.42,0.03c0.12,0.11,0.17,0.29,0.17,0.54v5.5l2.48-1.43
					c0.16-0.09,0.3-0.08,0.42,0.03c0.12,0.11,0.17,0.29,0.17,0.54v3.41c0,0.25-0.06,0.5-0.17,0.74c-0.12,0.25-0.26,0.42-0.42,0.51
					l-2.48,1.43V156.66z"/>
				<path style="fill:#455A64;" d="M275.82,156.9c-0.42,0.25-0.8,0.39-1.12,0.44c-0.32,0.05-0.6,0.04-0.83-0.03
					c-0.23-0.07-0.43-0.17-0.59-0.32c-0.16-0.14-0.29-0.29-0.39-0.43v7.19c0,0.25-0.06,0.5-0.18,0.74
					c-0.12,0.25-0.26,0.42-0.42,0.51l-2.76,1.6c-0.16,0.09-0.3,0.08-0.42-0.03c-0.12-0.11-0.18-0.29-0.18-0.54v-22.14
					c0-0.25,0.06-0.49,0.18-0.74c0.12-0.25,0.26-0.42,0.42-0.51l2.65-1.53c0.16-0.09,0.3-0.08,0.42,0.03
					c0.12,0.11,0.17,0.29,0.17,0.54v0.78c0.13-0.3,0.27-0.62,0.43-0.95c0.15-0.34,0.34-0.67,0.57-0.99c0.23-0.32,0.5-0.64,0.83-0.95
					c0.33-0.31,0.74-0.61,1.22-0.89c0.66-0.38,1.28-0.59,1.86-0.62c0.58-0.03,1.1,0.14,1.53,0.53c0.44,0.39,0.79,0.99,1.06,1.8
					c0.27,0.81,0.42,1.87,0.45,3.18c0.01,0.33,0.02,0.78,0.02,1.35c0,0.57-0.01,1.03-0.02,1.38c-0.03,1.34-0.18,2.58-0.45,3.7
					c-0.27,1.12-0.62,2.13-1.06,3.03c-0.44,0.89-0.95,1.67-1.53,2.32C277.1,156,276.47,156.52,275.82,156.9z M276.8,148.16
					c0.04-0.65,0.04-1.29,0-1.89c-0.04-0.76-0.21-1.35-0.5-1.77c-0.29-0.41-0.78-0.43-1.47-0.03c-0.32,0.19-0.6,0.43-0.83,0.72
					c-0.23,0.29-0.43,0.61-0.58,0.96c-0.15,0.35-0.27,0.7-0.36,1.07c-0.09,0.37-0.15,0.72-0.17,1.08c-0.03,0.35-0.04,0.76-0.04,1.21
					c0,0.45,0.01,0.83,0.04,1.16c0.03,0.32,0.09,0.61,0.17,0.88c0.09,0.26,0.21,0.48,0.36,0.65c0.15,0.17,0.35,0.27,0.58,0.29
					c0.23,0.02,0.51-0.06,0.83-0.24c0.69-0.4,1.18-0.97,1.47-1.72C276.59,149.76,276.76,148.97,276.8,148.16z"/>
				<path style="fill:#455A64;" d="M286.82,137.48c0,0.25-0.06,0.5-0.17,0.74c-0.12,0.25-0.26,0.42-0.42,0.51l-2.87,1.66
					c-0.16,0.09-0.3,0.08-0.42-0.03c-0.12-0.11-0.17-0.29-0.17-0.54v-4.42c0-0.25,0.06-0.49,0.17-0.74
					c0.12-0.25,0.25-0.42,0.42-0.51l2.87-1.66c0.16-0.09,0.3-0.08,0.42,0.03c0.12,0.11,0.17,0.29,0.17,0.54V137.48z M286.82,149.3
					c0,0.25-0.06,0.49-0.17,0.74c-0.12,0.25-0.26,0.42-0.42,0.51l-2.87,1.66c-0.16,0.09-0.3,0.08-0.42-0.03
					c-0.12-0.11-0.17-0.29-0.17-0.54v-4.42c0-0.25,0.06-0.5,0.17-0.74c0.12-0.25,0.25-0.42,0.42-0.51l2.87-1.66
					c0.16-0.09,0.3-0.08,0.42,0.03c0.12,0.11,0.17,0.29,0.17,0.54V149.3z"/>
				<path style="fill:#455A64;" d="M295.94,119.42c0.07-0.29,0.18-0.58,0.33-0.88c0.15-0.3,0.36-0.53,0.64-0.69l2.72-1.57
					c0.13-0.08,0.24-0.07,0.34,0.02c0.09,0.09,0.14,0.24,0.14,0.44c0,0.09-0.01,0.2-0.04,0.33l-7.39,31.57
					c-0.06,0.26-0.16,0.54-0.31,0.85c-0.15,0.31-0.37,0.55-0.66,0.72l-2.67,1.54c-0.13,0.08-0.25,0.07-0.34-0.02
					c-0.1-0.09-0.14-0.24-0.14-0.44c0-0.09,0.01-0.2,0.04-0.33L295.94,119.42z"/>
				<path style="fill:#455A64;" d="M303.46,115.08c0.07-0.29,0.18-0.58,0.33-0.88c0.15-0.3,0.36-0.53,0.64-0.69l2.72-1.57
					c0.13-0.08,0.24-0.07,0.34,0.02c0.09,0.09,0.14,0.24,0.14,0.44c0,0.09-0.01,0.2-0.04,0.33l-7.39,31.57
					c-0.06,0.26-0.16,0.54-0.31,0.85c-0.15,0.31-0.37,0.55-0.66,0.72l-2.68,1.54c-0.13,0.08-0.24,0.07-0.34-0.02
					c-0.1-0.09-0.14-0.24-0.14-0.44c0-0.09,0.01-0.2,0.04-0.33L303.46,115.08z"/>
				<path style="fill:#455A64;" d="M317.95,114.68c0.22-0.13,0.39-0.13,0.5-0.02c0.12,0.11,0.2,0.25,0.24,0.4l1.62,6.73l1.62-8.6
					c0.04-0.21,0.12-0.43,0.24-0.68c0.12-0.25,0.28-0.44,0.5-0.56l2.72-1.57c0.15-0.08,0.27-0.08,0.37,0.02
					c0.1,0.1,0.15,0.26,0.15,0.49c0,0.09-0.01,0.18-0.02,0.28l-3.49,17.64c-0.04,0.23-0.12,0.46-0.23,0.71
					c-0.11,0.24-0.27,0.43-0.49,0.56l-2.5,1.44c-0.22,0.13-0.38,0.13-0.48,0.01c-0.1-0.12-0.18-0.27-0.24-0.43l-1.56-6.19
					l-1.56,7.99c-0.06,0.24-0.14,0.47-0.24,0.71c-0.1,0.24-0.26,0.42-0.48,0.55l-2.5,1.44c-0.22,0.13-0.38,0.13-0.49,0.01
					c-0.11-0.12-0.19-0.26-0.23-0.44l-3.49-13.62c-0.01-0.08-0.02-0.17-0.02-0.26c0-0.22,0.05-0.45,0.15-0.66
					c0.1-0.22,0.23-0.37,0.37-0.45l2.72-1.57c0.22-0.13,0.39-0.13,0.5-0.02c0.12,0.11,0.2,0.25,0.24,0.4l1.62,6.73l1.62-8.6
					c0.04-0.21,0.12-0.43,0.24-0.68c0.12-0.25,0.29-0.44,0.5-0.56L317.95,114.68z"/>
				<path style="fill:#455A64;" d="M336.94,103.72c0.22-0.13,0.39-0.13,0.5-0.02c0.12,0.11,0.2,0.25,0.24,0.4l1.62,6.72l1.62-8.6
					c0.04-0.2,0.12-0.43,0.24-0.68c0.12-0.25,0.29-0.44,0.5-0.56l2.72-1.57c0.15-0.08,0.27-0.08,0.37,0.02
					c0.1,0.1,0.15,0.26,0.15,0.49c0,0.09-0.01,0.18-0.02,0.28l-3.49,17.64c-0.04,0.23-0.12,0.46-0.23,0.71
					c-0.11,0.24-0.27,0.43-0.49,0.56l-2.5,1.44c-0.22,0.13-0.38,0.13-0.48,0.01c-0.1-0.12-0.18-0.27-0.24-0.43l-1.56-6.19
					l-1.56,7.99c-0.06,0.24-0.14,0.47-0.24,0.71c-0.1,0.24-0.26,0.42-0.48,0.55l-2.5,1.44c-0.22,0.13-0.38,0.13-0.49,0.01
					c-0.11-0.12-0.19-0.26-0.23-0.44l-3.49-13.62c-0.01-0.08-0.02-0.17-0.02-0.26c0-0.22,0.05-0.45,0.15-0.66
					c0.1-0.22,0.23-0.37,0.37-0.45l2.72-1.57c0.22-0.13,0.39-0.13,0.5-0.02s0.2,0.25,0.24,0.4l1.62,6.72l1.62-8.6
					c0.04-0.21,0.12-0.43,0.24-0.68c0.12-0.25,0.28-0.44,0.5-0.56L336.94,103.72z"/>
				<path style="fill:#455A64;" d="M355.92,92.76c0.22-0.13,0.39-0.13,0.5-0.02c0.12,0.11,0.2,0.25,0.24,0.4l1.62,6.73l1.62-8.6
					c0.04-0.2,0.12-0.43,0.24-0.68c0.12-0.25,0.28-0.43,0.5-0.56l2.72-1.57c0.15-0.08,0.27-0.08,0.37,0.02
					c0.1,0.1,0.15,0.26,0.15,0.49c0,0.09-0.01,0.18-0.02,0.28l-3.49,17.64c-0.04,0.23-0.12,0.46-0.23,0.71
					c-0.11,0.24-0.27,0.43-0.49,0.55l-2.5,1.44c-0.22,0.13-0.38,0.13-0.48,0.01c-0.1-0.12-0.18-0.27-0.24-0.43l-1.56-6.19
					l-1.56,7.99c-0.06,0.24-0.14,0.47-0.24,0.71c-0.1,0.24-0.26,0.42-0.48,0.55l-2.5,1.44c-0.22,0.13-0.38,0.13-0.49,0.01
					c-0.11-0.12-0.19-0.26-0.23-0.44l-3.49-13.62c-0.01-0.08-0.02-0.17-0.02-0.26c0-0.22,0.05-0.45,0.15-0.66
					c0.1-0.22,0.23-0.37,0.37-0.45l2.72-1.57c0.22-0.13,0.39-0.13,0.5-0.02c0.12,0.11,0.2,0.25,0.24,0.4l1.62,6.73l1.62-8.6
					c0.04-0.21,0.12-0.43,0.24-0.68c0.12-0.25,0.29-0.43,0.5-0.56L355.92,92.76z"/>
				<path style="fill:#455A64;" d="M368.75,101.99c0,0.25-0.06,0.5-0.18,0.74c-0.12,0.25-0.26,0.42-0.42,0.51l-2.87,1.66
					c-0.16,0.09-0.3,0.08-0.42-0.03c-0.12-0.11-0.17-0.29-0.17-0.54v-4.42c0-0.25,0.06-0.5,0.17-0.74c0.12-0.25,0.26-0.42,0.42-0.51
					l2.87-1.66c0.16-0.09,0.3-0.08,0.42,0.03c0.12,0.11,0.18,0.29,0.18,0.54V101.99z"/>
			</g>
		</g>
		<g id="World">
			<g id="Check_1_">
				<g id="Circle_1_">
					<path id="XMLID_306_" style="fill:#37474F;" d="M207.44,137.15L207.44,137.15l-0.08-0.05c0,0-0.01,0-0.01-0.01l-20.01-11.88
						c-0.01,0-0.01-0.01-0.02-0.01l-0.11-0.07l0,0c-8.81-5.31-20.57-4.47-33.21,3.78c-25.41,16.59-44.76,56.82-43.24,89.87
						c0.76,16.47,6.57,28.04,15.34,33.46l0,0l0.08,0.05c0,0,0.01,0,0.01,0.01l20.01,11.88c0,0,0.01,0,0.01,0l0.09,0.06l0,0
						c8.81,5.33,20.58,4.49,33.24-3.77c25.41-16.59,44.76-56.82,43.24-89.87C222.03,154.14,216.22,142.57,207.44,137.15z"/>
					<path id="XMLID_302_" style="fill:#263238;" d="M145.57,263.78L126.2,252.3c-0.01,0-0.01,0-0.01,0l-0.08-0.06
						c-8.77-5.43-14.58-17-15.34-33.44c-0.68-14.74,2.8-30.89,9.1-45.74l0.13-0.33l19.89,12.2c-6.31,14.84-9.78,31-9.1,45.74
						C131.52,246.79,137.1,258.22,145.57,263.78z"/>
					<path id="XMLID_297_" style="fill:#455A64;" d="M179.55,260.47c25.41-16.59,44.76-56.82,43.24-89.87
						c-1.52-33.04-23.36-46.38-48.76-29.79c-25.41,16.59-44.76,56.82-43.24,89.87C132.31,263.72,154.14,277.06,179.55,260.47z"/>
				</g>
			</g>
			<g>
				<g>
					<path style="fill:#27DEBF;" d="M165.21,251.75c-3.4,0-6.6-0.82-9.47-2.48c-8-4.6-12.59-15.16-12.59-28.96
						c0-25.39,15.43-55.02,34.4-66.05c8.63-5.02,17.05-5.66,23.73-1.82c8,4.6,12.59,15.16,12.59,28.96
						c0,25.39-15.43,55.02-34.4,66.05C174.56,250.31,169.71,251.75,165.21,251.75z M191.8,153.8c-3.83,0-8.03,1.26-12.33,3.77
						c-17.92,10.42-32.5,38.57-32.5,62.75c0,12.39,3.89,21.74,10.67,25.64c5.44,3.13,12.51,2.49,19.9-1.81
						c17.92-10.43,32.5-38.57,32.5-62.75c0-12.39-3.89-21.74-10.67-25.64C197.1,154.45,194.55,153.8,191.8,153.8z"/>
				</g>
				<g>
					<g>
						<path style="fill:#27DEBF;" d="M165.2,188.27c-4.21,0-8.08-1.31-11.42-3.93l1.77-2.26c5.84,4.58,13.74,4.38,22.24-0.56
							c8.8-5.12,17.07-14.61,23.29-26.71l2.55,1.31c-6.46,12.58-15.13,22.48-24.4,27.88C174.34,186.84,169.59,188.27,165.2,188.27z"
							/>
					</g>
					<g>
						<path style="fill:#27DEBF;" d="M155.94,246.9l-2.55-1.31c6.46-12.58,15.13-22.48,24.4-27.87c9.58-5.57,18.62-5.69,25.45-0.34
							l-1.77,2.26c-5.85-4.58-13.74-4.38-22.24,0.56C170.43,225.31,162.16,234.8,155.94,246.9z"/>
					</g>
				</g>
				<g>
					<path style="fill:#27DEBF;" d="M174.81,248.33c-1.33,0-2.63-0.36-3.87-1.07c-6.74-3.88-10.93-17.85-10.93-36.47
						c0-25.66,7.81-50.31,17.79-56.11c2.82-1.64,5.69-1.72,8.3-0.22c6.74,3.88,10.93,17.85,10.93,36.47
						c0,25.66-7.81,50.31-17.79,56.11C177.75,247.89,176.27,248.33,174.81,248.33z M182.21,156.25c-0.96,0-1.94,0.3-2.97,0.9
						c-8.87,5.16-16.36,29.72-16.36,53.63c0,19.7,4.77,31.26,9.49,33.98c1.71,0.99,3.49,0.92,5.43-0.21
						c8.87-5.16,16.36-29.72,16.36-53.63c0-19.7-4.77-31.26-9.49-33.98C183.86,156.48,183.04,156.25,182.21,156.25z"/>
				</g>
				<g>
					<rect x="177.08" y="155.92" style="fill:#27DEBF;" width="2.87" height="89.88"/>
				</g>
				<g>
					
						<rect x="139.81" y="199.42" transform="matrix(0.8643 -0.5029 0.5029 0.8643 -76.7989 117.0334)" style="fill:#27DEBF;" width="77.4" height="2.87"/>
				</g>
			</g>
		</g>
	</g>
</g>
<g id="Cursor_1_">
	<g id="Cursor">
		<g>
			<path style="fill:#27DEBF;" d="M412.59,137.48c-0.33-0.69-0.75-1.13-1.19-1.39l0.01,0l0,0l-2.98-1.72l0,0.01
				c-1.3-0.75-2.88-0.01-3.72,0.51l-1.86-1.07v0c-2.26-1.36-5.4,1.49-6.1,2.17l-0.8-0.46l0,0c-1.06-0.64-2.51-0.24-3.79,0.41v-10.84
				c0-1.19-0.41-2.03-1.07-2.44l0,0l-0.03-0.02c-0.02-0.01-0.03-0.02-0.05-0.03l-2.93-1.69c0,0,0,0-0.01,0l-0.02-0.01l0,0
				c-0.69-0.38-1.64-0.32-2.68,0.28c-2.11,1.22-3.83,4.19-3.83,6.63V161c-0.15-0.07-0.3-0.14-0.46-0.21
				c-2.61-1.84-5.36-2.94-7.78-2.51c-2.31,0.41-4.38,2.38-4.98,3.44c-1.27,2.23,0.82,3.63,3.51,6.71c2.67,3.05,5.02,6.72,7.44,8.98
				c2.43,2.26,4.19,2.85,4.19,2.85v4.34l2.95,1.71l22.48-12.98v-4.34c0,0,2.79-11.12,3.68-15.77
				C413.48,148.57,414.31,141.05,412.59,137.48z"/>
			<path style="opacity:0.8;fill:#FFFFFF;" d="M412.59,137.48c-0.33-0.69-0.75-1.13-1.19-1.39l0.01,0l0,0l-2.98-1.72l0,0.01
				c-1.3-0.75-2.88-0.01-3.72,0.51l-1.86-1.07v0c-2.26-1.36-5.4,1.49-6.1,2.17l-0.8-0.46l0,0c-1.06-0.64-2.51-0.24-3.79,0.41v-10.84
				c0-1.19-0.41-2.03-1.07-2.44l0,0l-0.03-0.02c-0.02-0.01-0.03-0.02-0.05-0.03l-2.93-1.69c0,0,0,0-0.01,0l-0.02-0.01l0,0
				c-0.69-0.38-1.64-0.32-2.68,0.28c-2.11,1.22-3.83,4.19-3.83,6.63V161c-0.15-0.07-0.3-0.14-0.46-0.21
				c-2.61-1.84-5.36-2.94-7.78-2.51c-2.31,0.41-4.38,2.38-4.98,3.44c-1.27,2.23,0.82,3.63,3.51,6.71c2.67,3.05,5.02,6.72,7.44,8.98
				c2.43,2.26,4.19,2.85,4.19,2.85v4.34l2.95,1.71l22.48-12.98v-4.34c0,0,2.79-11.12,3.68-15.77
				C413.48,148.57,414.31,141.05,412.59,137.48z"/>
		</g>
		<path style="opacity:0.2;fill:#27DEBF;" d="M392.16,135.97v3.68c0,0,0,0,0.01-0.01c0.12-0.1,1.39-1.2,2.89-1.98L392.16,135.97z
			 M405.74,134.37c-0.4,0.16-0.75,0.34-1.03,0.51l0.95,0.56c0.53,0.27,1.01,0.77,1.41,1.55c0,0,0.73-0.59,1.7-0.95L405.74,134.37z
			 M398.74,134.4c-0.94,0.59-1.69,1.28-2,1.58l1.95,1.13c0.03,0.02,0.08,0.03,0.11,0.06c0.28,0.14,0.53,0.36,0.75,0.66
			c0,0,0,0,0.01-0.01c0.09-0.09,0.93-0.95,2.07-1.68L398.74,134.4z M381.55,127.81V161c0.99,0.48,1.98,1.1,2.96,1.82v-33.31
			L381.55,127.81z M392.14,135.96l0.01,0.01v-0.03L392.14,135.96z M382.24,179.11c-2.43-2.26-4.78-5.93-7.44-8.98
			c-2.52-2.89-4.53-4.3-3.7-6.31l-2.96-1.71c-0.82,2.01,1.17,3.42,3.7,6.32c2.67,3.04,5.01,6.71,7.44,8.98
			c2.43,2.26,4.19,2.85,4.19,2.85v4.34l2.96,1.71v-4.34C386.43,181.97,384.67,181.38,382.24,179.11z"/>
		<path style="opacity:0.1;" d="M392.16,135.97v3.68c0,0,0,0,0.01-0.01c0.12-0.1,1.39-1.2,2.89-1.98L392.16,135.97z M405.74,134.37
			c-0.4,0.16-0.75,0.34-1.03,0.51l0.95,0.56c0.53,0.27,1.01,0.77,1.41,1.55c0,0,0.73-0.59,1.7-0.95L405.74,134.37z M398.74,134.4
			c-0.94,0.59-1.69,1.28-2,1.58l1.95,1.13c0.03,0.02,0.08,0.03,0.11,0.06c0.28,0.14,0.53,0.36,0.75,0.66c0,0,0,0,0.01-0.01
			c0.09-0.09,0.93-0.95,2.07-1.68L398.74,134.4z M381.55,127.81V161c0.99,0.48,1.98,1.1,2.96,1.82v-33.31L381.55,127.81z
			 M392.14,135.96l0.01,0.01v-0.03L392.14,135.96z M382.24,179.11c-2.43-2.26-4.78-5.93-7.44-8.98c-2.52-2.89-4.53-4.3-3.7-6.31
			l-2.96-1.71c-0.82,2.01,1.17,3.42,3.7,6.32c2.67,3.04,5.01,6.71,7.44,8.98c2.43,2.26,4.19,2.85,4.19,2.85v4.34l2.96,1.71v-4.34
			C386.43,181.97,384.67,181.38,382.24,179.11z"/>
		<g>
			<path id="XMLID_8048_" style="fill:#27DEBF;" d="M386.43,186.31v-4.34c0,0-1.76-0.59-4.19-2.85c-2.43-2.26-4.78-5.94-7.44-8.98
				c-2.69-3.08-4.78-4.48-3.51-6.71c0.6-1.06,2.67-3.03,4.98-3.44c2.57-0.46,5.49,0.8,8.24,2.84v-33.31c0-2.44,1.71-5.41,3.83-6.63
				l0,0c2.11-1.22,3.83-0.23,3.83,2.21v14.55c0,0,5.27-4.68,7.4-1.81c0,0,5.18-5.43,7.52-0.84c0,0,3.8-3.07,5.52,0.49
				c1.71,3.56,0.89,11.09,0,15.74c-0.89,4.65-3.68,15.77-3.68,15.77v4.34L386.43,186.31z"/>
			<path id="XMLID_272_" style="opacity:0.65;fill:#FFFFFF;" d="M386.43,186.31v-4.34c0,0-1.76-0.59-4.19-2.85
				c-2.43-2.26-4.78-5.94-7.44-8.98c-2.69-3.08-4.78-4.48-3.51-6.71c0.6-1.06,2.67-3.03,4.98-3.44c2.57-0.46,5.49,0.8,8.24,2.84
				v-33.31c0-2.44,1.71-5.41,3.83-6.63l0,0c2.11-1.22,3.83-0.23,3.83,2.21v14.55c0,0,5.27-4.68,7.4-1.81c0,0,5.18-5.43,7.52-0.84
				c0,0,3.8-3.07,5.52,0.49c1.71,3.56,0.89,11.09,0,15.74c-0.89,4.65-3.68,15.77-3.68,15.77v4.34L386.43,186.31z"/>
		</g>
		<g id="XMLID_8042_" style="opacity:0.1;">
			<path id="XMLID_8045_" d="M392.15,145.89c0,0,0.48-6.64,2.92-8.22c0,0-0.04,0.01-0.09,0.03c-1.55,0.81-2.83,1.94-2.83,1.94v-0.13
				c-0.03,0.08,0,0.13,0,0.13V145.89z"/>
			<path id="XMLID_8044_" d="M399.56,137.83v6.07c0,0,0.67-6.24,2.07-7.75C400.44,136.91,399.56,137.83,399.56,137.83z"/>
			<path id="XMLID_8043_" d="M407.07,136.99L407.07,136.99v6.1c0,0,0.37-6.14,1.69-7.05C407.81,136.4,407.08,136.99,407.07,136.99z"
				/>
		</g>
	</g>
</g>
<g id="Character_1_">
	<g id="Character">
		<path id="Shadow_13_" style="opacity:0.15;" d="M336.53,311.4c-17.27,8.61-25.11,17.65-16.17,23.98
			c8.94,6.34,33.27,14.91,33.27,14.91l3.19,10.72l35.35-20.41v-12.14c0,0-21.81-15.04-30.32-17.93
			C353.32,307.65,346.65,306.36,336.53,311.4z"/>
		<g id="Character_7_">
			<g>
				<g>
					<path id="XMLID_29003_" style="fill:#FFA8A7;" d="M385.26,366.13c0,0-5.34,13.08-5.61,18.25c-0.28,5.38-1.58,7.16-0.67,13.01
						c0.2,1.27,0.87,3.83,1.03,4.86c0.15,0.92-0.2,1.66-1.38,1.91c-2.33,0.48-6.21-3.9-8.05-8.67c-1.84-4.77-4.46-15.53-4.62-16.82
						c-0.16-1.24,0.26-2.79,0.74-3.76c0.85-1.71,1.07-1.95,1.07-1.95c0.77-2.34,1.14-6.79,1.79-9.87L385.26,366.13z"/>
					<g>
						<path style="fill:#263238;" d="M361.4,383.57c0,0-0.59,1.07-0.62,1.76c-0.06,1.07,2.37,4.61,3.32,5.89
							c0.95,1.29,1.88,2.9,1.75,6.11c-0.14,3.43,1.38,6.74,3.59,9.57c2.22,2.83,6.07,5.93,11.73,7.68c5.67,1.74,7.66-1.1,7.66-1.1
							s1.76-2.73,0.7-3.85C388.47,408.52,361.4,383.57,361.4,383.57z"/>
						<path id="XMLID_29002_" style="fill:#455A64;" d="M367.77,372.95c-0.17-0.01-0.48-0.06-0.92,0.48
							c-0.17,0.2-1.2,2.75-2.06,4.09c-0.92,1.43-3.11,3.88-3.4,6.05c1.31,4.2,5.25,7.12,5.84,11.09c0.59,3.96,0.66,8.57,6.75,13.42
							c6.09,4.85,12.36,5.35,14.61,4.07c2.25-1.28,2.05-3.7-1.09-8.29c-3.33-4.88-5.58-15.44-5.58-15.45
							c-0.31-1.46-0.47-3.01-0.59-4.49c-0.11-1.45,0.31-2.99,0.42-4.45c0.05-0.69,0.08-1.43-0.28-2.01
							c-0.36-0.59-1.04-0.89-1.68-1.16c-1.02-0.43-2.04-0.87-3.13-1.06c-1.09-0.2-2.25-0.13-3.23,0.39
							c-0.7,0.38-1.28,0.98-2.02,1.29c-0.99,0.41-2.21,0.19-2.99-0.53c-1.16-1.07-0.99-2.03-0.81-2.75
							C367.61,373.6,367.77,372.95,367.77,372.95z"/>
						<path style="fill:#FAFAFA;" d="M370.43,404.19c0,0,2.36-4.8,8.83-4.78c6.47,0.02,8.71,3.32,9.69,5.25
							c1.17,2.31,2.39,6.49-0.28,7.68c-2.88,1.3-6.22,0.9-11.48-1.74C371.94,407.97,370.43,404.19,370.43,404.19z"/>
						<g>
							<path style="fill:#FAFAFA;" d="M371.61,384.7c0.18,0.09,0.4,0.09,0.59,0c1-0.51,6.29-1.62,9.37,1.24
								c0.4-0.32,0.32-0.9-0.19-1.73c-3.6-2.29-8.61-1.27-9.82-0.65c-0.32,0.16-0.43,0.55-0.25,0.86
								C371.38,384.54,371.48,384.64,371.61,384.7z"/>
							<path style="fill:#FAFAFA;" d="M382.23,389.71c0.22-0.57-0.06-1.46-0.37-1.78c-3.55-1.93-8.21-0.96-9.36-0.38
								c-0.32,0.16-0.43,0.55-0.25,0.86c0.07,0.13,0.18,0.22,0.3,0.28c0.18,0.09,0.4,0.09,0.59,0
								C374.11,388.2,379.12,387.15,382.23,389.71z"/>
							<path style="fill:#FAFAFA;" d="M384.87,398.45c0.03-0.79-0.26-1.58-0.83-2.34c-3.59-2.17-8.48-1.16-9.67-0.56
								c-0.32,0.16-0.43,0.55-0.25,0.86c0.07,0.13,0.18,0.22,0.3,0.28c0.18,0.09,0.4,0.09,0.59,0
								C376.07,396.15,381.9,394.95,384.87,398.45z"/>
							<path style="fill:#FAFAFA;" d="M373.48,392.69c0.18,0.09,0.4,0.09,0.59,0c0.99-0.5,6.17-1.58,9.26,1.15
								c0.14-0.6-0.03-1.24-0.54-1.92c-3.56-1.93-8.21-0.97-9.36-0.38c-0.32,0.16-0.43,0.55-0.25,0.86
								C373.25,392.54,373.36,392.63,373.48,392.69z"/>
						</g>
					</g>
				</g>
				<g id="XMLID_28999_">
					<path id="XMLID_29001_" style="fill:#FFA8A7;" d="M391.01,382.2c0,0,2.65,15.96,5.59,22.15c2.94,6.19,4.45,9.18,8.51,13.87
						c0.88,1.02,2.89,2.92,3.61,3.74c0.64,0.73,0.75,1.58-0.17,2.46c-1.8,1.72-9.44,2.13-13.73-1.08
						c-4.28-3.21-8.18-10.05-10.74-12.63c-0.96-0.97-1.86-1.96-2.72-3.02c-0.83-1.02-0.6-1.98-0.67-3.12
						c-0.04-0.55,0.04-2.05,0.04-2.05c-0.59-2.69-2.17-6.9-3.01-9.52L391.01,382.2z"/>
					<g>
						<path style="fill:#263238;" d="M379.23,414.58c0,0-0.08,1.28,0.2,1.95c0.43,1.04,4.3,3.3,5.77,4.1c1.47,0.79,3.07,1.9,4.39,5
							c1.4,3.31,4.31,5.76,7.68,7.45c3.36,1.69,8.39,2.91,14.53,2.02c6.14-0.88,6.76-4.46,6.76-4.46s0.44-3.37-1.06-3.96
							C416,426.1,379.23,414.58,379.23,414.58z"/>
						<path id="XMLID_29000_" style="fill:#455A64;" d="M380.52,401.69c-0.17,0.07-0.48,0.16-0.66,0.87
							c-0.07,0.27,0.09,3.14-0.12,4.79c-0.23,1.76-1.21,5.06-0.51,7.24c3.12,3.39,8.15,4.39,10.48,7.88
							c2.33,3.49,4.45,7.81,12.38,9.68c7.93,1.87,14.09-0.45,15.64-2.68c1.56-2.22,0.28-4.41-4.74-7.36
							c-5.33-3.13-12.18-12.12-12.18-12.13c-0.95-1.24-1.79-2.63-2.56-3.99c-0.75-1.32-1.05-2.97-1.59-4.4
							c-0.26-0.68-0.56-1.39-1.17-1.78c-0.61-0.39-1.38-0.38-2.1-0.35c-1.15,0.05-2.32,0.09-3.44,0.39
							c-1.12,0.3-2.19,0.88-2.88,1.81c-0.5,0.67-0.77,1.5-1.33,2.12c-0.75,0.83-2,1.17-3.07,0.83c-1.57-0.5-1.84-1.48-1.99-2.24
							C380.66,402.37,380.52,401.69,380.52,401.69z"/>
						<path style="fill:#FAFAFA;" d="M396.99,430.05c0,0,0.09-5.6,6.22-8.46c6.13-2.87,9.72-0.75,11.52,0.64
							c2.14,1.66,5.16,5.07,3.17,7.4c-2.15,2.51-5.49,3.63-11.64,3.48C400.11,432.96,396.99,430.05,396.99,430.05z"/>
						<g>
							<path style="fill:#FAFAFA;" d="M389.4,411.08c0.21,0,0.42-0.09,0.56-0.27c0.72-0.93,5.23-4.34,9.42-3.01
								c0.23-0.48-0.1-1-0.96-1.55c-4.43-0.56-8.71,2.65-9.58,3.77c-0.23,0.29-0.16,0.71,0.15,0.93
								C389.11,411.04,389.25,411.08,389.4,411.08z"/>
							<path style="fill:#FAFAFA;" d="M401.69,411.08c-0.05-0.64-0.7-1.35-1.15-1.52c-4.23-0.24-8.2,2.75-9.03,3.83
								c-0.23,0.29-0.16,0.71,0.15,0.93c0.12,0.09,0.27,0.13,0.41,0.13c0.21,0,0.42-0.09,0.56-0.27
								C393.33,413.28,397.61,410.05,401.69,411.08z"/>
							<path style="fill:#FAFAFA;" d="M408.09,418.17c-0.33-0.76-0.95-1.38-1.83-1.85c-4.37-0.44-8.55,2.69-9.4,3.79
								c-0.23,0.29-0.16,0.71,0.15,0.93c0.12,0.09,0.27,0.13,0.41,0.13c0.21,0,0.42-0.09,0.56-0.27
								C398.74,419.93,403.72,416.19,408.09,418.17z"/>
							<path style="fill:#FAFAFA;" d="M394.75,417.81c0.21,0,0.42-0.09,0.56-0.27c0.71-0.92,5.13-4.25,9.28-3.05
								c-0.13-0.63-0.58-1.16-1.37-1.57c-4.23-0.24-8.2,2.75-9.03,3.83c-0.23,0.29-0.16,0.71,0.15,0.93
								C394.46,417.77,394.6,417.81,394.75,417.81z"/>
						</g>
					</g>
				</g>
				<g>
					<path style="fill:#27DEBF;" d="M355.8,291.32c6.54,4.8,29.33,17.95,38.58,26.51c2.67,2.47,3.55,5.73,2.9,12.83
						c-0.89,9.63-8.46,42.47-8.46,42.47c-1.04,1.85-2.88-1.66-2.88-1.66l-36.11-45.84L355.8,291.32z"/>
					<path style="opacity:0.3;" d="M355.8,291.32c6.54,4.8,29.33,17.95,38.58,26.51c2.67,2.47,3.55,5.73,2.9,12.83
						c-0.89,9.63-8.46,42.47-8.46,42.47c-1.04,1.85-2.88-1.66-2.88-1.66l-36.11-45.84L355.8,291.32z"/>
					<path style="opacity:0.3;" d="M387.25,362.91c-8.35-6.98-35.34-49.56-35.34-49.56s0.01-0.01,0.01-0.01
						c3.68-3.11,5.57-13.87,5.57-13.87c1.46,4.15-0.08,10.42-1.21,12.71c2.13,1.84,14.13,11.71,22.47,18.32
						c2.09,1.66,4.23,3.7,4.95,7.47C385.42,346.99,387.45,361.08,387.25,362.91z"/>
				</g>
				<g id="XMLID_28998_">
					<path style="fill:#27DEBF;" d="M355.8,291.32L355.8,291.32l-46.48,10.29c2.27,8.53,2.92,12.94,5.29,17.43
						c2.38,4.51,5.01,9.31,17.1,15.27c11.64,5.73,25.86,11.63,28.7,12.99c2.14,1.02,3.16,5.31,4.13,10.86
						c1.02,5.83,1.11,10.39,6.87,22.62c5.64,11.98,6.8,14.57,6.8,14.57s8.74,0.91,14.53-4.19c0,0-7.91-41.07-9.6-48.46
						c-0.94-4.13-0.96-6.31-6.09-10.84c-4.4-3.89-24.03-18.75-24.03-18.75S360.83,302.63,355.8,291.32z"/>
					<path style="opacity:0.3;" d="M355.8,291.32L355.8,291.32l-46.48,10.29c2.27,8.53,2.92,12.94,5.29,17.43
						c2.38,4.51,5.01,9.31,17.1,15.27c11.64,5.73,25.86,11.63,28.7,12.99c2.14,1.02,3.16,5.31,4.13,10.86
						c1.02,5.83,1.11,10.39,6.87,22.62c5.64,11.98,6.8,14.57,6.8,14.57s8.74,0.91,14.53-4.19c0,0-7.91-41.07-9.6-48.46
						c-0.94-4.13-0.96-6.31-6.09-10.84c-4.4-3.89-24.03-18.75-24.03-18.75S360.83,302.63,355.8,291.32z"/>
				</g>
			</g>
			<g>
				<path style="fill:#FFA8A7;" d="M409.23,214.1c-0.78-0.08-1.59,0.13-2.3,0.46c-0.85,0.4-1.6,0.98-2.36,1.54
					c-1.16,0.85-2.34,1.66-3.56,2.43c-1.08,0.68-2.22,1.44-3.5,1.66c-0.43,0.07-1.35,0.09-0.88-0.57c0.61-0.85,1.3-1.66,1.76-2.61
					c0.46-0.94,0.66-2.07,0.26-3.04c-0.12-0.29-0.31-0.58-0.6-0.71c-0.41-0.19-0.61,0.03-0.85,0.3c-0.25,0.28-0.54,0.52-0.82,0.77
					c-0.58,0.51-1.16,1.03-1.73,1.55c-3.34,3.04-7.41,5.67-8.84,10.06c-0.21,0.64-1.15,3.53-1.18,8.35
					c-0.03,4.82-0.32,21.59-0.32,21.59s-13.32-11.2-19.1-16.03c-2.79-2.33-6.68-5.15-10.97-5.56c-3.04-0.29-4.81-0.27-4.81-0.27
					l9.08,22.02c0,0,17.18,12.78,25.41,17.18c7.43,3.97,11.05,1.11,11.95-0.97c1.49-3.45,3.02-5.07,0.92-24.35
					c-0.15-1.49-0.34-5.76-0.5-7.25c-0.22-3.11,0.14-6.27,1.34-6.95c2.22-1.24,4.39-2.6,6.3-4.27c1.26-1.1,2.4-2.35,3.33-3.74
					c0.39-0.58,1.07-1.44,1.14-2.15c0.07-0.73-0.24-1.49-0.02-2.21c0.15-0.49,0.48-0.89,0.6-1.41c0.25-1.06,0.16-2.28,0.84-3.2
					c0.37-0.51,0.99-0.96,0.91-1.58c-0.07-0.5-0.58-0.81-1.07-0.93C409.52,214.14,409.37,214.12,409.23,214.1z"/>
				<path style="fill:#F28F8F;" d="M395.64,222.47c-0.37,2.6-2.23,5.85-3.47,6.94c0,0,2.08-1.18,2.95-2.99
					C396.08,224.43,395.97,223.42,395.64,222.47z"/>
				<path style="fill:#27DEBF;" d="M348.52,233.56c4.64,0.2,8.25,0.31,12.2,2.59c3.95,2.28,21.61,17.06,21.61,17.06
					s0.17-7.52,0.63-11.49c0.31-2.75,0.77-3.61,1.63-3.47c0,0,1.53,2.35,5.87,2.67c4.34,0.33,5.8-1.48,5.8-1.48s1.27-0.3,1.72,1.48
					c0.46,1.77,1.27,20.99,0.48,26.53c-0.79,5.54-3.27,8.11-6.6,8.89c-3.33,0.78-11.04-3.88-20.29-10.11
					c-9.26-6.23-19.31-12.03-19.31-12.03L348.52,233.56z"/>
				<path style="opacity:0.7;fill:#FFFFFF;" d="M348.52,233.56c4.64,0.2,8.25,0.31,12.2,2.59c3.95,2.28,21.61,17.06,21.61,17.06
					s0.17-7.52,0.63-11.49c0.31-2.75,0.77-3.61,1.63-3.47c0,0,1.53,2.35,5.87,2.67c4.34,0.33,5.8-1.48,5.8-1.48s1.27-0.3,1.72,1.48
					c0.46,1.77,1.27,20.99,0.48,26.53c-0.79,5.54-3.27,8.11-6.6,8.89c-3.33,0.78-11.04-3.88-20.29-10.11
					c-9.26-6.23-19.31-12.03-19.31-12.03L348.52,233.56z"/>
				<path style="opacity:0.1;" d="M382.32,253.21c-0.75,5.16,0.38,10.79,0.38,10.79s-3.39-6.54-2.34-12.53L382.32,253.21z"/>
			</g>
			<g>
				<path id="XMLID_28996_" style="fill:#FAFAFA;" d="M310.4,237.62c-0.76,4.05-8.46,42.55,0.29,71.26
					c15.76,1.86,43.45-5.38,47.6-15.81c0,0-2.8-9.9-4.01-14.74c0.26-7.94,0-23.1-0.16-27.79c-0.32-9.29-1.77-16.48-6.38-17.16
					c0,0-9.26-0.37-14.86-0.14c-4.84,0.2-8.48,0.25-8.48,0.25L310.4,237.62z"/>
				<path style="fill:#F0F0F0;" d="M333.55,298.81c-1.02-2.26-19.73-13.81-19.73-13.81s0.28-5.35,1.4-15.2
					c1.11-9.85,1.44-21.65-2.11-27.58l-3.58,0.14c-2.02,11.94-6.14,42.61,1.15,66.52c8.4,0.99,20.2-0.6,30.01-3.89
					C338.89,303.77,334.36,300.61,333.55,298.81z"/>
				<g>
					<path style="fill:#455A64;" d="M322.78,224.45c0.03-1.99-3.79-7.94-5.52-12.65c-2.89-7.87-3.14-14.94,3.99-18
						c0,0,4.46-7.69,15.7-8.07c11.24-0.38,19.89,9.11,16.15,21.8L322.78,224.45z"/>
					<g id="XMLID_28983_">
						<g id="XMLID_28990_">
							<path id="XMLID_28992_" style="fill:#FFA8A7;" d="M325.56,212.29c-1.47,0-2-2.11-3.01-3.24c-1.01-1.13-4.48-2.4-6.72,0.83
								c-2.08,3.01-0.06,7.34,2.21,9.02c2.86,2.11,4.82,0.07,4.82,0.07l-0.26,15.89c0,0,0.51,3.52,7,5.57
								c7.5,2.36,13.6-1.58,9.13-6.53l0.17-4.19c2.13,0.48,5.04,0.74,7.25,0.4c2.5-0.38,4.5-2.26,5.79-6.12
								c2.51-7.53,1.81-17.56-0.78-26.72c-2.47,1.96-13.92,5.62-24.23,1.99C327.29,205.6,326.99,212.29,325.56,212.29z"/>
							<path style="fill:#263238;" d="M321.48,217.2c0,0.51-0.42,0.93-0.93,0.93c-0.51,0-0.93-0.42-0.93-0.93
								c0-0.51,0.42-0.93,0.93-0.93C321.07,216.27,321.48,216.68,321.48,217.2z"/>
							<path id="XMLID_28991_" style="fill:#F28F8F;" d="M338.9,229.72c0,0-6.26-1.83-8.72-3.56c-1.82-1.28-3.44-3.31-3.84-4.38
								c0,0,0.94,3.35,2.64,5.29c2.99,3.39,9.84,4.96,9.84,4.96L338.9,229.72z"/>
						</g>
						<g id="XMLID_28984_">
							<path id="XMLID_28989_" style="fill:#263238;" d="M338.4,212.21c0.02,0.89-0.67,1.63-1.53,1.64
								c-0.86,0.01-1.57-0.7-1.59-1.59c-0.02-0.89,0.67-1.63,1.53-1.64C337.67,210.6,338.38,211.31,338.4,212.21z"/>
							<path id="XMLID_28987_" style="fill:#263238;" d="M336.69,206.89l-3.37,1.77c-0.47-0.97-0.1-2.15,0.83-2.64
								C335.09,205.54,336.22,205.93,336.69,206.89z"/>
							<path id="XMLID_28988_" style="fill:#F28F8F;" d="M337.91,220.39l5.35,1.71c-0.53,1.5-2.15,2.33-3.63,1.86
								C338.15,223.49,337.38,221.89,337.91,220.39z"/>
							<path id="XMLID_28986_" style="fill:#263238;" d="M351.1,206.83l-3.7-1.01c0.24-1.04,1.27-1.66,2.29-1.38
								C350.72,204.72,351.35,205.79,351.1,206.83z"/>
							<path id="XMLID_28985_" style="fill:#263238;" d="M350.15,210.98c0.02,0.89-0.67,1.63-1.53,1.64
								c-0.86,0.01-1.57-0.7-1.59-1.59c-0.02-0.89,0.67-1.63,1.53-1.64C349.42,209.37,350.13,210.08,350.15,210.98z"/>
						</g>
					</g>
					<path style="fill:#37474F;" d="M351.87,197.28c3.46-2.46,5.38-5.76,4.46-10.29c-1.35,1.35-5.13,1.6-8.44,0.02
						c-3.53-1.68-9.12-3.97-16.96-2.45c-6.11,1.18-9.69,5.83-9.69,9.24c1.2,2.44,2.84,3.75,5.68,5.47c0,0,5.86,4.79,14.74,4.24
						c5.71-0.35,8.68-3.14,8.68-3.14s-3.19,0.28-4.69-0.71C345.66,199.66,349.29,199.12,351.87,197.28z"/>
					<g id="XMLID_28981_">
						<polygon id="XMLID_28982_" style="fill:#F28F8F;" points="343.45,218.4 348.22,216.23 342.13,207.83 						"/>
					</g>
				</g>
			</g>
			<g id="Laptop_1_">
				<path style="opacity:0.15;" d="M395.83,319.53c-0.41-0.62-0.89-1.18-1.45-1.7c-5.56-5.14-16-11.94-24.87-17.59l-40.36,23.3
					c-0.25,0.14-0.25,0.5,0,0.64l29.31,16.92L395.83,319.53z"/>
				<g id="XMLID_28964_">
					<g>
						<g id="XMLID_28980_">
							<path style="fill:#37474F;" d="M408.07,307.69v0.65c0,0.96-0.51,1.84-1.34,2.32l-46.92,27.09c-0.41,0.24-0.88,0.36-1.34,0.36
								c-0.46,0-0.93-0.12-1.35-0.36l-25.58-14.72c-0.82-0.47-1.34-1.37-1.34-2.32v-0.9h0.01v0.01c0,0.12,0.05,0.22,0.17,0.29
								l28.09,16.22L408.07,307.69z"/>
						</g>
						<g id="XMLID_28979_">
							<path style="fill:#263238;" d="M358.47,336.32v1.78c0.46,0,0.93-0.12,1.34-0.36l46.92-27.09c0.83-0.48,1.34-1.37,1.34-2.32
								v-0.65L358.47,336.32z"/>
						</g>
						<g id="XMLID_28978_">
							<path style="fill:#455A64;" d="M408.07,307.68l-27.82-16.06c-0.49-0.29-1.1-0.29-1.6,0l-48.27,27.87
								c-0.24,0.14-0.24,0.48,0,0.62l28.08,16.22L408.07,307.68z"/>
						</g>
						<g>
							<g id="XMLID_28972_">
								<polygon style="fill:#37474F;" points="358.21,333.96 343.21,325.31 387.09,299.98 402.17,308.58 								"/>
							</g>
							<g id="XMLID_28971_">
								<polygon style="fill:#263238;" points="402.17,308.58 401.6,308.91 387.08,300.63 343.78,325.64 343.21,325.31 
									387.08,299.97 								"/>
							</g>
						</g>
						<g>
							<g id="XMLID_28970_">
								<polygon style="fill:#263238;" points="350.84,309.89 351.12,310.05 358.47,314.29 371.55,306.74 371.82,306.59 
									364.19,302.18 								"/>
							</g>
							<g id="XMLID_28969_">
								<polygon style="fill:#37474F;" points="351.12,310.05 358.47,314.29 371.55,306.74 364.19,302.49 								"/>
							</g>
						</g>
					</g>
					<g id="Arm_5_">
						<path style="fill:#FFA8A7;" d="M365.07,315.14c-2.1-2.09-5.16-4.98-7.72-5.83c-0.33-0.11-0.83-0.34-1.8-0.56
							c0.88-0.17,1.77-0.24,2.64-0.53c0.86-0.29,1.67-0.76,2.23-1.48c0.22-0.29,0.38-0.75,0.1-0.98c-0.1-0.08-0.23-0.13-0.37-0.13
							c-1.92-0.06-3.44-0.36-5.18-0.48c-0.76-0.05-1.62-0.16-2.35,0.04c-0.72,0.19-1.43,0.4-2.13,0.65
							c-3.19,1.1-6.09,2.1-10.61,1.04l-8.12-4.33c0,0-1.73-0.43-4.29,3.9c-2.56,4.33-1.06,6.71-1.06,6.71l9.12,3.15c0,0,0,0,0,0
							c0.04,0.02,0.09,0.03,0.13,0.05c1,0.38,1.91,1.16,4.31,1.9c2.84,0.87,6.48-0.16,8.95-0.29c2.47-0.13,6.66,1.01,8.95,1.94
							c2.29,0.93,5.04-2.6,6.19-2.17C365.19,318.16,367.18,317.23,365.07,315.14z"/>
						<path style="fill:#F28F8F;" d="M354.48,307.39c-1.66-0.17-3.5,0.57-3.5,0.57s2.05,0.04,4.56,0.79
							c0.88-0.17,1.77-0.24,2.64-0.53c0.76-0.25,1.48-0.65,2.02-1.24C358.82,307.93,356.15,307.56,354.48,307.39z"/>
						<g>
							<path style="fill:#27DEBF;" d="M310.4,237.62c2.31,0.91,5.32,10.55,3.47,19.82l-4.3,28.99c0,0,5.27,3.12,12.66,7.7
								c5.12,3.17,9.52,6.08,9.52,8.43c-3.36,1.21-6.37,7.39-5.36,10.61c-2.29,2.72-23.45-9.01-30.85-14.07
								c-3.43-2.35-5.16-3.27-3.84-13.86c1.46-11.72,2.46-24.74,4.74-33.43C298.83,242.73,301.48,239.21,310.4,237.62z"/>
							<path style="opacity:0.7;fill:#FFFFFF;" d="M310.4,237.62c2.31,0.91,5.32,10.55,3.47,19.82l-4.3,28.99
								c0,0,5.27,3.12,12.66,7.7c5.12,3.17,9.52,6.08,9.52,8.43c-3.36,1.21-6.37,7.39-5.36,10.61c-2.29,2.72-23.45-9.01-30.85-14.07
								c-3.43-2.35-5.16-3.27-3.84-13.86c1.46-11.72,2.46-24.74,4.74-33.43C298.83,242.73,301.48,239.21,310.4,237.62z"/>
						</g>
					</g>
					<g>
						<g id="XMLID_28968_">
							<path style="fill:#37474F;" d="M359.23,336.72c0.89,0.34,1.9,0.28,2.74-0.21l46.72-26.97c0.82-0.47,1.39-1.29,1.55-2.22
								l5.11-30.5c0.03-0.17,0.04-0.35,0.04-0.52c0-0.85-0.34-1.66-0.94-2.26l-48.55,28.03c-0.61,0.35-1.02,0.95-1.14,1.64
								L359.23,336.72z"/>
						</g>
						<g id="XMLID_28967_">
							<path style="fill:#455A64;" d="M358.47,336.32l0.32,0.18c0.14,0.08,0.29,0.15,0.44,0.21l5.53-33.01
								c0.12-0.69,0.54-1.29,1.14-1.64l48.55-28.03c-0.19-0.19-0.41-0.35-0.65-0.49l-48.65,28.08c-0.61,0.35-1.02,0.95-1.14,1.64
								L358.47,336.32z"/>
						</g>
						<g id="XMLID_28966_">
							<path style="fill:#263238;" d="M365.21,302.69l-0.75-0.43c-0.22,0.3-0.38,0.64-0.45,1.01l-5.54,33.05l0.32,0.18
								c0.14,0.08,0.29,0.15,0.44,0.21l5.53-33.01C364.82,303.33,364.98,302.99,365.21,302.69z"/>
						</g>
						<g id="XMLID_28965_">
							<path style="fill:#27DEBF;" d="M385.54,308.56c0.34-2.04,2.45-4.75,4.71-6.06c2.26-1.3,3.81-0.7,3.47,1.34
								c-0.34,2.04-2.45,4.75-4.71,6.06C386.75,311.21,385.19,310.61,385.54,308.56z"/>
						</g>
					</g>
				</g>
			</g>
		</g>
	</g>
</g>
</svg>
