<svg id="Capa_1" data-name="Capa 1" xmlns="http://www.w3.org/2000/svg" viewBox="0 0 139.04 19.94"><defs><style>.cls-1,.cls-2,.cls-3{fill:#009640;}.cls-1,.cls-2,.cls-3,.cls-4,.cls-5,.cls-6,.cls-7,.cls-8,.cls-9{stroke:#1d1d1b;stroke-miterlimit:10;}.cls-1,.cls-4,.cls-7{stroke-width:0.14px;}.cls-2,.cls-5,.cls-8{stroke-width:0.14px;}.cls-3,.cls-6,.cls-9{stroke-width:0.12px;}.cls-4,.cls-5,.cls-6{fill:#f39200;}.cls-7,.cls-8,.cls-9{fill:#f9b233;}</style></defs><circle class="cls-1" cx="8.15" cy="18.14" r="1.01"/><path class="cls-1" d="M2.35,17.12l1.76.37a15.23,15.23,0,0,0,3.3.35H12.8a20.34,20.34,0,0,0,3.57-.32l1.05-.2" transform="translate(-1.73 -1.2)"/><path class="cls-1" d="M1.94,19.73c1,.71,4.54,1.13,5.59,1.13h5.24a21.15,21.15,0,0,0,5-1c.52.07-2-12.13-6.87-12.41a8,8,0,0,0-1.4,0C4.13,7.94,1.1,19.83,1.94,19.73Z" transform="translate(-1.73 -1.2)"/><path class="cls-1" d="M7.7,7.33,6.26,5.49l-.76,0a1.63,1.63,0,0,1-.61-.13.89.89,0,0,1-.49-1h0c.15-.33-.29-.63-.65-.63H3.19" transform="translate(-1.73 -1.2)"/><ellipse class="cls-1" cx="8.4" cy="10.75" rx="1.16" ry="1.7"/><path class="cls-1" d="M7.15,7.83,5.74,6,6,5.23a1.3,1.3,0,0,0,0-.62.87.87,0,0,0-.87-.74h0c-.36,0-.53-.44-.44-.79l.14-.54" transform="translate(-1.73 -1.2)"/><path class="cls-1" d="M7.4,8.25l1.15.25a7.32,7.32,0,0,0,3.16,0l1.15-.25" transform="translate(-1.73 -1.2)"/><path class="cls-1" d="M10.34,7.1V4.76L9.72,4.3a1.49,1.49,0,0,1-.39-.47.88.88,0,0,1,.24-1.12h0c.33-.17.17-.68-.12-.9L9,1.47" transform="translate(-1.73 -1.2)"/><path class="cls-1" d="M9.59,7.15l0-2.34.63-.44a1.44,1.44,0,0,0,.41-.47.88.88,0,0,0-.23-1.12h0c-.32-.18-.15-.68.14-.9L11,1.55" transform="translate(-1.73 -1.2)"/><path class="cls-1" d="M12.85,7.38l1.54-1.76-.16-.75a1.44,1.44,0,0,1,0-.62.88.88,0,0,1,.92-.68h0c.36.08.57-.4.5-.76l-.11-.54" transform="translate(-1.73 -1.2)"/><path class="cls-1" d="M12.26,6.94,13.82,5.2l.77.07a1.43,1.43,0,0,0,.61-.08.89.89,0,0,0,.57-1h0c-.13-.34.33-.61.69-.58l.55,0" transform="translate(-1.73 -1.2)"/><path class="cls-1" d="M9,12H9a2.84,2.84,0,0,0,2.32,0h0" transform="translate(-1.73 -1.2)"/><path class="cls-1" d="M9,11.4H9a2.84,2.84,0,0,0,2.32,0h0" transform="translate(-1.73 -1.2)"/><path class="cls-2" d="M9.06,12.5h0a2.44,2.44,0,0,0,2.14,0h0" transform="translate(-1.73 -1.2)"/><circle class="cls-1" cx="8.15" cy="18.14" r="0.45"/><path class="cls-3" d="M9.12,11h0a2.49,2.49,0,0,0,2,0h0" transform="translate(-1.73 -1.2)"/><path class="cls-3" d="M9.13,12.88h0a2.49,2.49,0,0,0,2,0h0" transform="translate(-1.73 -1.2)"/><circle class="cls-1" cx="25.97" cy="18.14" r="1.01"/><path class="cls-1" d="M20.17,17.12l1.76.37a15.23,15.23,0,0,0,3.3.35h5.39a19.52,19.52,0,0,0,3.57-.33l1.05-.19" transform="translate(-1.73 -1.2)"/><path class="cls-1" d="M19.76,19.73c1,.71,4.54,1.13,5.59,1.13h5.24a21.25,21.25,0,0,0,5-1c.52.07-2-12.13-6.87-12.41a8.12,8.12,0,0,0-1.41,0C22,7.93,18.92,19.83,19.76,19.73Z" transform="translate(-1.73 -1.2)"/><path class="cls-1" d="M25.52,7.33,24.08,5.49l-.77,0a1.62,1.62,0,0,1-.6-.13.89.89,0,0,1-.49-1h0c.14-.33-.29-.63-.65-.63H21" transform="translate(-1.73 -1.2)"/><ellipse class="cls-1" cx="26.22" cy="10.75" rx="1.16" ry="1.7"/><path class="cls-1" d="M25,7.83,23.56,6l.22-.74a1.44,1.44,0,0,0,0-.62.87.87,0,0,0-.87-.74h0c-.36,0-.53-.44-.44-.79l.14-.54" transform="translate(-1.73 -1.2)"/><path class="cls-1" d="M25.22,8.25l1.15.25a7.32,7.32,0,0,0,3.16,0l1.15-.25" transform="translate(-1.73 -1.2)"/><path class="cls-1" d="M28.16,7.1V4.76l-.62-.46a1.49,1.49,0,0,1-.39-.47.88.88,0,0,1,.24-1.12h0c.32-.17.17-.68-.12-.9l-.44-.34" transform="translate(-1.73 -1.2)"/><path class="cls-1" d="M27.41,7.15l0-2.34.63-.44a1.41,1.41,0,0,0,.4-.47.87.87,0,0,0-.22-1.12h0c-.32-.18-.15-.68.14-.9l.44-.33" transform="translate(-1.73 -1.2)"/><path class="cls-1" d="M30.67,7.38l1.54-1.76-.16-.75a1.3,1.3,0,0,1,0-.62A.88.88,0,0,1,33,3.57h0c.35.08.57-.4.5-.76l-.11-.54" transform="translate(-1.73 -1.2)"/><path class="cls-1" d="M30.08,6.93,31.64,5.2l.77.07A1.43,1.43,0,0,0,33,5.19a.9.9,0,0,0,.57-1h0c-.13-.34.33-.61.69-.58l.55,0" transform="translate(-1.73 -1.2)"/><path class="cls-1" d="M26.79,12h0a2.84,2.84,0,0,0,2.32,0h0" transform="translate(-1.73 -1.2)"/><path class="cls-1" d="M26.79,11.4h0a2.84,2.84,0,0,0,2.32,0h0" transform="translate(-1.73 -1.2)"/><path class="cls-2" d="M26.88,12.5h0a2.44,2.44,0,0,0,2.14,0h0" transform="translate(-1.73 -1.2)"/><circle class="cls-1" cx="25.97" cy="18.14" r="0.45"/><path class="cls-3" d="M26.94,11h0a2.46,2.46,0,0,0,2,0h0" transform="translate(-1.73 -1.2)"/><path class="cls-3" d="M27,12.88h0a2.49,2.49,0,0,0,2,0h0" transform="translate(-1.73 -1.2)"/><circle class="cls-4" cx="43.86" cy="17.93" r="1.01"/><path class="cls-4" d="M38.05,16.9l1.77.38a15.87,15.87,0,0,0,3.3.35H48.5a19.54,19.54,0,0,0,3.58-.33l1-.19" transform="translate(-1.73 -1.2)"/><path class="cls-4" d="M37.65,19.51c1,.72,4.54,1.14,5.59,1.14h5.23a21.74,21.74,0,0,0,5-1c.52.07-2-12.14-6.87-12.41a8.46,8.46,0,0,0-1.41,0C39.84,7.72,36.81,19.61,37.65,19.51Z" transform="translate(-1.73 -1.2)"/><path class="cls-4" d="M43.41,7.12,42,5.27l-.77,0a1.4,1.4,0,0,1-.6-.12.89.89,0,0,1-.5-1h0c.15-.33-.28-.63-.65-.63H38.9" transform="translate(-1.73 -1.2)"/><ellipse class="cls-4" cx="44.11" cy="10.54" rx="1.16" ry="1.7"/><path class="cls-4" d="M42.86,7.62,41.45,5.75,41.67,5a1.61,1.61,0,0,0,0-.62.9.9,0,0,0-.87-.75h0c-.36.06-.54-.44-.44-.79l.14-.53" transform="translate(-1.73 -1.2)"/><path class="cls-4" d="M43.11,8l1.15.26a7.32,7.32,0,0,0,3.16,0L48.57,8" transform="translate(-1.73 -1.2)"/><path class="cls-4" d="M46,6.88V4.54l-.62-.45a1.45,1.45,0,0,1-.4-.48.9.9,0,0,1,.25-1.12h0c.32-.17.16-.67-.12-.89l-.44-.34" transform="translate(-1.73 -1.2)"/><path class="cls-4" d="M45.3,6.94l0-2.34L46,4.15a1.37,1.37,0,0,0,.4-.46.89.89,0,0,0-.22-1.13h0c-.32-.17-.15-.67.14-.89l.44-.33" transform="translate(-1.73 -1.2)"/><path class="cls-4" d="M48.56,7.17,50.1,5.41l-.17-.75A1.45,1.45,0,0,1,50,4a.87.87,0,0,1,.92-.68h0c.35.08.56-.4.49-.76l-.1-.54" transform="translate(-1.73 -1.2)"/><path class="cls-4" d="M48,6.72,49.53,5l.76.07A1.46,1.46,0,0,0,50.91,5a.89.89,0,0,0,.56-1h0c-.12-.34.33-.61.7-.58l.55,0" transform="translate(-1.73 -1.2)"/><path class="cls-4" d="M44.68,11.73h0a2.77,2.77,0,0,0,2.32,0h0" transform="translate(-1.73 -1.2)"/><path class="cls-4" d="M44.68,11.18h0a2.77,2.77,0,0,0,2.32,0h0" transform="translate(-1.73 -1.2)"/><path class="cls-5" d="M44.76,12.28h0a2.39,2.39,0,0,0,2.15,0h0" transform="translate(-1.73 -1.2)"/><circle class="cls-4" cx="43.86" cy="17.93" r="0.45"/><path class="cls-6" d="M44.83,10.74h0a2.46,2.46,0,0,0,2,0h0" transform="translate(-1.73 -1.2)"/><path class="cls-6" d="M44.84,12.67h0a2.49,2.49,0,0,0,2,0h0" transform="translate(-1.73 -1.2)"/><circle class="cls-4" cx="61.68" cy="18.35" r="1.01"/><path class="cls-4" d="M55.87,17.33l1.77.38a15.87,15.87,0,0,0,3.3.35h5.38a19.36,19.36,0,0,0,3.57-.33l1-.2" transform="translate(-1.73 -1.2)"/><path class="cls-4" d="M55.46,19.94c1,.71,4.54,1.13,5.6,1.13h5.23a21.15,21.15,0,0,0,5-1c.53.07-2-12.13-6.86-12.41a8.09,8.09,0,0,0-1.41,0C57.66,8.15,54.63,20,55.46,19.94Z" transform="translate(-1.73 -1.2)"/><path class="cls-4" d="M61.23,7.54,59.79,5.7l-.77,0a1.41,1.41,0,0,1-.6-.13.88.88,0,0,1-.5-1h0c.15-.34-.28-.63-.65-.63h-.55" transform="translate(-1.73 -1.2)"/><ellipse class="cls-4" cx="61.93" cy="10.96" rx="1.16" ry="1.7"/><path class="cls-4" d="M60.68,8,59.27,6.18l.22-.74a1.56,1.56,0,0,0,0-.61.89.89,0,0,0-.87-.75h0c-.36.06-.54-.44-.44-.79l.14-.54" transform="translate(-1.73 -1.2)"/><path class="cls-4" d="M60.93,8.46l1.15.25a7.32,7.32,0,0,0,3.16,0l1.15-.25" transform="translate(-1.73 -1.2)"/><path class="cls-4" d="M63.86,7.31V5l-.62-.46a1.41,1.41,0,0,1-.4-.47.89.89,0,0,1,.25-1.12h0c.32-.17.16-.67-.12-.9l-.44-.34" transform="translate(-1.73 -1.2)"/><path class="cls-4" d="M63.12,7.36l0-2.33.63-.45a1.41,1.41,0,0,0,.4-.47A.88.88,0,0,0,64,3h0c-.32-.18-.16-.68.13-.9l.45-.33" transform="translate(-1.73 -1.2)"/><path class="cls-4" d="M66.38,7.59l1.54-1.76-.17-.75a1.57,1.57,0,0,1,0-.61.89.89,0,0,1,.93-.69h0c.35.09.56-.4.49-.75l-.1-.55" transform="translate(-1.73 -1.2)"/><path class="cls-4" d="M65.78,7.15l1.57-1.74.76.07a1.41,1.41,0,0,0,.61-.08.88.88,0,0,0,.57-1h0c-.12-.34.33-.6.7-.58l.55,0" transform="translate(-1.73 -1.2)"/><path class="cls-4" d="M62.49,12.16h0a2.87,2.87,0,0,0,2.33,0h0" transform="translate(-1.73 -1.2)"/><path class="cls-4" d="M62.49,11.61h0a2.87,2.87,0,0,0,2.33,0h0" transform="translate(-1.73 -1.2)"/><path class="cls-5" d="M62.58,12.71h0a2.46,2.46,0,0,0,2.15,0h0" transform="translate(-1.73 -1.2)"/><circle class="cls-4" cx="61.68" cy="18.36" r="0.45"/><path class="cls-6" d="M62.65,11.16h0a2.38,2.38,0,0,0,2,0h0" transform="translate(-1.73 -1.2)"/><path class="cls-6" d="M62.66,13.09h0a2.38,2.38,0,0,0,2,0h0" transform="translate(-1.73 -1.2)"/><circle class="cls-1" cx="79.5" cy="18.35" r="1.01"/><path class="cls-1" d="M73.69,17.33l1.77.38a15.77,15.77,0,0,0,3.29.34h5.39a20.26,20.26,0,0,0,3.57-.32l1.05-.2" transform="translate(-1.73 -1.2)"/><path class="cls-1" d="M73.28,19.94c1,.71,4.54,1.13,5.6,1.13h5.23a21.15,21.15,0,0,0,5-1c.52.07-2-12.13-6.86-12.41a8,8,0,0,0-1.41,0C75.48,8.15,72.44,20,73.28,19.94Z" transform="translate(-1.73 -1.2)"/><path class="cls-1" d="M79.05,7.54,77.61,5.7l-.77,0a1.41,1.41,0,0,1-.6-.13.88.88,0,0,1-.5-1h0c.15-.34-.28-.64-.65-.64h-.55" transform="translate(-1.73 -1.2)"/><ellipse class="cls-1" cx="79.75" cy="10.96" rx="1.16" ry="1.7"/><path class="cls-1" d="M78.5,8,77.09,6.18l.21-.74a1.43,1.43,0,0,0,0-.62.89.89,0,0,0-.87-.74h0c-.36.06-.54-.44-.45-.79l.15-.54" transform="translate(-1.73 -1.2)"/><path class="cls-1" d="M78.75,8.46l1.15.25a7.28,7.28,0,0,0,3.15,0l1.15-.25" transform="translate(-1.73 -1.2)"/><path class="cls-1" d="M81.68,7.31V5l-.61-.46a1.52,1.52,0,0,1-.4-.47.89.89,0,0,1,.25-1.12h0c.32-.17.16-.67-.12-.9l-.44-.34" transform="translate(-1.73 -1.2)"/><path class="cls-1" d="M80.94,7.36,81,5l.62-.45A1.33,1.33,0,0,0,82,4.11.88.88,0,0,0,81.78,3h0c-.32-.18-.15-.68.14-.9l.45-.33" transform="translate(-1.73 -1.2)"/><path class="cls-1" d="M84.2,7.59l1.54-1.76-.17-.75a1.62,1.62,0,0,1,0-.62.89.89,0,0,1,.92-.68h0c.36.09.57-.4.5-.76l-.1-.54" transform="translate(-1.73 -1.2)"/><path class="cls-1" d="M83.6,7.15l1.57-1.74.76.07a1.43,1.43,0,0,0,.61-.08.88.88,0,0,0,.57-1h0c-.12-.34.33-.61.69-.58l.56,0" transform="translate(-1.73 -1.2)"/><path class="cls-1" d="M80.31,12.16h0a2.87,2.87,0,0,0,2.33,0h0" transform="translate(-1.73 -1.2)"/><path class="cls-1" d="M80.31,11.61h0a2.87,2.87,0,0,0,2.33,0h0" transform="translate(-1.73 -1.2)"/><path class="cls-2" d="M80.4,12.71h0a2.46,2.46,0,0,0,2.15,0h0" transform="translate(-1.73 -1.2)"/><circle class="cls-1" cx="79.5" cy="18.36" r="0.45"/><path class="cls-3" d="M80.46,11.16h0a2.41,2.41,0,0,0,2,0h0" transform="translate(-1.73 -1.2)"/><path class="cls-3" d="M80.48,13.09h0a2.38,2.38,0,0,0,2,0h0" transform="translate(-1.73 -1.2)"/><circle class="cls-1" cx="97.25" cy="18.14" r="1.01"/><path class="cls-1" d="M91.44,17.12l1.76.37a15.29,15.29,0,0,0,3.3.35h5.39a19.44,19.44,0,0,0,3.57-.33l1.05-.19" transform="translate(-1.73 -1.2)"/><path class="cls-1" d="M91,19.73c1,.71,4.54,1.13,5.6,1.13h5.23a21.15,21.15,0,0,0,5-1c.52.07-2-12.13-6.87-12.41a8,8,0,0,0-1.4,0C93.23,7.93,90.19,19.83,91,19.73Z" transform="translate(-1.73 -1.2)"/><path class="cls-1" d="M96.8,7.33,95.36,5.49l-.77,0a1.58,1.58,0,0,1-.6-.13.89.89,0,0,1-.5-1h0c.15-.33-.29-.63-.65-.63h-.55" transform="translate(-1.73 -1.2)"/><ellipse class="cls-1" cx="97.5" cy="10.75" rx="1.16" ry="1.7"/><path class="cls-1" d="M96.25,7.83,94.84,6l.21-.74a1.44,1.44,0,0,0,0-.62.88.88,0,0,0-.87-.74h0c-.36,0-.54-.44-.45-.79l.15-.54" transform="translate(-1.73 -1.2)"/><path class="cls-1" d="M96.5,8.25l1.15.25a7.28,7.28,0,0,0,3.15,0L102,8.25" transform="translate(-1.73 -1.2)"/><path class="cls-1" d="M99.43,7.1V4.76l-.61-.46a1.39,1.39,0,0,1-.4-.47.87.87,0,0,1,.25-1.12h0c.32-.17.16-.68-.13-.9l-.43-.34" transform="translate(-1.73 -1.2)"/><path class="cls-1" d="M98.69,7.15l0-2.34.62-.44a1.33,1.33,0,0,0,.41-.47.88.88,0,0,0-.23-1.12h0c-.32-.18-.15-.68.14-.9l.45-.33" transform="translate(-1.73 -1.2)"/><path class="cls-1" d="M102,7.38l1.53-1.76-.16-.75a1.62,1.62,0,0,1,0-.62.89.89,0,0,1,.92-.68h0c.36.08.57-.4.5-.76l-.1-.54" transform="translate(-1.73 -1.2)"/><path class="cls-1" d="M101.35,6.93l1.57-1.73.76.07a1.43,1.43,0,0,0,.61-.08.89.89,0,0,0,.57-1h0c-.12-.34.33-.61.69-.58l.56,0" transform="translate(-1.73 -1.2)"/><path class="cls-1" d="M98.06,12h0a2.87,2.87,0,0,0,2.33,0h0" transform="translate(-1.73 -1.2)"/><path class="cls-1" d="M98.06,11.4h0a2.87,2.87,0,0,0,2.33,0h0" transform="translate(-1.73 -1.2)"/><path class="cls-2" d="M98.15,12.5h0a2.46,2.46,0,0,0,2.15,0h0" transform="translate(-1.73 -1.2)"/><circle class="cls-1" cx="97.25" cy="18.14" r="0.45"/><path class="cls-3" d="M98.21,11h0a2.49,2.49,0,0,0,2,0h0" transform="translate(-1.73 -1.2)"/><path class="cls-3" d="M98.23,12.88h0a2.46,2.46,0,0,0,2,0h0" transform="translate(-1.73 -1.2)"/><circle class="cls-7" cx="113.27" cy="18.35" r="1.01"/><path class="cls-7" d="M107.47,17.32l1.76.38a15.23,15.23,0,0,0,3.3.35h5.39a19.52,19.52,0,0,0,3.57-.33l1.05-.19" transform="translate(-1.73 -1.2)"/><path class="cls-7" d="M107.06,19.94c1,.71,4.54,1.13,5.59,1.13h5.24a21.25,21.25,0,0,0,5-1c.52.07-2-12.13-6.87-12.41a8.12,8.12,0,0,0-1.41,0C109.25,8.14,106.22,20,107.06,19.94Z" transform="translate(-1.73 -1.2)"/><path class="cls-7" d="M112.82,7.54,111.38,5.7l-.77,0a1.58,1.58,0,0,1-.6-.13.9.9,0,0,1-.5-1h0c.15-.33-.28-.63-.64-.63h-.56" transform="translate(-1.73 -1.2)"/><ellipse class="cls-7" cx="113.52" cy="10.96" rx="1.16" ry="1.7"/><path class="cls-7" d="M112.27,8l-1.41-1.86.22-.74a1.44,1.44,0,0,0,0-.62.87.87,0,0,0-.87-.74h0c-.36,0-.53-.44-.44-.8l.14-.53" transform="translate(-1.73 -1.2)"/><path class="cls-7" d="M112.52,8.46l1.15.25a7.32,7.32,0,0,0,3.16,0L118,8.46" transform="translate(-1.73 -1.2)"/><path class="cls-7" d="M115.46,7.3V5l-.62-.46a1.49,1.49,0,0,1-.39-.47.88.88,0,0,1,.24-1.12h0c.32-.17.17-.68-.12-.9l-.44-.34" transform="translate(-1.73 -1.2)"/><path class="cls-7" d="M114.71,7.36l0-2.34.63-.44a1.41,1.41,0,0,0,.4-.47A.87.87,0,0,0,115.56,3h0c-.32-.18-.15-.68.14-.9l.44-.33" transform="translate(-1.73 -1.2)"/><path class="cls-7" d="M118,7.59l1.54-1.76-.16-.75a1.3,1.3,0,0,1,0-.62.88.88,0,0,1,.92-.68h0c.35.08.57-.4.5-.76l-.11-.54" transform="translate(-1.73 -1.2)"/><path class="cls-7" d="M117.38,7.14l1.56-1.73.77.07a1.43,1.43,0,0,0,.61-.08.9.9,0,0,0,.57-1h0c-.13-.34.33-.61.69-.58l.55,0" transform="translate(-1.73 -1.2)"/><path class="cls-7" d="M114.09,12.16h0a2.84,2.84,0,0,0,2.32,0h0" transform="translate(-1.73 -1.2)"/><path class="cls-7" d="M114.09,11.61h0a2.84,2.84,0,0,0,2.32,0h0" transform="translate(-1.73 -1.2)"/><path class="cls-8" d="M114.18,12.71h0a2.44,2.44,0,0,0,2.14,0h0" transform="translate(-1.73 -1.2)"/><circle class="cls-7" cx="113.27" cy="18.35" r="0.45"/><path class="cls-9" d="M114.24,11.16h0a2.46,2.46,0,0,0,2,0h0" transform="translate(-1.73 -1.2)"/><path class="cls-9" d="M114.25,13.09h0a2.49,2.49,0,0,0,2,0h0" transform="translate(-1.73 -1.2)"/><circle class="cls-1" cx="131.02" cy="18.14" r="1.01"/><path class="cls-1" d="M125.22,17.11l1.76.38a15.87,15.87,0,0,0,3.3.35h5.38a19.54,19.54,0,0,0,3.58-.33l1-.19" transform="translate(-1.73 -1.2)"/><path class="cls-1" d="M124.81,19.73c1,.71,4.54,1.13,5.59,1.13h5.23a21.74,21.74,0,0,0,5-1c.52.07-2-12.14-6.87-12.41a8.46,8.46,0,0,0-1.41,0C127,7.93,124,19.82,124.81,19.73Z" transform="translate(-1.73 -1.2)"/><path class="cls-1" d="M130.57,7.33l-1.44-1.85-.77,0a1.4,1.4,0,0,1-.6-.12.9.9,0,0,1-.5-1h0c.15-.33-.28-.63-.65-.63h-.55" transform="translate(-1.73 -1.2)"/><ellipse class="cls-1" cx="131.27" cy="10.75" rx="1.16" ry="1.7"/><path class="cls-1" d="M130,7.83,128.61,6l.22-.73a1.61,1.61,0,0,0,0-.62.89.89,0,0,0-.87-.75h0c-.36.06-.54-.43-.44-.79l.14-.53" transform="translate(-1.73 -1.2)"/><path class="cls-1" d="M130.27,8.25l1.15.25a7.32,7.32,0,0,0,3.16,0l1.15-.25" transform="translate(-1.73 -1.2)"/><path class="cls-1" d="M133.2,7.09V4.76l-.62-.46a1.52,1.52,0,0,1-.4-.47.91.91,0,0,1,.25-1.13h0c.32-.17.17-.67-.12-.89l-.44-.34" transform="translate(-1.73 -1.2)"/><path class="cls-1" d="M132.46,7.15l0-2.34.63-.45a1.37,1.37,0,0,0,.4-.46.88.88,0,0,0-.22-1.13h0c-.32-.17-.15-.67.14-.89l.44-.33" transform="translate(-1.73 -1.2)"/><path class="cls-1" d="M135.72,7.38l1.54-1.76-.16-.75a1.3,1.3,0,0,1,0-.62.88.88,0,0,1,.92-.68h0c.35.08.56-.4.5-.76l-.11-.54" transform="translate(-1.73 -1.2)"/><path class="cls-1" d="M135.12,6.93l1.57-1.73.77.07a1.43,1.43,0,0,0,.61-.08.91.91,0,0,0,.57-1h0c-.13-.34.32-.61.69-.58l.55,0" transform="translate(-1.73 -1.2)"/><path class="cls-1" d="M131.84,11.94h0a2.77,2.77,0,0,0,2.32,0h0" transform="translate(-1.73 -1.2)"/><path class="cls-1" d="M131.84,11.39h0a2.77,2.77,0,0,0,2.32,0h0" transform="translate(-1.73 -1.2)"/><path class="cls-2" d="M131.93,12.49h0a2.37,2.37,0,0,0,2.14,0h0" transform="translate(-1.73 -1.2)"/><circle class="cls-1" cx="131.02" cy="18.14" r="0.45"/><path class="cls-3" d="M132,11h0a2.46,2.46,0,0,0,2,0h0" transform="translate(-1.73 -1.2)"/><path class="cls-3" d="M132,12.88h0a2.49,2.49,0,0,0,2,0h0" transform="translate(-1.73 -1.2)"/></svg>