<?xml version="1.0" encoding="utf-8"?>
<!-- Generator: Adobe Illustrator 25.3.1, SVG Export Plug-In . SVG Version: 6.00 Build 0)  -->
<svg version="1.1" id="_x2018_лой_x5F_1" xmlns="http://www.w3.org/2000/svg" xmlns:xlink="http://www.w3.org/1999/xlink"
	 x="0px" y="0px" viewBox="0 0 5000.03 5000.03" style="enable-background:new 0 0 5000.03 5000.03;" xml:space="preserve">
<g>
	<path style="fill:#EBF3FA;" d="M4737.5,4254.73c-308.93,0-4485.65-9.02-4485.65-9.52c-1.72-4.05-530.22-651.79,135.26-1329.02
		c329.74-335.56-302.81-770.29,0-1143.55c518.69-639.38,1031.92-279.3,1459.47-459.12c75.54-31.74,151.35-82.83,227.23-161.23
		c42.71-44.08,89.53-82.64,139.64-115.93c7.68-5.12,15.45-10.13,23.29-14.99c30.01-18.61,61.12-35.43,93.17-50.57
		c21.53-10.15,43.45-19.54,65.8-28.17h0.02c35.45-13.7,71.86-25.52,109.05-35.51c52.82-14.2,107.19-24.76,162.65-31.91
		c24.19-3.15,48.58-5.6,73.14-7.46c477.73-35.91,1015.36,166.1,1292.8,461.35c55.86,59.46,309.86,367.09,109.64,789.93
		c-126.42,266.97,403.18,521.94,591.37,826.8C5212.85,3720.92,4741.84,4244.62,4737.5,4254.73z"/>
	<g style="opacity:0.8;">
		<path style="fill:#D7E5FF;" d="M3656.55,2452.66c-12.75,35.07-28.4,68.29-46.6,99.45c-43.68,74.76-101.92,137.61-169.67,186.21
			c-157.42,112.96-366.09,148.79-561.93,77.6c-232.97-84.69-382.6-297.08-398.54-529.43c-2.12-30.62-1.92-61.58,0.77-92.64
			c4.42-52.16,15.75-104.6,34.48-156.13c15.15-41.68,34.4-80.71,57.1-116.74c0.25-0.43,0.52-0.81,0.77-1.23
			c63.04-99.56,152.58-176.44,255.57-224.61c29.21-13.68,59.51-25.04,90.62-33.94c14.83-4.25,29.86-7.93,45.01-11.03
			c106.26-21.87,219.69-15.51,329.15,24.28c14.52,5.28,28.7,11.04,42.54,17.3c19.56,8.79,38.43,18.51,56.59,29.11
			c76.49,44.6,140.5,104.45,189.56,174.11l0.03,0.01c30.58,43.38,55.33,90.54,73.66,140.23c9.63,26.09,17.49,52.87,23.47,80.15
			c3.72,16.98,6.74,34.13,9.01,51.46c5.46,41.63,6.59,84.1,3.16,126.79C3687.04,2346.71,3675.63,2400.16,3656.55,2452.66z"/>
		<g>
			<path style="fill:#AEC3FF;" d="M2984.79,1919.22c-35.89,27.79-26.37,102.16-88.49,60.24c-62.12-41.92-101.12-64.7-118.7-28.13
				c-17.62,36.59,37.44,56.61,22.95,96.46c-14.49,39.86-43.96,44.07-75.03,11.34c-31.1-32.74-31.99-64.23-82.33-63.19
				c-50.34,1.04-71.82-19.66-69.37-57.45c0.42-6.65-0.26-12.41-1.66-17.52c0.25-0.43,0.52-0.81,0.77-1.23
				c63.04-99.56,152.58-176.44,255.57-224.61c29.21-13.68,59.51-25.04,90.62-33.94c14.83-4.25,29.86-7.93,45.01-11.03
				c17.56,7.12,36.37,21.6,46.35,50.63c21.91,63.85,57.45,48.83,27.27,102.32c-30.21,53.48-17.77,66.61,15.18,76.43
				c32.95,9.82,70.93,23.62,65.74,49.68C3113.5,1955.27,3020.68,1891.43,2984.79,1919.22z"/>
			<path style="fill:#AEC3FF;" d="M3656.55,2452.66c-12.75,35.07-28.4,68.29-46.6,99.45c-43.68,74.76-101.92,137.61-169.67,186.21
				c-16.89-0.53-32.25-6.24-45.19-17.81c-60.83-54.34,19.78-112.06,62.23-140.15c42.44-28.08-36.37-37.39-76.1-92.13
				c-39.73-54.73,53.3-128.89-6.48-132.9c-59.78-4-132.51-7.88-144.68-71.93c-12.17-64.05,50.72-50.86,39.71-104.82
				c-11.01-53.96,41.01-64.06,96.66-48.67c55.64,15.39,62.5-25.63,131.47-7c68.97,18.63,36.5,103.52,112.59,124.73
				c76.09,21.21,66.55,37.08,66.55,37.08c5.37,1.79,10.15,4.79,14.28,8.87C3687.04,2346.71,3675.63,2400.16,3656.55,2452.66z"/>
			<path style="fill:#AEC3FF;" d="M3688.16,2166.81c-72.44,7.58-67.54-82.86-129.05-77.5c-62.01,5.4-35.48-38.68-66.17-84.23
				c-30.73-45.53-134.24-20.85-113.2-66.93c21.03-46.05,78.84-10.02,105.93-43.14c27.09-33.12,84.37-1.56,84.37-1.56
				c3.92-0.06,7.93,0.43,11.96,1.51c0,0,0.01-0.03,0.03,0.01c30.58,43.38,55.33,90.54,73.66,140.23
				c9.63,26.09,17.49,52.87,23.47,80.15C3682.87,2132.34,3685.89,2149.48,3688.16,2166.81z"/>
			<path style="fill:#AEC3FF;" d="M3229.09,1814.63c0,0,49.19-34.82,2.94-67.19c-46.25-32.36-51.84-14.04-90.15-32.77
				c-38.32-18.73-65.18,6.42-47.54,50.97c17.65,44.56,18.35,118,57.92,93.37C3191.83,1834.39,3196.1,1806.4,3229.09,1814.63z"/>
		</g>
	</g>
	<path style="fill:#A8D29F;" d="M389.79,4246.95h211.8c11.35-9.63-7.85-31.49-27.92-32.96c-8.72-0.66-19.74,1.16-32.33,3.83
		c-2.91-38.71-19.56-212.74-82.29-205.75c-70.53,7.83,0,76.64,19.94,117.38c14.77,30.17,30.35,73.45,37.47,93.87
		c-5.73,1.24-11.65,2.46-17.71,3.57c-9.35-28.7-44.13-125.26-88.37-119.63c-51.94,6.59-31.06,45.3,5.75,68.28
		c27.01,16.9,60.17,40.92,75.93,52.52c-13.35,2.18-27.29,3.65-41.42,3.32C414.37,4230.51,396.66,4241.2,389.79,4246.95z"/>
	<path style="fill:#A8D29F;" d="M3760.6,4246.95h-196.73c-10.54-8.94,7.3-29.25,25.94-30.62c8.09-0.61,18.33,1.08,30.03,3.55
		c2.71-35.96,18.17-197.6,76.43-191.11c65.51,7.27,0,71.19-18.52,109.03c-13.72,28.03-28.19,68.22-34.81,87.19
		c5.32,1.15,10.83,2.28,16.45,3.32c8.69-26.66,40.99-116.34,82.08-111.12c48.24,6.12,28.85,42.08-5.34,63.42
		c-25.09,15.7-55.89,38.01-70.53,48.78c12.4,2.02,25.34,3.39,38.47,3.08C3737.78,4231.68,3754.23,4241.61,3760.6,4246.95z"/>
	<g>
		<path style="fill:#FFB27D;" d="M3901.1,2957.37c0,0,4.69-46.57-19.67-44.97c-24.36,1.59-30.8,12.76-28.08,21.71
			c2.72,8.95,26.41,38.56,26.41,38.56L3901.1,2957.37z"/>
		<path style="fill:#739AF0;" d="M4280.58,3050.69c0,0-26.96,31.68-84.94,68.24c-5.49,3.47-11.23,6.97-17.29,10.48
			c-22.51,13.12-48.93,26.55-79.43,39.08c-3.36,1.38-7.3,2.91-11.73,4.49c-34.74,12.55-98.67,30.34-138.29,31.93
			c-3.45,0.14-6.72,0.14-9.76,0.02c-60.3-2.43-67.65-236.46-67.65-236.46s6.72-23.42,37.69-17.52c0,0,47.04,132.16,63.9,142.94
			c14.98,9.58,101.05-120.9,175.14-130.03C4198.11,2957.72,4280.58,3050.69,4280.58,3050.69z"/>
		<path style="fill:#1C3154;" d="M4118.59,4191.92c0,0,4.45,51.52-6.44,56.88l-139.37-0.28c0,0,0-16.09,22.38-19.66
			c22.38-3.57,61.71-16.68,68.36-45.87C4070.19,4153.79,4118.59,4191.92,4118.59,4191.92z"/>
		<path style="fill:#2A4E96;" d="M4016.28,3568.41c0.69,33.69,2.3,68.43,5.47,99.66c15.05,148.18,20.34,327.22,22.51,361.74
			c3.75,59.92,15.59,155.65,15.59,155.65s23.48,22.29,69.24,11.65c0,0,37.92-137.87,46.39-283.05c0.13-2.38,0.26-4.78,0.38-7.17
			c0.98-19.19,2.01-41.14,3.06-64.8c6.97-158.51,14.55-393.98,14.55-393.98l-174.88-41.06
			C4018.58,3407.03,4014.56,3484.43,4016.28,3568.41z"/>
		<path style="fill:#233862;" d="M4016.28,3568.41c44.32,76.47,128.8,217.35,162.64,273.67c6.97-158.51,14.55-393.98,14.55-393.98
			l-174.88-41.06C4018.58,3407.03,4014.56,3484.43,4016.28,3568.41z"/>
		<path style="fill:#6385DB;" d="M4087.19,3172.98c-34.74,12.55-98.67,30.34-138.29,31.93c6.06-1.13,50.17-9.87,66.49-29.57
			c17.52-21.17,47.02-78.68,70.49-55.21C4096.93,3131.18,4093.68,3153.01,4087.19,3172.98z"/>
		<path style="fill:#FFB27D;" d="M4381.05,3543.49c0,0,10.85,42.57,9.07,52.03c-1.78,9.46-12.38,41.5-18.98,49.45
			c-6.61,7.95-6.88-34.55-11.27-41.23c-4.4-6.68-2.01,15.87-5.54,17.71c-3.52,1.84-9.39-17.07-12.01-23.78
			c-2.62-6.71,9.39-30.06,10.5-46.79C4353.93,3534.14,4381.05,3543.49,4381.05,3543.49z"/>
		<path style="fill:#1C3154;" d="M4465.76,4133.37c0,0,24.81,22.64,19.96,38.72c-4.84,16.09-27.22,26.81-30.25,46.46
			c-3.03,19.66-15.12,30.38-26.01,30.38c-10.89,0-51.92,0-51.92,0s-8.02-13.83,11.34-18c19.36-4.17,26.66-27.27,25.45-48.71
			c-1.21-21.45,1.81-50.04,1.81-50.04l41.14-9.53L4465.76,4133.37z"/>
		<path style="fill:#2A4E96;" d="M4046.14,3451.68c0,0,163.71,350.28,250.83,503.97c87.12,153.69,114.35,196.58,114.35,196.58
			s49.91-19.66,54.45-33.06c0,0-33.31-296.71-91.66-369.04c-32.97-40.87-71.69-163.52-73.51-206.41
			c-1.82-42.89-40.06-145.26-40.06-145.26L4046.14,3451.68z"/>
		<path style="fill:#739AF0;" d="M4015.64,3433.46c0,0,53.31,57.37,143.89,74.7c39.75,7.61,120.45,14.96,140.46-13.34
			c4.7-6.65,4.74-16.48,3.7-31.85c-2.7-39.93-12.74-117.12,32.6-272.24c4.22-14.43,7.07-28.27,8.72-41.46
			c9.9-79.36,8.82-139.27-60.03-171.27c-103.16-47.96-145.51-8.5-145.51-8.5s-54.87,25.64-79.94,100.36
			C4009.4,3219.32,4015.64,3433.46,4015.64,3433.46z"/>
		<path style="fill:#FFB27D;" d="M4223.05,2964.82c-17.37,12.33-47.92,19.62-77.06,5.05c-2.24-1.12-1.96-16.53-1.4-31.67
			c0.56-14.85,1.96-29.43,1.96-29.43l36.71-24.09l35.03-22.98C4214.09,2940.72,4230.9,2959.21,4223.05,2964.82z"/>
		<path style="fill:#ED985F;" d="M4212.12,2894.32c0,0-23.82,35.75-67.53,43.88c0.56-14.85,2.15-31.21,2.15-31.21l36.52-22.31
			L4212.12,2894.32z"/>
		<path style="fill:#FFB27D;" d="M4113.67,2899.48c0,0,88.81,33.14,108.57-21.58c19.76-54.72,44.53-87.29-11.34-110.77
			c-55.87-23.47-74.48-6.54-85.6,10.12C4114.2,2793.92,4091.08,2889.45,4113.67,2899.48z"/>
		<path style="fill:#2C3A64;" d="M4277.57,2773.29c1.02-0.79,3.09-1.18,7.42-0.57c0,0-2.99-2.81-7.54-3.83
			c0.28-6.12-0.8-17.27-10.53-21.85c0,0,4.92,4.02,4.39,10.48c-9.45-14.52-33.1-28.39-104.53-36.74
			c-94.14-10.99-75.31,54.39-64.71,63.83c10.6,9.45,44.64-3.98,66.65,2.21c22.01,6.19,19.88,39.34,26.59,45.27
			c6.71,5.93,5.27-2.5,16.45-5.11c11.18-2.61,8.8,14.59,3.65,25.06c-5.15,10.47,6.07,27.84,6.07,27.84s0,0,17.28-12.53
			c17.28-12.53,43.55-74.88,39.81-90.02C4278.23,2776,4277.91,2774.65,4277.57,2773.29z"/>
		<path style="fill:#6385DB;" d="M4303.69,3462.97c-2.7-39.93-12.74-117.12,32.6-272.24c4.22-14.43,7.07-28.27,8.72-41.46l-0.01,0
			c-33.69-11.11-95.07,13.6-95.07,13.6S4235.5,3367.91,4303.69,3462.97z"/>
		<path style="fill:#739AF0;" d="M4303.56,2988.37c0,0,41.45,15.08,67.89,124.83c17.47,72.52,49.63,179.1,53.26,212.6
			c3.62,33.49-36.77,229.59-36.77,229.59s-5.7,4.15-19.66,1.36c-13.36-2.67-19.58-11.71-19.58-11.71s-9.66-130.7-7.16-192.41
			c1.04-25.64-118.69-187.77-183.31-208.66C4132.86,3135.76,4303.56,2988.37,4303.56,2988.37z"/>
		<path style="fill:#AEC3FF;" d="M3723.74,2846.29c0,0,119.82-3.41,258.08,22.05l14.44-36.4l15.84-39.88
			c0,0-138.8-59.76-222.24-142.97L3723.74,2846.29z"/>
		<path style="fill:#F99746;" d="M3791.76,2647.16l-68.79,203.06l0,0c-10.06-2.98-15.56-13.78-12.05-23.67l60.54-170.61
			C3774.39,2647.67,3783.73,2643.63,3791.76,2647.16L3791.76,2647.16z"/>
		<path style="fill:#F99746;" d="M3857.42,2997.43L3857.42,2997.43c13.37,2.67,26.51-6.08,29.18-19.46l23.69-118.51
			c2.67-13.38-6.08-26.51-19.46-29.18l0,0c-13.38-2.67-26.51,6.08-29.18,19.46l-23.69,118.51
			C3835.29,2981.63,3844.05,2994.76,3857.42,2997.43z"/>
		<path style="fill:#739AF0;" d="M3723.74,2846.29c0,0,119.82-3.41,258.08,22.05l14.44-36.4
			C3866.35,2805.41,3723.74,2846.29,3723.74,2846.29z"/>
		<path style="fill:#F99746;" d="M3943.59,2861.02l37.44,6.59c-0.57,0.02,34.77,6.88,46.36-24.45c1.06-2.14,1.74-4.26,2.22-6.76
			c9-39.05-12.44-46.24-12.44-46.24l-48.18-18.77l-15.31,54.17c0,0,0,0,0.01,0.19L3943.59,2861.02z"/>
		<path style="fill:#ED7D2B;" d="M3943.59,2861.02l37.44,6.59c-0.57,0.02,34.77,6.88,46.36-24.45
			c-21.18-15.41-73.7-17.61-73.7-17.61s0,0,0.01,0.19L3943.59,2861.02z"/>
		<path style="fill:#FFB27D;" d="M3860.62,2882.67c0,0,18.31,7.3,14.96,15.36c-3.36,8.07-26.65,19.16-30.32,12.79
			C3841.58,2904.46,3849.1,2875.87,3860.62,2882.67z"/>
		<path style="fill:#FFB27D;" d="M3901.45,2950.03c0,0,3.46-18.74,3.67-27.34c0.22-8.61,1.23-15.64-0.8-15.88
			c-2.03-0.24-3.5,1.34-4.32,4.11c-0.83,2.77-4,19.93-4,19.93l1.6,16.57L3901.45,2950.03z"/>
	</g>
	<g>
		<path style="fill:#7599EA;" d="M2089.97,2937.8l-103.76,1233.75c0,0-10.87,74.79,44.76,74.92c91.47,0.22,455.26,0,455.26,0
			s-68.84-15.57-68.01-50.6c0.98-41.29,121.28-1269.75,121.28-1269.75L2089.97,2937.8z"/>
		<path style="fill:#90AFF4;" d="M2520.47,4224.59c-17.99,0.05-370.19,0.65-459.26-0.5c-38.82-0.48-45.62-34.51-45.95-56.54
			c-0.16-10.56,1.18-18.37,1.18-18.37l2.7-32.07l6.88-81.73l6.07-72.21l7.81-92.79l6.57-78.32l73.73-876.67l449.53-11.67
			c0,0-50.66,514.11-86.5,888.33c-4,41.69-7.81,81.68-11.33,118.99c-1.14,11.92-2.23,23.56-3.31,34.91
			c-3.32,35.41-6.36,67.92-9,96.63c-1.39,15.13-2.68,29.19-3.84,42.07c-4.57,50.47-7.25,82.7-7.29,88.82
			c-0.02,3.57,0.29,6.9,0.88,9.99C2456.72,4222.81,2513.72,4224.59,2520.47,4224.59z"/>
		<polygon style="fill:#AEC3FF;" points="998.28,2266.44 1251.03,3281.67 1285.63,3420.71 1403.35,3893.57 3590.34,3893.57 
			3156.45,2266.44 		"/>
		<polygon style="fill:#90AFF4;" points="998.28,2266.44 963.25,2278.11 1356.78,3928.89 1403.35,3893.58 		"/>
		<polygon style="fill:#7599EA;" points="1356.78,3928.89 3530.31,3928.89 3590.33,3893.58 1403.35,3893.58 		"/>
		
			<rect x="2120.06" y="4224.59" transform="matrix(-1 -1.224647e-16 1.224647e-16 -1 4710.7188 8471.5361)" style="fill:#AEC3FF;" width="470.6" height="22.36"/>
		<polygon style="fill:#5888DD;" points="2471.03,3928.88 2468.6,3945.98 2026.02,4035.39 2032.1,3963.18 2034.99,3928.88 		"/>
		<path style="opacity:0.4;fill:#5888DD;" d="M2520.47,4224.59c-17.99,0.05-370.19,0.65-459.26-0.5
			c-38.82-0.48-45.62-34.51-45.95-56.54l440.49-82.87c-4.57,50.47-7.25,82.7-7.29,88.82c-0.02,3.57,0.29,6.9,0.88,9.99
			C2456.72,4222.81,2513.72,4224.59,2520.47,4224.59z"/>
		<polygon style="fill:#AEC3FF;" points="998.28,2266.44 3156.45,2266.44 3506.62,3574.14 1323.83,3574.14 		"/>
		<polygon style="fill:#739AF0;" points="3404.82,3517.47 1384.12,3517.47 1311.91,3229.82 1283.97,3118.51 1272.58,3073.12 
			1198.37,2777.5 1194.52,2762.12 1155.29,2605.86 1137.74,2535.94 1122.77,2476.3 1087.67,2336.49 3079.25,2336.49 3117.79,2476.3 
			3134.23,2535.94 3153.5,2605.86 3280.48,3066.47 3280.48,3066.49 3291.25,3105.51 3296.25,3123.63 3383.92,3441.62 		"/>
		<polygon style="fill:#607CF4;" points="3117.8,2476.31 1122.77,2476.31 1087.68,2336.49 3079.26,2336.49 		"/>
		<g>
			<path style="fill:#E9F3FE;" d="M1170.07,2399.68c-2.41-9.65,3.47-17.48,13.12-17.48c9.65,0,19.43,7.83,21.84,17.48
				c2.41,9.65-3.47,17.48-13.12,17.48C1182.25,2417.15,1172.47,2409.33,1170.07,2399.68z"/>
			<path style="fill:#E9F3FE;" d="M1228.14,2399.68c-2.41-9.65,3.47-17.48,13.12-17.48c9.65,0,19.43,7.83,21.84,17.48
				s-3.47,17.48-13.12,17.48C1240.33,2417.15,1230.55,2409.33,1228.14,2399.68z"/>
			<path style="fill:#E9F3FE;" d="M1290.68,2399.68c-2.41-9.65,3.47-17.48,13.12-17.48c9.65,0,19.43,7.83,21.84,17.48
				c2.41,9.65-3.47,17.48-13.12,17.48C1302.86,2417.15,1293.09,2409.33,1290.68,2399.68z"/>
		</g>
	</g>
	<path style="fill:#F77D48;" d="M2683.08,1523.63c81.67-95.89,207.62-288.52,292.41-387.17c17.45-20.3,2.95-51.64-23.83-51.64
		h-154.29l145.54-329.09c6.21-14.05-12.93-25.25-22.13-12.94l-351.9,470.99c-10.26,13.74,0.96,33.08,17.98,30.98l174.68-21.51
		l-103.92,285.47C2651.89,1524.46,2672.24,1536.36,2683.08,1523.63z"/>
	<path style="fill:#AEC3FF;" d="M1956.64,2107.71c18.37-94.24,29.97-269.29,49.39-366.52c4-20.01-17.36-35.4-35.14-25.38
		l-102.48,57.71l-26.43-273.01c-1.13-11.66-18.03-11.93-19.54-0.31l-57.55,444.45c-1.68,12.97,13.01,21.61,23.53,13.85l107.97-79.63
		l37.76,228.48C1936.23,2119.92,1954.2,2120.22,1956.64,2107.71z"/>
	<g>
		<path style="fill:#E6EFFF;" d="M3493.1,3545.3l-1755.83,147.93c-133.32,11.23-229.8-124.69-175.22-246.84l743.88-1664.81
			c56.43-126.3,229.9-140.92,306.67-25.84l1011.95,1516.88C3698.8,3383.92,3626.42,3534.07,3493.1,3545.3z"/>
		<g>
			<path style="fill:#F77D48;" d="M3498.69,3611.72l-1755.83,147.93c-86.35,7.28-167.86-30.57-218.02-101.24
				c-50.16-70.66-59-160.09-23.65-239.21l743.88-1664.81c36.55-81.81,111.68-135.14,200.97-142.66
				c89.29-7.52,172.28,32.49,222,107.03l1011.95,1516.88c48.1,72.09,54.34,161.73,16.71,239.79
				C3659.06,3553.49,3585.04,3604.44,3498.69,3611.72z M2457.23,1744.56c-40.19,3.39-74,27.39-90.45,64.21l-743.89,1664.82
				c-15.91,35.61-11.93,75.86,10.64,107.67c22.58,31.8,59.26,48.84,98.13,45.56l1755.83-147.93c38.87-3.28,72.19-26.21,89.12-61.34
				c16.94-35.14,14.12-75.48-7.52-107.93L2557.15,1792.73C2534.77,1759.18,2497.42,1741.18,2457.23,1744.56z"/>
		</g>
		<g>
			<g>
				<path style="fill:#F77D48;" d="M2416.09,3290.6c-1.91-22.63,0.36-43.88,6.83-63.77c6.45-19.87,16.48-37.47,30.05-52.77
					c13.57-15.29,30.38-27.76,50.44-37.4c20.05-9.62,43.08-15.54,69.08-17.73c25.98-2.19,49.86-0.22,71.6,5.88
					c21.74,6.12,40.58,15.58,56.52,28.39c15.94,12.82,28.75,28.49,38.45,47c9.69,18.52,15.5,39.1,17.41,61.72
					c1.91,22.63-0.39,43.72-6.88,63.25c-6.49,19.55-16.52,36.97-30.09,52.26c-13.57,15.31-30.56,27.79-50.97,37.44
					c-20.41,9.65-43.62,15.59-69.61,17.78c-26,2.19-49.7,0.2-71.07-5.93c-21.4-6.13-40.05-15.61-55.99-28.43
					c-15.94-12.8-28.75-28.29-38.41-46.49C2423.78,3333.64,2418,3313.23,2416.09,3290.6z M2687.55,2972.96l-252.91,21.31
					L2326,2133.11l324.57-27.35L2687.55,2972.96z"/>
			</g>
		</g>
	</g>
	<g>
		<path style="fill:#FFB27D;" d="M1325.79,3025.76c0,0,5.51-12.38,9.07-18.25c3.57-5.86,18.8-23.04,21.39-19.15
			c2.59,3.89,12.96,30.07,7.45,37.4c-5.51,7.33,0.36,20.08-27.05,27.8L1325.79,3025.76z"/>
		<path style="fill:#ED7D2B;" d="M1021.26,2947.58c0,0,140.28,117.1,194.97,106.25c42.77-8.48,110.39-29.93,110.39-29.93
			s17.85,16.98,12.8,37.32c0,0-86.15,81.06-147.52,81.58c-95.93,0.82-141.18-47.54-141.18-47.54L1021.26,2947.58z"/>
		<path style="fill:#113C68;" d="M775.25,4182.67c0,0,4.07,65.69,16.78,66.63c1.69,0.13,64.46,0.13,64.46,0.13l80.13-0.46
			c0,0-0.52-19.31-23.95-23.39c-23.42-4.08-62.62-20.54-76.81-51.5C820.93,4141.51,775.25,4182.67,775.25,4182.67z"/>
		<path style="fill:#2A4E96;" d="M770.63,4187.23c0,0,24.36,8.15,43.38,8.15c21.21,0,40.49-5.78,40.49-5.78s4.59-44.35,29.82-142.06
			c13.23-51.22,32.13-117.07,59.01-198.9c74.32-226.15,96.93-358.45,98.99-370.98c0.11-0.66,0.15-0.99,0.15-0.99l-0.24-0.11
			l-228.5-100.33c0,0,28.24,311.69-7.79,431.32c-5.05,16.72-9.37,36.21-13.08,57.32C770.1,3994.83,770.63,4187.23,770.63,4187.23z"
			/>
		<path style="fill:#233862;" d="M884.32,4047.54c13.23-51.22,32.13-117.07,59.01-198.9c74.32-226.15,96.93-358.45,98.99-370.98
			c-0.02-0.37-0.04-0.72-0.09-1.1l-228.5-100.33c0,0,28.24,311.69-7.79,431.32C800.89,3824.29,884.32,4047.54,884.32,4047.54z"/>
		<path style="fill:#15447C;" d="M953.72,4182.67c0,0,4.07,65.69,16.78,66.63c1.69,0.13,64.46,0.13,64.46,0.13l80.13-0.46
			c0,0-0.53-19.31-23.95-23.39c-23.42-4.08-62.62-20.54-76.81-51.5C999.4,4141.51,953.72,4182.67,953.72,4182.67z"/>
		<path style="fill:#2A4E96;" d="M1083.27,3383.59c0,0,2.97,201.98-31.98,449.97s-23.1,353.26-23.1,353.26s-24.01,7.78-33.7,8.57
			c-24.69,2.01-50-5.79-50-5.79s-50.02-248.08-35.68-372.21s-68.49-425.93-68.49-425.93L1083.27,3383.59z"/>
		<path style="fill:#FFB27D;" d="M921.24,2910.94l44.6,29.25l40.63-11.49c7.43-10.59,9.39-31.02,9.5-48.71
			c0.11-17.56-1.59-32.44-1.59-32.44l-60.18-26.56l-22.45-9.89c0.07,0.35,1.75,18.43,1.99,21.08
			C937.93,2879.07,921.24,2910.94,921.24,2910.94z"/>
		<path style="fill:#F99746;" d="M1084.29,3439.74c-55.52,53.6-265.62,44.59-278.57-14.47c-12.93-59.06,14.12-502.74,108.96-530.61
			c19.68-5.78,124.89,28.22,124.89,28.22s16.51,43.19,27.34,98.17c2.1,10.7,8.23,124.08,12.83,230.16
			c2.14,49.61,3.95,97.63,4.88,132.79C1085.44,3416.93,1085.48,3438.57,1084.29,3439.74z"/>
		<path style="fill:#FCA56B;" d="M938.24,2833c12.21,20.64,55.04,38.71,77.74,46.98c0.11-17.56-1.59-32.44-1.59-32.44l-60.18-26.56
			C940.9,2820.81,932.8,2823.79,938.24,2833z"/>
		<path style="fill:#FFB27D;" d="M1037.08,2843.88c0,0-96.96,30.25-114.87-30.42c-17.91-60.67-42.48-97.63,18.67-119.51
			c61.15-21.88,80.06-2.29,90.97,16.5C1042.75,2729.26,1061.84,2834.45,1037.08,2843.88z"/>
		<path style="fill:#163560;" d="M1028.04,2704.61c0,0-6.18,70.6-20.78,67.54c-14.6-3.07-30.67-9.62-28.54,11.66
			c2.14,21.28-14.2,57.77-35.25,57.68c-45.15-0.19-94.22-116.05-81.85-138.03C897.28,2640.07,1079.59,2627.28,1028.04,2704.61z"/>
		<path style="fill:#ED7D2B;" d="M1013.78,2896.19c-1.25-0.53-72.18-32.34-80.48-29.61c-8.3,2.74-18.63,28.07-18.63,28.07
			l124.89,28.24C1039.56,2922.89,1029.73,2902.9,1013.78,2896.19z"/>
		<g>
			<path style="fill:#1F4D84;" d="M1455.36,3239.8l-397.6,374.35c-7.79,7.34-17.62,9.67-21.84,5.2l-13.42-14.26
				c-4.22-4.48-1.29-14.15,6.5-21.49l397.6-374.35c7.79-7.34,17.62-9.67,21.84-5.2l13.42,14.26
				C1466.08,3222.79,1463.15,3232.46,1455.36,3239.8z"/>
			<path style="fill:#739AF0;" d="M1232.23,3449.88l-174.48,164.27c-7.79,7.34-17.62,9.67-21.84,5.2l-13.42-14.26
				c-4.22-4.48-1.29-14.15,6.5-21.49l174.48-164.27L1232.23,3449.88z"/>
			<path style="fill:#1F4D84;" d="M1363.97,3098.46c15.27,50.3,43.53,97.42,84.58,136.04c125.36,117.93,322.6,111.9,440.52-13.43
				c116.38-123.72,112.05-317.37-8.56-435.79c-1.59-1.59-3.23-3.17-4.89-4.72c-125.33-117.93-322.55-111.94-440.48,13.41
				C1355.8,2878.28,1332.54,2995.12,1363.97,3098.46z M1453.05,2810.83c68.63-72.95,166.42-102.03,258.25-86.13
				c53.51,9.26,104.98,33.77,147.48,73.76c115.46,108.62,120.99,290.27,12.36,405.73c-39.99,42.51-89.86,70.09-142.68,82.61
				c-90.71,21.47-190.1-1.57-263.05-70.22C1349.95,3107.96,1344.4,2926.31,1453.05,2810.83z"/>
			<g style="opacity:0.5;">
				<path style="fill:#B3CFF9;" d="M1871.15,3204.2c-39.99,42.51-89.87,70.1-142.69,82.62c-90.7,21.46-190.09-1.59-263.05-70.24
					c-115.46-108.62-121-290.28-12.36-405.75c68.63-72.95,166.42-102.02,258.25-86.12c53.51,9.25,104.99,33.77,147.48,73.75
					C1974.23,2907.09,1979.77,3088.74,1871.15,3204.2z"/>
			</g>
		</g>
		<path style="fill:#ED7D2B;" d="M1084.6,3384c-219.08-156.11-200.87-364.43-200.87-364.43c80.07,45.16,159.53,145.02,195.99,231.64
			C1081.86,3300.81,1083.67,3348.84,1084.6,3384z"/>
		<g>
			<path style="fill:#FFB27D;" d="M1300.83,3312.9c15.45-3.56,25.83-15.24,27.98-17.28c0,0,6.59,0.45-1.08,14.5
				c-0.64,1.18-2.07,4.2-3.14,6.33c-0.44,0.88,0.17,1.89,1.15,1.96c8.92,0.68,17.88-2.85,35.05,0.73c2.37,0.49,3.06,6.17,2.97,8.59
				c-0.15,4.09,0.14,8.68-4.62,14.96c-2.77,3.65-10.49,7.58-27.68,14.5c-6.55,2.64-25.28,0.65-42.83-5.38l-14.03-6.49l4.35-26.07
				l3.52,0.74C1288.06,3321.17,1294.99,3314.33,1300.83,3312.9z"/>
			<path style="fill:#F99746;" d="M951.72,2922.89c0,0-196.85,37.48,57.92,322.55c40.74,45.59,260.88,104.95,260.88,104.95
				s22.33-18.99,11.07-34.38c0,0-151.57-110.07-184.92-127.56c-15-7.87-58.23-175.68-82.68-216.09
				C989.53,2931.94,951.72,2922.89,951.72,2922.89z"/>
		</g>
		<path style="fill:#FFB27D;" d="M1331.12,3029.22c0,0,6.44-12.3,7.7-18.8c1.26-6.49,9.36-25.42,12.7-28.75
			c1.34-1.34,5.75,0.39,6.27,6.13c0.23,2.5-1,7.04-3.16,12.45c-3.52,8.81-2.94,20.76-4.17,24.74
			C1347.41,3034.91,1331.12,3029.22,1331.12,3029.22z"/>
	</g>
	<g>
		<g>
			<path style="fill:#FFB27D;" d="M1409.46,2540.81c-3.35,3.83-3.78,8.12-2.12,12.7c0,0.02,0.01,0.05,0.03,0.06
				c3.06,8.47,13.18,17.92,24.93,27.37c1.5,1.21,2.84,2.32,4,3.34c0.31,0.27,0.61,0.54,0.9,0.81c0.24,0.21,0.46,0.43,0.69,0.62
				c10.96,10.11,6.83,12.42,26.52,32.94c22.45,23.37,37.91,23.8,42.31,21.67c3.72-1.81-3.83-14.21-12.21-28.14
				c-0.41-0.67-0.8-1.35-1.22-2.03c-1.12-1.85-2.22-3.73-3.33-5.59c-9.81-16.77-7.29-24.63-4.95-49.58
				c1.9-20.27,31.58-113.24,31.58-113.24l-43.03-7.43c0,0-12.98,74.04-27.27,85.43c-7.64,6.07-16.18,6.15-23.52,10.65
				c-0.52,0.31-1.03,0.64-1.53,0.97C1417.07,2534.12,1412.82,2536.97,1409.46,2540.81z"/>
			<path style="fill:#233862;" d="M1409.46,2540.81c-3.35,3.83-3.78,8.12-2.12,12.7c0,0.02,0.01,0.05,0.03,0.06
				c3.75,8.46,13.61,17.87,24.97,27.28c1.48,1.23,2.79,2.37,3.96,3.42c0.31,0.27,0.61,0.54,0.9,0.81c0.24,0.21,0.46,0.43,0.69,0.62
				c10.96,10.11,6.83,12.42,26.52,32.94c22.45,23.37,37.91,23.8,42.31,21.67c3.72-1.81-3.83-14.21-12.21-28.14
				c-4.37-1.6-24.67-9.86-40.02-29.51c-13.02-16.63-21.86-37.83-30.73-50.84c-0.98-0.18-1.55-0.29-2.53-0.47
				C1417.07,2534.12,1412.82,2536.97,1409.46,2540.81z"/>
			<path style="fill:#FFB27D;" d="M1756.48,2514.05c2.65,13.28,21.59,11.08,42.74,5.91c21.16-5.16,16.13,0.98,46.24-2.34
				c30.11-3.32,39.23-14.55,40.15-19.02c0.82-3.97-14.05-5.38-30.01-7.22c-2.01-0.22-4.02-0.47-6.04-0.72
				c-18.01-2.27-31.2-13.9-47.57-23.45c-15.5-9.05-38.62-45.9-38.62-45.9l-41.29,3.26c0,0,21.66,32.92,30.03,47.23
				c4.93,8.42,4.66,19.55,4.04,28.14C1755.84,2504.6,1755.53,2509.37,1756.48,2514.05z"/>
			<path style="fill:#233862;" d="M1799.22,2519.97c21.16-5.16,16.13,0.98,46.24-2.34c30.11-3.32,39.23-14.55,40.15-19.02
				c0.82-3.97-14.05-5.38-30.01-7.22l-0.15,0.31c0,0-18.06,12.8-43.12,13.39c-20.43,0.49-42.06-5.37-56.17-5.15
				c-0.32,4.67-0.63,9.44,0.31,14.12C1759.13,2527.34,1778.06,2525.13,1799.22,2519.97z"/>
			<path style="fill:#233862;" d="M1598.33,2249.98l-38.63,103.85l-50.44,135.6c0,0-13.68,1.32-26.77-2.46
				c-12.06-3.49-25.89-12.61-25.89-12.61s14.04-145.61,40.17-229.19c6.7-21.45,14.2-38.81,22.48-48.57
				C1559.73,2148.8,1598.33,2249.98,1598.33,2249.98z"/>
			<path style="fill:#2A4E96;" d="M1559.15,2085.02c-21.97-7.09-79.3-0.14-141.48,11.1c-17.18,3.1-34.5-4.75-43.54-19.68l0,0
				l-156.48-12.28c0,0-51.68,114.5-23.43,187.47c4.15,10.73,13.27,17.42,27.34,17.65c0.01,0.01-0.01-0.01,0,0
				c0,0,94.56,0.16,124.81,0.17c77.82,0.03,164.72-53.44,175.96-55.68c18.4-3.67,25.74,33.12,44.12,71.76
				c18.38,38.64,172.86,171.14,172.86,171.14s23.75,0.24,33.56-3.43c10.55-3.95,14.41-9.09,14.41-9.09
				S1616.17,2103.43,1559.15,2085.02z"/>
			<path style="fill:#233862;" d="M1357.65,1616.9c-11.62-6.92-22.95-7.98-29.89-7.79c-4.83,0.14-9.65-0.18-14.43-0.88
				c-59.72-8.78-95.72,77.96-97.84,104.17c-3.89,48.12-29.35,55.45-65.19,85.58c-71.87,60.41-50.83,130.64-11.55,156.74
				c23.57,15.66,65.12,0.02,65.12,0.02c0.59,0.41,113.66-63.16,169.39-93.82C1456.82,1849.08,1391.21,1636.89,1357.65,1616.9z"/>
			<path style="fill:#FFB27D;" d="M1326.58,1834.79c0.25,0.16-27.42,9.59-45.92,1.4c-17.4-7.7-30.57-36.33-30.31-36.35
				c7.92-0.36,16.61-7.28,23.32-52.69l3.37,1.21l56.67,20.41c0,0-4.11,18.18-6.77,35.5
				C1324.69,1818.81,1323.48,1832.74,1326.58,1834.79z"/>
			<path style="fill:#ED975D;" d="M1333.7,1768.78c0,0-2.27,9.81-5.57,28.14c-32.55-5.87-46.52-30.95-51.1-48.55L1333.7,1768.78z"/>
			<path style="fill:#FFB27D;" d="M1342.14,1786.83c0,0-77.54-10.43-70.3-58.62c7.24-48.19,2.11-81.99,51.92-77.36
				c49.81,4.62,56.65,24.45,58.14,41.13C1383.4,1708.64,1362.49,1788.3,1342.14,1786.83z"/>
			<path style="fill:#233862;" d="M1379.09,1665.56c0,0-49.65,42.76-83.42,46.2c-33.77,3.44-46.54-7.41-46.54-7.41
				s19.91-16.52,31.89-43.18c3.53-7.86,11-13.25,19.58-13.99C1324.7,1645.11,1370.41,1644.17,1379.09,1665.56z"/>
			<path style="fill:#233862;" d="M1348.06,1661.71c0,0,16.6,16.06,21.83,27.97c5.04,11.49,6.55,38.98,2.52,49.9
				c0,0,25.89-50.3,11.25-74.75C1368.14,1638.91,1348.06,1661.71,1348.06,1661.71z"/>
			<path style="fill:#F99746;" d="M1391.83,1949.04c-2.4,156.96-0.69,124.16-17.86,139.05c-4.14,3.58-15.77,5.72-31.08,6.72
				c-48.13,3.18-132.74-4.78-135.95-13.68c-11.09-30.78-3.25-40.34-12.5-87.46c-0.96-5.01-2.16-10.44-3.56-16.34
				c-7.71-32.37-15.22-43.38,12.19-95.36c24.86-47.09,50.69-85.3,53.01-83.92c65.54,38.94,70.84,6.23,70.84,6.23
				S1393.01,1872.48,1391.83,1949.04z"/>
			<path style="fill:#2A4E96;" d="M1559.7,2353.83l-50.44,135.6c0,0-13.68,1.32-26.77-2.46c-12.06-3.49-25.89-12.61-25.89-12.61
				s14.04-145.61,40.17-229.19L1559.7,2353.83z"/>
			<path style="fill:#F99746;" d="M1326.93,1804.27c0,0,67.45,11.46,75.36,40.5c7.91,29.04,33.92,205.33,33.92,205.33
				s-19.03,18.57-34.86,2.72c-15.84-15.85-49.8-164.95-49.8-164.95L1326.93,1804.27z"/>
			<path style="fill:#ED7D2B;" d="M1342.89,2094.82c-48.13,3.18-132.74-4.78-135.95-13.68c-11.09-30.78-3.25-40.34-12.5-87.46
				l23.24-65.36c0,0-3.86,72.79,17.6,91.95c21.44,19.15,87.88,36.99,98.31,52.99C1338.62,2080.93,1341.93,2088.64,1342.89,2094.82z"
				/>
			<path style="fill:#FFB27D;" d="M1287.76,2064.18c0,0,47.49-10.56,55.15-6.34c7.66,4.22,26.38,19.57,28.72,24.91
				c2.34,5.34-17.06-4.06-23.37-5.75c-4.09-1.1-14.85,2.64-20.17,4.41c-22.41,7.46-36.14,3.62-36.14,3.62L1287.76,2064.18z"/>
			<path style="fill:#F99746;" d="M1256.05,1798.02c0,0-63.76,3.91-85.84,34.68c-31.08,43.32-92.78,227.98-57.47,252.62
				c39.77,27.75,181.04,7.32,181.04,7.32s4.71-21.97-1.83-32.6c-6.54-10.63-112.82-27.84-117.73-32.74
				c-4.9-4.91,61.35-95.64,61.36-110.36S1256.05,1798.02,1256.05,1798.02z"/>
			<path style="fill:#FFB27D;" d="M1345.2,2071.06c0,0,9.95,12.84,13.21,14.37c3.26,1.53,5.37,1.15,5.37,1.15l-6.7-12.07
				L1345.2,2071.06z"/>
			<path style="fill:#FFB27D;" d="M1342.91,2057.84l28.92,14.06c0,0-1.23,2.01-4.79,1.85c-3.56-0.16-12.55-3.45-12.55-3.45
				L1342.91,2057.84z"/>
		</g>
		<polygon style="fill:#233862;" points="1589.9,2090.95 1287.75,2090.85 1287.75,2097.52 1587.22,2097.62 		"/>
		<polygon style="fill:#233862;" points="1358.4,2097.54 1587.22,2097.62 1656.11,1926.48 1427.65,1926.4 		"/>
		<path style="fill:#FFFFFF;" d="M1529.49,2012.02c1.73-6.02-1.75-10.9-7.77-10.9c-6.02,0-12.3,4.87-14.02,10.89
			c-1.73,6.02,1.75,10.89,7.77,10.9C1521.48,2022.91,1527.76,2018.03,1529.49,2012.02z"/>
	</g>
	<g>
		<path style="fill:#163560;" d="M3078.06,2743.02c-30.83-10.24-52.17,2.68-52.17,2.68c-88.75,3.65-92.05,94.62-81.63,128.47
			c14.63,47.55-37.14,85.04,20.28,104.29c66.63,22.33,122.54-4.16,118.72,7.34C3293.97,3002.4,3148.17,2766.3,3078.06,2743.02z"/>
		<path style="fill:#F99746;" d="M2986.01,3185.48c0,0-8.43,16.7-23.73,35.89c-18.44,23.09-115.2-31.72-106.87-35.89
			c8.34-4.17,56.96-144.25,68.54-161.86c11.59-17.6,51.04-26.74,51.04-26.74L2986.01,3185.48z"/>
		<path style="fill:#1F447F;" d="M3312.56,4130.3c0,0,26.71,24.37,21.5,41.69c-5.21,17.32-29.31,28.86-32.57,50.03
			c-3.26,21.17-16.28,32.71-28.01,32.71c-11.73,0-55.9,0-55.9,0s-8.63-14.9,12.22-19.39c20.85-4.49,28.7-29.36,27.4-52.45
			s1.95-53.88,1.95-53.88l44.3-10.26L3312.56,4130.3z"/>
		<path style="fill:#1C3154;" d="M3086.5,4140.65c0,0,9.61,103.26-2.12,109.03l-150.06-0.31c0,0,0-17.32,24.1-21.17
			c24.1-3.85,66.44-17.96,73.61-49.39C3039.2,4147.38,3086.5,4140.65,3086.5,4140.65z"/>
		<path style="fill:#F99746;" d="M3201.94,3115.83c0,0,2.24,31.53,0,69.36c-1.49,25.08-26.85,58.67-30.45,66.98
			c-9.03,20.84-19.21,24.23-19.21,24.23l-78.79,19.31l-27.7,6.78l-87.36-26.09c0,0-39.79-111.06-23.81-173.58
			c15.98-62.52,40.39-105.94,40.39-105.94s59.37-13.35,164.11-5.92L3201.94,3115.83z"/>
		<path style="fill:#ED7D2B;" d="M3209.44,3186.07c-1.49,25.08-34.36,57.79-37.96,66.1c-9.03,20.84-19.21,24.23-19.21,24.23
			l-78.79,19.31l-14.23-40.77c0,0,115.12-30.24,96.6-136.79L3209.44,3186.07z"/>
		<path style="fill:#233862;" d="M2963.97,3293.26c0,0-43.26,134.66-46.04,180.51c-2.78,45.85,82.7,651.31,86.14,672.44
			c3.24,19.91,27.97,32.61,27.97,32.61s11.37,6.71,27.6,2.13c22.52-6.36,29.64-13.97,29.64-13.97s33.67-431.81,12.84-586.06
			c-20.84-154.25-21.09-287.65-21.09-287.65H2963.97z"/>
		<path style="fill:#2A4E96;" d="M3147.27,3289.24c0,0,65.99,88.55,72.15,148.4c6.15,59.86,9.65,270.11,22.76,328.46
			s61.26,170.65,61.26,352.65c0,0-5,10.43-20.46,15.99c-4.94,1.78-11.57,3.5-18,4.98c-12.75,2.92-25.82-3.31-31.64-15.02
			c-32.56-65.55-136.27-276.98-141.58-320.86c-3.76-31.06-36.51-236.61-107.94-357.23c-17.15-28.96,10.53-144.11,10.53-144.11
			L3147.27,3289.24z"/>
		<path style="fill:#233862;" d="M2957.06,3272.47c0,0,17.37,13.74,51.87,14.43c41.21,0.83,143.33-10.51,143.33-10.51
			s4.54,12.68,4.35,26.06c0,0-124.72,31.46-196.99,4.59C2959.63,3307.05,2950.31,3289.52,2957.06,3272.47z"/>
		<g>
			<path style="fill:#FFFFFF;" d="M2999.04,3322.42c-10.37,0-18.81-9.55-18.81-21.28c0-11.74,8.44-21.28,18.81-21.28
				c10.37,0,18.81,9.55,18.81,21.28C3017.85,3312.87,3009.41,3322.42,2999.04,3322.42z M2999.04,3286.08
				c-6.93,0-12.57,6.75-12.57,15.05c0,8.3,5.64,15.05,12.57,15.05s12.57-6.75,12.57-15.05
				C3011.62,3292.83,3005.98,3286.08,2999.04,3286.08z"/>
		</g>
		<polygon style="fill:#B5453C;" points="3089.15,3361.13 2901.69,3362.89 2809.44,3146.1 2996.9,3144.35 		"/>
		<path style="fill:#FFB27D;" d="M3064.63,3263.17l-13.74-16.89c0,0-9.3-8.29-16.05-9.7c-6.75-1.41-21-9.63-22.38-7.31
			c-1.38,2.31,10.95,18.83,10.95,18.83l0.62,0.09c-14.15,10.64-49.89,1.25-54.29,5.59c-5.35,5.26,7.36,16.64,14.17,23.03
			c6.82,6.39,26.31,17.04,41.5,12.31c11.11-3.46,28.59-6.98,28.59-6.98L3064.63,3263.17z"/>
		<path style="fill:#FFB27D;" d="M2823.55,3184.24c0,0,11.78-13.39,19.28-6.96c7.5,6.43-1.96,38.02-9.1,34.81
			C2826.58,3208.87,2819.44,3188.16,2823.55,3184.24z"/>
		<path style="fill:#F99746;" d="M3139.1,2990.96c0,0,53.66,5.92,92.17,75.89c30.37,55.18,82.29,156.9,62.69,185.63
			c-8.6,12.62-91.04,57.5-250.04,31.85c0,0,2.5-20.08,15.33-29.39c0,0,133.81-42.96,133.58-51.51
			c-0.43-16.17-18.08-30.14-92.83-104.9C3079.69,3078.2,3139.1,2990.96,3139.1,2990.96z"/>
		<path style="fill:#FFB27D;" d="M3097.8,2993.8c1.84-2.48-0.53-10.36-3.48-25.04c-2.67-13.3-7.2-33.87-7.1-57.01l-3.96,0.66
			l-66.51,11.19c0,0,1.51,17.78,1.56,34.54c0,0.14,0,0.28,0,0.42c0.08,14.55-3.93,36.54,0.98,39.41
			C3044.5,3012.73,3090.71,3003.32,3097.8,2993.8z"/>
		<path style="fill:#E8945B;" d="M3016.75,2923.6c0,0,1.32,25.08,1.37,41.83c37.22-0.89,57.08-37.03,65.14-53.02L3016.75,2923.6z"/>
		<path style="fill:#FFB27D;" d="M3012.74,2953.5c0,0,87.19-12.42,78.62-66.6c-8.57-54.18-3.09-92.27-59.12-86.63
			c-56.03,5.64-63.55,28.02-65.09,46.8C2965.61,2865.85,2989.84,2955.34,3012.74,2953.5z"/>
		<path style="fill:#163560;" d="M2992.42,2805.26c0,0,33.93,59.76,71.97,63.33c38.04,3.57,52.33-8.74,52.33-8.74
			s-31.57-17.8-43.58-55.74C3073.14,2804.11,3005.56,2772.15,2992.42,2805.26z"/>
		<path style="fill:#163560;" d="M2999.15,2809.48c0,0-16.6,9.41-21.82,23.45c-5.1,13.73-8.5,31.37-3.83,51.6
			c0,0-24.82-40.34-8.55-67.98C2982.19,2787.23,2999.15,2809.48,2999.15,2809.48z"/>
	</g>
	<path style="fill:#233862;" d="M4920.11,4262.52H86.97c-3.32,0-6.04-2.72-6.04-6.04v-3.48c0-3.32,2.72-6.04,6.04-6.04h4833.14
		c3.32,0,6.04,2.72,6.04,6.04v3.48C4926.15,4259.8,4923.43,4262.52,4920.11,4262.52z"/>
</g>
</svg>
